<?xml version="1.0" encoding="iso-8859-1"?>
<!-- Generator: Adobe Illustrator 16.0.0, SVG Export Plug-In . SVG Version: 6.00 Build 0)  -->
<!DOCTYPE svg PUBLIC "-//W3C//DTD SVG 1.1//EN" "http://www.w3.org/Graphics/SVG/1.1/DTD/svg11.dtd">
<svg version="1.1" id="Capa_1" xmlns="http://www.w3.org/2000/svg" xmlns:xlink="http://www.w3.org/1999/xlink" x="0px" y="0px"
	 width="462.619px" height="462.619px" viewBox="0 0 462.619 462.619" style="enable-background:new 0 0 462.619 462.619;"
	 xml:space="preserve">
<g>
	<path d="M321.793,33.6c-33.486,0-65.168,10.74-90.484,30.464c-0.052-0.04-0.104-0.079-0.156-0.119
		c-5.5,5-10.657,10.464-15.432,16.42c-13.285,16.571-18.578,30.81-18.63,30.951c-1.483,4.055-5.32,6.578-9.404,6.578
		c-1.13,0-2.278-0.193-3.401-0.6c-5.182-1.88-7.87-7.585-6.005-12.771c0.604-1.682,10.134-27.325,35.716-51.998
		C192.173,40.19,167.054,33.6,140.828,33.6C63.177,33.6,0,92.095,0,163.99c0,36.743,12.124,73.625,36.034,109.62
		c18.786,28.271,44.861,56.065,77.514,82.604c55.162,44.839,109.543,70.433,111.832,71.5c1.863,0.872,3.895,1.307,5.93,1.307
		c2.032,0,4.067-0.435,5.934-1.307c2.283-1.066,56.664-26.661,111.828-71.5c32.652-26.538,58.729-54.332,77.514-82.604
		c23.91-35.994,36.033-72.877,36.033-109.62C462.619,92.094,399.445,33.6,321.793,33.6z"/>
</g>
<g>
</g>
<g>
</g>
<g>
</g>
<g>
</g>
<g>
</g>
<g>
</g>
<g>
</g>
<g>
</g>
<g>
</g>
<g>
</g>
<g>
</g>
<g>
</g>
<g>
</g>
<g>
</g>
<g>
</g>
</svg>
