<svg xmlns="http://www.w3.org/2000/svg" width="848" height="1484"><rect id="backgroundrect" width="100%" height="100%" x="0" y="0" fill="none" stroke="none"/>
  
<g class="currentLayer" style=""><title>Layer 1</title><path id="Selection" fill="#000000" stroke="black" stroke-width="1" d="M 109.00,318.00            C 109.00,318.00 92.19,290.00 92.19,290.00              92.19,290.00 87.24,282.00 87.24,282.00              87.24,282.00 78.33,258.00 78.33,258.00              67.28,224.96 54.91,173.91 89.00,149.78              93.24,146.78 100.03,143.61 105.00,142.03              111.29,140.03 121.42,138.08 128.00,138.00              152.57,137.72 173.44,143.64 194.00,157.35              214.84,171.25 243.71,196.59 270.00,195.99              281.59,195.72 289.93,189.36 300.00,184.64              303.90,182.81 308.84,180.66 313.00,179.68              313.00,179.68 323.42,177.69 323.42,177.69              326.41,176.46 329.50,172.87 340.00,169.72              359.05,164.00 382.18,163.27 402.00,161.91              402.00,161.91 426.00,159.72 426.00,159.72              426.00,159.72 439.00,157.67 439.00,157.67              446.39,156.91 446.70,162.38 458.00,160.41              459.51,160.14 461.32,159.84 462.62,158.99              465.84,156.88 470.46,146.80 471.94,143.00              471.94,143.00 486.34,103.00 486.34,103.00              498.52,68.25 516.94,43.43 553.00,31.67              560.08,29.36 568.55,27.09 576.00,27.00              578.82,26.97 582.28,26.90 585.00,27.53              596.40,30.14 609.06,43.21 616.20,52.00              637.46,78.20 652.40,110.79 652.00,145.00              651.93,150.43 650.66,157.72 649.27,163.00              648.74,165.00 646.75,171.27 646.83,172.89              647.09,178.22 656.62,177.53 657.50,184.04              657.82,186.41 655.51,192.52 654.66,195.00              652.45,201.39 648.49,211.43 648.09,218.00              647.54,227.11 652.99,234.74 659.04,241.00              675.30,257.83 692.97,260.56 715.00,255.00              715.00,255.00 716.00,256.00 716.00,256.00              716.00,256.00 712.00,263.00 712.00,263.00              712.00,263.00 723.00,261.00 723.00,261.00              723.00,265.67 723.24,268.49 721.53,273.00              720.45,275.87 717.14,281.05 717.81,283.91              718.75,287.96 726.36,291.57 730.00,292.79              740.63,296.38 744.28,295.95 755.00,296.00              755.00,296.00 767.00,297.00 767.00,297.00              766.48,303.43 764.29,305.66 758.00,307.00              758.00,307.00 757.00,311.00 757.00,311.00              760.59,309.16 766.90,305.14 769.81,310.23              773.53,316.76 758.10,322.50 762.11,330.71              766.85,340.41 788.00,343.00 790.70,344.65              794.67,347.06 791.91,353.10 784.00,353.90              779.44,354.36 779.18,353.74 774.00,355.00              780.83,363.24 782.78,363.13 792.00,367.75              797.79,370.66 803.00,372.35 805.00,379.00              802.15,379.60 796.48,381.08 797.99,385.17              798.72,387.14 804.10,393.09 805.73,395.00              812.63,403.09 822.30,413.24 824.00,424.00              821.22,423.21 810.66,417.64 810.03,423.15              809.69,426.15 813.90,429.80 816.00,431.48              821.66,436.00 831.11,440.00 832.41,447.98              833.35,453.72 828.24,452.82 824.65,457.21              821.29,461.32 820.89,467.91 821.01,473.00              821.30,484.63 826.84,482.31 827.00,494.00              827.00,494.00 827.00,528.00 827.00,528.00              827.00,528.00 816.00,515.00 816.00,515.00              816.81,523.95 822.56,534.02 821.81,543.00              821.62,545.28 820.64,550.69 818.49,551.87              813.26,554.76 804.51,538.00 797.89,549.06              792.77,557.62 808.05,567.60 807.27,574.00              806.74,578.29 800.36,583.43 797.00,585.79              794.06,587.87 789.75,590.07 787.32,592.38              784.60,594.97 783.60,597.71 779.96,599.99              776.11,602.41 772.21,601.94 769.11,603.15              764.12,605.08 764.93,611.14 759.20,609.69              754.69,608.55 755.88,603.02 753.41,600.60              751.33,598.57 746.75,599.00 744.00,599.00              744.00,599.00 750.00,612.00 750.00,612.00              741.25,614.48 734.02,610.21 726.00,607.00              728.44,610.25 733.86,614.63 734.93,617.01              736.65,620.83 734.18,624.40 729.98,624.24              725.85,624.07 719.95,619.95 716.00,618.00              716.00,621.78 715.22,627.62 718.31,630.28              720.30,631.98 725.37,633.00 728.00,633.58              737.05,635.58 747.18,636.75 754.98,642.10              758.97,644.84 762.42,648.97 759.97,654.00              759.03,655.93 757.43,657.44 756.00,659.00              764.09,662.23 781.66,668.04 780.75,679.00              780.33,684.02 775.22,691.02 773.00,696.00              776.58,697.55 781.08,699.38 782.97,703.04              784.73,706.43 783.12,710.59 782.14,714.00              780.23,720.69 777.48,726.87 774.22,733.00              774.22,733.00 770.25,740.00 770.25,740.00              768.59,744.15 771.08,746.33 770.90,750.98              770.71,756.15 767.76,755.92 766.64,759.21              766.31,761.32 767.74,767.63 766.64,770.82              765.24,773.58 761.52,775.70 759.00,777.13              749.23,782.64 741.80,783.00 731.00,783.00              729.77,796.22 721.69,795.01 718.01,801.18              716.15,804.31 716.01,811.34 716.00,815.00              716.00,815.00 716.00,1477.00 716.00,1477.00              709.07,1475.02 689.01,1464.27 682.00,1460.28              664.86,1450.54 651.99,1442.86 637.00,1429.71              617.23,1412.37 599.18,1389.37 583.86,1368.00              583.86,1368.00 554.00,1323.00 554.00,1323.00              551.25,1325.75 544.10,1334.40 539.60,1330.97              537.42,1329.31 538.10,1323.64 537.83,1321.00              537.28,1315.49 534.64,1307.17 532.55,1302.00              522.87,1278.10 497.70,1252.94 494.00,1229.00              492.96,1229.76 490.93,1231.37 489.82,1231.82              481.91,1235.04 482.61,1222.13 480.87,1215.00              477.84,1202.59 475.63,1206.24 473.22,1198.99              471.40,1193.49 471.97,1181.26 472.00,1175.00              472.00,1175.00 472.91,1161.00 472.91,1161.00              472.52,1154.16 471.22,1143.49 469.28,1137.00              468.41,1134.10 466.22,1127.55 464.30,1125.42              462.02,1122.87 458.15,1122.23 455.00,1121.28              455.00,1121.28 437.00,1115.31 437.00,1115.31              419.90,1109.22 413.07,1103.93 403.45,1088.00              390.70,1066.91 382.17,1043.97 373.58,1021.00              373.58,1021.00 328.00,880.00 328.00,880.00              328.00,880.00 308.40,822.00 308.40,822.00              306.72,817.77 300.73,802.91 297.61,800.64              293.55,797.69 288.81,803.08 286.53,806.00              280.27,814.01 276.90,831.94 267.00,835.00              264.73,823.72 263.98,816.53 264.00,805.00              264.00,805.00 265.00,786.00 265.00,786.00              258.42,791.27 255.22,803.17 250.02,804.66              246.07,805.80 245.28,799.57 245.00,797.00              245.00,797.00 245.00,788.00 245.00,788.00              245.00,788.00 243.00,765.00 243.00,765.00              243.00,765.00 232.00,773.00 232.00,773.00              229.41,765.00 230.00,763.17 230.00,755.00              223.84,759.51 219.81,761.37 218.00,752.00              207.70,759.79 209.15,763.07 196.00,767.00              196.00,767.00 197.00,758.00 197.00,758.00              187.90,763.32 187.73,767.99 179.00,769.00              180.86,755.80 187.86,749.96 183.00,737.00              168.80,742.09 168.58,750.31 157.00,754.00              157.00,754.00 159.10,740.14 159.10,740.14              158.36,737.27 155.49,737.07 154.02,734.70              151.58,730.77 153.90,725.46 156.00,722.00              156.00,722.00 141.00,729.00 141.00,729.00              139.06,721.60 145.27,704.71 134.00,707.87              134.00,707.87 126.00,711.00 126.00,711.00              129.88,696.57 129.70,703.33 129.00,688.12              120.46,686.87 122.58,686.86 114.00,688.12              110.97,688.73 106.89,689.65 104.33,687.40              100.38,683.94 104.96,679.96 105.13,677.04              105.36,673.22 100.89,671.86 98.00,671.00              97.59,674.46 94.92,680.87 90.72,676.58              88.76,674.58 88.64,670.46 87.49,668.05              86.15,665.23 84.53,664.51 82.00,663.00              84.00,658.00 92.40,642.62 85.85,639.06              83.40,637.73 80.68,639.26 75.00,638.00              77.98,628.56 85.79,622.77 75.90,613.18              74.03,611.37 72.21,610.29 70.00,609.00              71.39,605.14 74.01,601.20 73.38,597.00              71.78,586.29 60.92,580.56 51.00,581.00              52.71,571.55 63.79,550.33 64.20,540.00              64.49,532.51 58.07,532.27 56.61,526.00              55.21,519.95 61.56,514.82 62.30,511.00              63.16,506.55 57.93,503.98 57.32,500.00              56.79,496.54 61.93,491.90 64.00,489.00              58.14,486.70 56.13,484.34 53.00,479.00              59.22,478.04 65.07,475.47 69.98,471.47              71.67,470.10 74.43,467.72 73.66,465.22              72.78,462.36 68.26,462.28 66.06,460.99              61.65,458.43 62.29,455.26 63.00,451.00              70.16,451.00 90.24,450.94 94.39,444.67              96.76,441.10 92.15,437.57 95.60,433.42              97.96,430.57 102.79,430.49 105.69,427.58              108.87,424.39 107.13,421.54 109.60,418.53              112.06,415.51 116.93,414.65 123.00,407.00              123.00,407.00 118.00,407.00 118.00,407.00              118.43,402.85 119.11,400.76 120.97,397.00              120.97,397.00 124.74,390.00 124.74,390.00              130.45,378.93 143.27,356.69 123.00,352.12              120.92,351.65 117.11,351.08 115.00,351.08              115.00,351.08 97.00,353.00 97.00,353.00              97.35,343.04 105.09,339.40 114.00,338.00              112.05,328.85 105.98,328.42 102.00,320.00              102.00,320.00 109.00,318.00 109.00,318.00 Z            M 572.00,103.00            C 572.00,103.00 536.00,120.00 536.00,120.00              536.00,120.00 542.00,110.00 542.00,110.00              532.43,114.70 522.67,124.81 515.92,133.00              511.49,138.38 507.76,142.88 507.00,150.00              515.70,149.51 518.11,145.52 526.00,142.00              521.92,155.96 520.68,154.98 514.76,167.00              512.58,171.42 509.83,177.81 511.31,182.85              514.03,192.10 525.75,177.84 530.98,180.08              539.65,183.78 537.46,198.28 542.30,202.64              543.97,204.15 545.57,204.47 547.49,203.21              549.43,201.92 550.53,199.03 555.01,196.36              560.63,193.02 564.87,193.31 572.00,189.00              572.00,189.00 570.27,182.01 570.27,182.01              570.27,182.01 583.00,168.00 583.00,168.00              574.71,169.31 571.32,172.82 565.00,177.91              561.96,180.36 557.19,184.37 553.00,183.63              546.03,182.40 541.48,170.27 541.09,164.00              540.58,155.66 547.08,132.69 551.93,126.00              551.93,126.00 572.00,103.00 572.00,103.00 Z            M 230.00,253.00            C 235.50,257.43 238.47,256.39 238.89,249.00              239.15,244.46 237.35,240.70 234.90,237.00              222.42,218.21 189.21,202.59 168.00,195.67              161.62,193.59 146.10,189.59 140.00,192.00              145.17,193.73 159.32,197.74 159.97,204.00              160.22,206.43 157.23,209.67 156.00,212.00              156.00,212.00 178.00,210.50 178.00,210.50              184.50,211.40 192.70,216.63 198.00,220.43              205.70,225.95 212.98,231.78 217.93,240.00              222.79,248.08 216.86,252.06 209.00,251.87              209.00,251.87 195.00,249.00 195.00,249.00              199.08,257.64 208.05,260.91 206.00,270.00              202.64,263.76 200.16,261.42 193.00,261.00              193.44,268.91 196.25,270.97 198.94,278.00              201.58,284.91 202.84,291.60 203.00,299.00              210.12,292.95 209.67,288.20 211.51,280.00              211.51,280.00 214.00,271.00 214.00,271.00              214.00,271.00 224.00,275.00 224.00,275.00              224.00,275.00 230.00,253.00 230.00,253.00 Z            M 497.00,284.00            C 488.18,287.94 481.09,294.50 474.00,300.93              469.10,305.37 464.99,309.95 458.00,309.00              458.00,309.00 463.00,292.00 463.00,292.00              463.00,292.00 447.00,306.00 447.00,306.00              447.00,306.00 452.00,286.00 452.00,286.00              444.65,291.57 437.42,307.03 435.00,316.00              427.57,309.64 431.93,308.76 428.00,302.00              423.25,315.00 426.54,334.87 432.82,347.00              435.55,352.27 441.92,360.85 448.89,356.98              456.60,352.70 450.16,340.03 455.14,331.00              456.28,328.93 459.06,325.61 461.57,325.29              464.36,324.93 466.36,328.05 467.69,330.02              470.23,333.77 473.27,338.06 478.00,339.20              481.53,340.05 488.67,336.00 493.00,334.90              507.58,331.18 511.75,334.49 522.00,332.00              522.00,332.00 520.00,338.00 520.00,338.00              523.12,337.52 527.04,336.15 530.00,336.72              533.00,337.31 539.10,341.07 546.00,340.47              546.00,340.47 554.99,339.14 554.99,339.14              559.22,339.19 559.80,341.11 563.09,341.21              563.09,341.21 574.00,341.21 574.00,341.21              574.00,341.21 571.00,346.00 571.00,346.00              571.00,346.00 584.00,346.00 584.00,346.00              584.00,346.00 582.00,350.00 582.00,350.00              582.00,350.00 593.87,353.55 593.87,353.55              598.74,356.09 596.82,358.16 606.00,359.00              606.00,359.00 604.00,365.00 604.00,365.00              619.03,362.69 640.60,351.34 656.00,346.00              656.00,346.00 656.00,344.00 656.00,344.00              656.00,344.00 635.00,331.00 635.00,331.00              635.00,331.00 653.00,330.00 653.00,330.00              648.81,321.94 635.33,318.86 627.00,316.88              627.00,316.88 583.00,309.28 583.00,309.28              573.94,308.09 564.87,307.35 556.00,305.00              556.00,305.00 565.00,290.00 565.00,290.00              558.46,291.03 555.67,293.28 550.00,294.89              548.25,295.39 545.59,296.00 544.40,294.10              543.41,292.51 544.65,287.86 545.00,286.00              528.40,290.74 524.00,300.98 502.00,301.00              502.00,301.00 510.00,287.00 510.00,287.00              510.00,287.00 488.00,299.00 488.00,299.00              488.00,299.00 497.00,284.00 497.00,284.00 Z            M 346.00,312.00            C 346.00,312.00 335.00,330.00 335.00,330.00              334.08,325.92 333.43,320.65 330.00,318.00              330.00,318.00 329.00,332.00 329.00,332.00              317.73,328.74 293.37,324.93 283.00,331.00              283.00,331.00 286.00,333.00 286.00,333.00              286.00,333.00 283.00,334.00 283.00,334.00              291.70,335.15 298.43,334.84 306.00,340.00              297.58,340.00 283.09,338.85 276.00,343.00              276.00,343.00 283.00,348.00 283.00,348.00              283.00,348.00 265.00,354.57 265.00,354.57              265.00,354.57 232.00,364.00 232.00,364.00              232.95,373.57 225.04,371.98 218.00,373.68              212.56,374.99 209.51,376.62 206.00,381.00              206.00,381.00 226.00,382.00 226.00,382.00              215.59,386.65 206.86,395.38 199.59,404.00              187.26,418.61 178.30,431.83 172.00,450.00              172.00,450.00 189.00,442.00 189.00,442.00              180.92,458.78 177.00,458.45 177.00,479.00              189.76,478.40 209.67,469.10 220.00,461.70              222.87,459.65 230.60,453.84 230.66,450.15              230.68,449.24 230.30,448.57 229.58,448.04              226.13,445.51 221.36,449.92 219.00,452.00              225.05,438.71 234.00,437.69 238.00,430.00              238.00,430.00 230.00,430.00 230.00,430.00              236.82,420.50 250.21,412.81 261.00,408.45              261.00,408.45 272.00,404.48 272.00,404.48              272.00,404.48 295.00,389.42 295.00,389.42              295.00,389.42 314.00,380.03 314.00,380.03              318.11,377.39 326.14,368.86 330.00,365.00              332.63,372.59 335.39,380.06 341.17,385.90              343.66,388.41 347.20,391.09 350.96,390.25              358.12,388.64 363.32,373.58 363.82,367.00              363.82,367.00 362.08,351.00 362.08,351.00              362.08,351.00 362.08,332.00 362.08,332.00              362.08,332.00 353.00,335.00 353.00,335.00              353.00,335.00 354.00,323.00 354.00,323.00              354.00,323.00 345.00,331.00 345.00,331.00              346.34,323.89 348.06,319.27 346.00,312.00 Z            M 739.00,351.00            C 739.00,351.00 695.00,355.00 695.00,355.00              695.00,355.00 695.00,357.00 695.00,357.00              695.00,357.00 712.00,360.00 712.00,360.00              705.43,365.01 695.17,367.85 687.00,369.00              687.00,369.00 695.00,376.00 695.00,376.00              686.92,378.34 681.06,378.50 677.00,387.00              690.66,387.01 689.87,389.01 701.00,391.00              701.00,391.00 693.00,402.00 693.00,402.00              696.98,403.30 712.18,405.78 710.55,411.79              709.76,414.68 704.78,415.49 703.66,419.10              702.18,423.83 708.66,428.39 712.00,430.56              724.48,438.66 734.94,440.75 747.00,447.00              742.56,448.04 733.72,451.15 732.32,456.02              731.47,458.98 735.64,464.32 737.14,467.00              742.15,475.97 746.19,485.47 750.00,495.00              750.00,495.00 734.00,481.00 734.00,481.00              734.00,481.00 740.00,504.00 740.00,504.00              740.00,504.00 735.00,501.56 735.00,501.56              728.77,499.30 725.38,501.06 727.56,508.00              727.56,508.00 738.00,532.00 738.00,532.00              734.83,531.26 726.83,527.94 724.27,528.77              720.98,529.84 718.73,539.78 718.00,543.00              714.71,541.59 709.57,538.65 706.02,539.36              701.15,540.32 700.21,544.82 699.77,549.00              698.85,557.66 701.35,566.25 705.00,574.00              712.06,572.89 716.80,570.71 720.00,564.00              721.62,565.03 724.16,566.87 726.00,567.21              728.55,567.68 731.85,565.92 734.00,564.65              743.29,559.15 744.36,553.14 748.00,544.00              748.00,544.00 752.00,549.00 752.00,549.00              757.57,547.20 759.75,541.98 762.24,537.00              765.07,531.34 768.80,522.22 769.70,516.00              770.65,509.42 770.17,502.43 772.00,496.00              772.00,496.00 776.00,508.00 776.00,508.00              780.36,501.88 780.99,491.37 781.00,484.00              781.00,484.00 789.00,486.00 789.00,486.00              787.71,473.52 771.49,443.24 770.00,425.00              770.00,425.00 777.00,423.00 777.00,423.00              774.89,413.77 771.09,406.07 764.42,399.29              762.11,396.93 755.57,392.55 756.45,389.04              757.44,385.12 762.34,385.60 767.00,380.00              757.10,380.00 738.48,379.55 736.23,367.00              735.10,360.72 737.91,356.82 739.00,351.00 Z            M 512.00,378.00            C 506.96,360.96 481.49,365.58 475.99,380.00              474.31,384.42 474.25,394.19 478.28,397.40              479.90,398.70 481.10,398.69 483.00,399.00              481.67,389.53 479.79,388.77 486.06,380.00              485.81,381.99 485.51,384.02 486.06,385.98              489.28,396.22 502.17,387.20 495.49,379.27              494.22,377.77 492.64,376.98 491.00,376.00              504.00,373.07 499.99,373.18 512.00,378.00 Z            M 523.00,392.00            C 523.00,392.00 518.00,404.00 518.00,404.00              511.18,397.73 504.23,404.47 513.00,409.00              513.00,409.00 513.00,411.00 513.00,411.00              510.12,411.75 507.27,412.84 504.28,413.07              504.28,413.07 497.15,413.07 497.15,413.07              495.35,413.52 494.31,414.91 495.17,416.75              497.40,421.53 510.88,420.12 515.00,418.78              526.74,414.97 528.73,401.66 523.00,392.00 Z            M 630.00,392.00            C 617.83,399.11 603.39,418.63 594.34,430.00              594.34,430.00 562.17,466.00 562.17,466.00              562.17,466.00 544.00,486.00 544.00,486.00              541.81,488.17 538.13,492.09 535.00,492.58              531.23,493.17 526.86,488.79 524.00,486.67              518.65,482.68 512.51,479.53 506.00,478.00              506.00,478.00 506.00,476.00 506.00,476.00              506.00,476.00 510.00,474.00 510.00,474.00              505.48,471.37 502.94,472.18 498.00,471.96              489.71,471.60 479.58,469.79 472.25,475.22              468.87,477.73 470.00,480.09 466.70,483.41              466.70,483.41 461.47,488.10 461.47,488.10              455.26,495.07 450.72,506.74 453.85,516.00              458.28,529.13 478.67,536.12 482.15,547.00              483.43,550.38 482.61,553.62 482.15,557.00              479.02,555.72 473.37,552.61 470.23,553.34              465.56,554.41 466.76,562.94 469.51,565.20              472.56,568.14 477.69,566.21 481.00,565.20              482.69,568.93 484.73,572.75 485.53,577.00              487.81,589.07 481.29,597.45 473.71,606.00              470.59,609.52 461.65,615.94 461.21,620.00              461.07,621.23 461.57,622.83 462.08,623.94              464.67,629.61 470.44,627.39 475.00,625.53              484.82,621.52 497.31,607.69 505.00,600.00              499.07,612.16 482.57,629.76 470.00,634.91              459.37,639.26 445.22,639.48 434.00,638.00              438.99,631.84 444.61,632.02 452.00,632.00              447.48,624.23 435.87,624.83 428.00,623.72              415.45,621.94 405.36,617.81 397.95,607.00              393.83,601.09 386.34,586.13 397.95,583.47              402.62,582.42 407.12,586.06 409.90,585.77              413.44,585.41 415.90,579.37 413.96,576.51              412.44,574.26 409.37,574.38 407.00,574.63              402.18,575.15 392.51,578.08 388.00,580.00              384.85,569.09 384.54,554.71 391.22,545.00              396.44,537.42 412.14,530.04 406.26,521.09              403.71,517.22 395.13,512.82 391.00,510.14              384.27,505.76 379.27,501.18 374.20,495.00              372.02,492.35 368.01,487.03 364.05,487.82              360.10,488.62 357.29,497.55 355.04,501.00              355.04,501.00 344.52,514.00 344.52,514.00              340.11,520.54 337.31,527.72 334.40,535.00              332.37,540.06 330.40,548.08 324.96,550.26              324.96,550.26 303.00,552.00 303.00,552.00              303.00,552.00 225.00,552.00 225.00,552.00              225.00,552.00 210.00,553.00 210.00,553.00              204.90,553.01 199.42,552.14 195.00,555.00              195.00,555.00 234.00,555.00 234.00,555.00              234.00,555.00 249.00,556.00 249.00,556.00              249.00,556.00 272.00,556.00 272.00,556.00              272.00,556.00 288.00,557.00 288.00,557.00              288.00,557.00 314.00,558.09 314.00,558.09              314.00,558.09 327.00,559.00 327.00,559.00              326.64,573.33 315.51,578.23 303.00,580.00              303.00,580.00 262.91,581.18 262.91,581.18              262.91,581.18 256.00,581.91 256.00,581.91              249.27,582.37 244.03,580.92 238.00,585.00              238.00,585.00 255.00,586.00 255.00,586.00              272.70,586.03 290.42,586.37 308.00,584.28              312.94,583.70 324.98,583.82 323.12,592.00              321.74,598.06 307.38,607.15 302.00,610.40              302.00,610.40 258.00,635.80 258.00,635.80              251.11,639.94 242.55,644.52 239.00,652.00              260.13,644.94 279.12,630.33 298.00,618.58              304.21,614.71 319.79,605.31 327.00,606.26              332.35,606.98 335.66,612.34 339.09,616.00              344.13,621.38 350.06,626.34 357.00,629.00              357.00,629.00 346.80,641.00 346.80,641.00              337.34,652.66 321.35,673.82 315.00,687.00              321.41,683.96 325.46,677.55 329.63,672.00              336.93,662.26 347.52,645.79 357.00,638.93              363.38,634.31 366.01,634.96 371.99,639.82              373.94,641.40 376.40,643.19 375.99,646.01              375.73,647.73 371.48,653.86 370.31,656.00              366.34,663.22 361.83,672.00 360.00,680.00              366.03,674.89 371.17,664.72 375.75,658.00              377.92,654.80 381.29,649.94 385.00,648.60              387.85,647.58 393.85,648.82 397.00,649.27              397.00,649.27 422.00,652.72 422.00,652.72              443.25,655.25 465.63,654.34 485.00,644.22              500.45,636.14 522.25,616.22 533.57,603.00              538.07,597.74 539.55,595.70 543.33,590.00              544.71,587.92 547.42,583.25 549.38,582.02              551.37,580.78 554.69,581.00 557.00,581.00              557.00,581.00 580.00,581.00 580.00,581.00              580.00,581.00 594.00,582.00 594.00,582.00              594.00,582.00 607.00,582.91 607.00,582.91              607.00,582.91 635.00,584.00 635.00,584.00              640.28,584.00 651.56,584.76 656.00,583.00              656.00,583.00 623.00,580.09 623.00,580.09              623.00,580.09 585.00,577.83 585.00,577.83              585.00,577.83 565.00,575.72 565.00,575.72              565.00,575.72 552.00,574.00 552.00,574.00              552.00,570.14 551.54,562.50 553.93,559.43              555.89,556.93 559.13,557.04 562.00,557.00              562.00,557.00 580.00,556.00 580.00,556.00              599.79,555.77 638.05,548.86 658.00,544.35              664.93,542.78 683.77,539.11 689.00,536.00              667.72,536.00 646.97,540.32 626.00,543.58              626.00,543.58 593.00,548.42 593.00,548.42              581.35,550.23 564.49,552.99 553.00,553.00              553.00,553.00 553.00,532.00 553.00,532.00              561.04,530.76 572.12,525.99 580.00,523.05              580.00,523.05 630.00,503.01 630.00,503.01              640.70,498.60 665.18,488.28 673.00,481.00              660.25,482.07 635.17,493.12 623.00,498.69              599.40,509.50 575.96,520.71 551.00,528.00              551.00,528.00 552.02,519.04 552.02,519.04              552.02,519.04 560.00,511.86 560.00,511.86              560.00,511.86 579.00,499.00 579.00,499.00              579.00,499.00 642.00,461.60 642.00,461.60              642.00,461.60 669.00,445.00 669.00,445.00              659.48,446.72 641.84,456.24 633.00,461.14              633.00,461.14 575.00,494.60 575.00,494.60              575.00,494.60 553.00,506.75 553.00,506.75              549.56,508.48 546.46,511.24 543.00,507.78              539.31,503.67 540.57,499.49 543.00,495.00              546.56,487.48 553.12,480.88 559.00,475.00              576.72,457.28 595.58,440.49 611.39,421.00              617.79,413.11 626.52,401.49 630.00,392.00 Z            M 328.00,426.00            C 326.95,408.00 306.79,404.47 294.21,419.01              289.48,424.49 287.44,432.11 295.00,436.00              295.00,436.00 298.00,428.00 298.00,428.00              302.48,435.68 308.00,432.69 308.58,428.94              309.00,426.23 307.39,424.11 306.00,422.00              306.00,422.00 318.00,420.44 318.00,420.44              318.00,420.44 328.00,426.00 328.00,426.00 Z            M 142.00,431.00            C 134.93,434.34 129.21,442.43 123.00,447.54              112.06,456.54 106.52,458.44 95.00,465.00              100.28,470.97 106.66,470.03 114.00,471.00              108.72,480.28 100.66,478.41 94.00,485.00              94.00,485.00 111.00,483.00 111.00,483.00              111.00,483.00 87.00,506.00 87.00,506.00              89.69,506.22 92.39,506.54 95.00,507.25              104.12,509.75 105.09,516.07 102.30,524.00              97.42,537.91 86.60,549.84 84.00,558.00              84.00,558.00 100.00,552.00 100.00,552.00              97.18,561.57 91.44,562.74 86.00,570.00              90.70,573.20 93.41,574.14 99.00,575.00              99.00,575.00 99.91,592.00 99.91,592.00              100.09,594.50 99.73,597.49 101.02,599.70              102.85,602.84 107.74,605.61 111.00,607.00              110.17,611.10 106.31,621.53 108.06,624.79              110.13,628.64 117.14,629.75 121.00,630.91              126.04,632.43 127.84,633.84 131.00,638.00              131.00,638.00 123.00,644.00 123.00,644.00              125.85,645.66 129.03,647.09 130.69,650.10              131.99,652.48 131.67,655.33 133.57,656.83              136.18,658.89 145.56,659.00 149.00,659.00              149.00,659.00 148.00,668.00 148.00,668.00              162.09,671.31 170.12,684.90 167.00,699.19              172.21,700.24 172.44,698.88 176.00,699.19              179.03,699.81 180.61,701.59 184.00,701.69              184.00,701.69 193.00,700.26 193.00,700.26              198.17,700.15 205.83,704.86 207.12,710.00              207.72,712.40 206.48,719.35 206.00,722.00              212.64,720.36 223.10,709.03 224.06,719.44              224.06,719.44 224.06,724.00 224.06,724.00              231.45,721.53 235.86,715.64 242.00,711.00              242.00,711.00 240.00,722.00 240.00,722.00              244.44,720.11 247.20,717.76 251.00,714.87              259.12,708.69 272.52,698.59 274.00,688.00              274.00,688.00 257.00,685.17 257.00,685.17              240.78,683.62 232.71,685.57 218.00,676.00              218.00,676.00 225.00,676.00 225.00,676.00              232.87,676.10 239.69,678.82 247.00,674.00              234.02,666.53 212.16,654.36 201.00,645.49              201.00,645.49 183.00,628.17 183.00,628.17              178.16,623.80 172.22,619.79 168.00,615.00              178.57,615.49 180.39,617.08 192.00,615.00              189.35,606.02 183.74,606.54 176.00,605.42              167.05,604.12 156.69,602.68 150.00,596.00              163.88,594.74 167.16,588.75 168.09,576.00              168.49,570.54 171.23,565.51 165.00,563.00              165.00,563.00 176.00,538.00 176.00,538.00              176.00,538.00 164.00,536.00 164.00,536.00              173.67,530.43 185.43,523.20 189.00,512.00              179.38,512.00 171.12,510.25 162.01,507.10              162.01,507.10 153.91,503.30 153.91,503.30              148.08,501.93 138.86,504.70 134.00,495.00              134.00,495.00 151.00,490.00 151.00,490.00              148.39,485.94 135.06,481.18 130.00,479.00              130.00,479.00 130.00,477.00 130.00,477.00              139.29,473.00 145.47,470.64 148.00,460.00              148.00,460.00 130.00,463.00 130.00,463.00              130.00,463.00 137.70,452.96 137.70,452.96              137.70,452.96 142.00,431.00 142.00,431.00 Z            M 301.00,452.00            C 304.35,467.71 329.81,466.73 338.20,455.90              343.19,449.46 344.00,438.26 336.00,434.00              336.00,434.00 333.00,445.00 333.00,445.00              325.97,443.79 324.30,449.10 330.00,453.00              317.98,462.74 312.38,459.58 301.00,452.00 Z            M 733.00,648.00            C 733.00,648.00 706.00,646.00 706.00,646.00              706.00,646.00 690.00,645.00 690.00,645.00              683.85,644.99 664.71,644.02 660.21,646.57              654.83,649.62 652.87,662.83 662.02,661.66              662.02,661.66 673.00,659.18 673.00,659.18              673.00,659.18 689.00,659.99 689.00,659.99              694.99,659.84 708.95,657.35 715.00,655.87              720.52,654.52 729.81,652.92 733.00,648.00 Z            M 761.00,678.00            C 747.88,671.11 738.30,670.89 724.00,669.91              724.00,669.91 713.00,669.00 713.00,669.00              713.00,669.00 680.00,669.00 680.00,669.00              680.00,669.00 667.00,669.90 667.00,669.90              664.07,669.70 659.42,667.93 657.22,668.69              653.15,670.10 652.03,678.40 654.85,681.27              658.09,684.83 664.07,681.07 669.00,681.27              669.00,681.27 691.00,683.52 691.00,683.52              693.99,684.16 698.10,685.85 701.00,687.00              701.00,687.00 700.02,683.02 700.02,683.02              699.49,678.60 702.38,678.05 706.00,678.77              712.06,679.97 717.26,683.88 718.00,675.00              731.43,675.62 748.38,683.59 761.00,680.00              761.00,680.00 761.00,678.00 761.00,678.00 Z            M 757.00,703.00            C 753.68,703.81 752.41,703.96 749.00,704.00              749.00,704.00 712.00,707.09 712.00,707.09              712.00,707.09 704.00,707.92 704.00,707.92              704.00,707.92 692.00,707.00 692.00,707.00              676.55,706.93 671.89,704.77 655.00,707.00              654.33,710.74 652.72,716.54 657.15,718.62              659.32,719.70 663.63,718.94 666.00,718.62              673.64,717.40 673.85,716.91 682.00,717.00              696.22,717.17 697.36,724.83 708.00,727.00              708.00,727.00 707.00,720.00 707.00,720.00              707.00,720.00 730.00,727.00 730.00,727.00              730.00,727.00 726.00,715.00 726.00,715.00              736.24,714.91 753.13,714.26 757.00,703.00 Z            M 650.00,729.00            C 643.17,732.31 643.03,736.55 640.28,743.00              635.83,753.43 633.17,761.41 626.66,771.00              622.50,777.12 619.92,779.90 616.87,787.00              616.87,787.00 611.80,804.00 611.80,804.00              611.80,804.00 605.14,821.00 605.14,821.00              595.90,841.92 585.18,862.15 573.85,882.00              566.05,895.66 554.88,914.31 544.71,926.00              535.51,936.57 516.18,955.14 504.00,961.82              496.68,965.83 488.35,968.75 481.30,962.47              469.89,952.31 472.25,928.85 470.42,915.00              469.75,909.91 470.84,906.39 468.00,902.00              467.15,907.99 466.46,910.93 463.00,916.00              459.96,908.83 459.35,907.90 458.28,900.00              457.47,894.00 457.70,886.49 452.00,883.00              452.00,883.00 449.95,898.00 449.95,898.00              446.67,880.29 445.33,869.94 449.95,852.00              451.34,846.31 455.33,836.52 462.00,835.64              463.93,835.38 467.04,836.50 469.00,837.00              474.93,825.78 481.47,814.56 484.00,802.00              477.05,804.72 472.17,810.83 467.00,816.00              457.86,825.14 448.99,834.80 439.00,843.00              439.00,843.00 436.00,834.00 436.00,834.00              436.00,834.00 431.00,834.00 431.00,834.00              431.00,834.00 429.00,845.00 429.00,845.00              417.42,838.40 422.95,825.39 420.00,815.00              416.38,820.59 419.19,827.19 416.07,830.54              413.71,833.07 410.71,829.69 410.39,826.00              409.91,820.31 413.89,812.52 412.00,804.00              409.69,805.27 408.35,805.89 406.70,808.11              402.74,813.42 401.03,829.23 401.00,836.00              400.92,853.71 400.99,865.29 403.92,883.00              405.01,889.60 406.05,897.47 410.00,903.00              413.60,894.12 417.16,895.03 419.52,904.00              422.52,915.38 422.17,931.13 432.00,939.00              432.00,939.00 436.00,933.00 436.00,933.00              437.58,939.50 436.99,946.35 437.00,953.00              437.02,963.01 438.30,971.68 442.00,981.00              442.00,981.00 444.00,981.00 444.00,981.00              449.00,969.23 445.57,962.44 452.00,953.00              453.83,958.24 456.19,963.10 458.78,968.00              460.60,971.45 463.86,977.09 466.33,979.98              477.17,992.73 487.68,985.13 499.00,978.05              504.76,974.44 514.89,968.65 521.00,966.00              521.82,972.84 525.44,973.22 531.00,969.86              536.63,966.45 545.92,956.08 551.00,951.00              551.00,951.00 548.84,963.00 548.84,963.00              548.84,963.00 544.00,977.00 544.00,977.00              557.30,969.86 563.49,953.54 568.31,940.00              571.27,931.68 572.63,923.59 580.00,918.00              580.00,918.00 584.00,933.00 584.00,933.00              588.73,929.81 587.74,925.04 588.09,920.00              588.09,920.00 588.91,913.00 588.91,913.00              589.40,905.84 588.20,900.03 591.13,893.00              593.09,888.30 600.17,881.27 603.69,887.16              605.51,890.22 605.00,899.16 605.00,903.00              610.30,899.56 611.12,889.86 612.42,884.00              615.26,871.22 618.79,857.24 627.32,847.00              633.55,839.53 634.90,838.24 644.00,836.75              645.99,836.42 647.95,835.63 650.00,835.95              650.00,835.95 658.00,839.29 658.00,839.29              664.51,841.71 679.87,845.16 685.98,841.26              690.70,838.26 695.62,828.47 692.96,823.01              691.14,819.26 677.45,809.37 673.29,804.91              663.21,794.12 659.92,782.26 658.00,768.00              669.55,768.15 666.32,772.23 678.00,775.00              677.65,769.88 676.49,767.78 682.00,766.00              682.00,766.00 680.00,762.00 680.00,762.00              680.00,762.00 701.00,758.84 701.00,758.84              701.00,758.84 715.00,755.50 715.00,755.50              715.00,755.50 734.00,763.04 734.00,763.04              734.00,763.04 744.00,764.00 744.00,764.00              741.54,756.85 736.58,754.86 730.00,752.20              726.92,750.95 722.14,748.87 719.00,748.33              712.01,747.11 698.72,750.53 692.00,753.00              692.00,753.00 693.00,749.00 693.00,749.00              674.84,751.41 677.11,753.44 663.00,757.91              659.45,759.03 655.26,759.63 652.93,755.85              650.95,752.36 652.51,745.86 652.93,742.00              653.25,736.90 652.19,733.52 650.00,729.00 Z            M 538.00,845.00            C 525.11,842.15 515.59,852.69 504.00,856.00              504.00,856.00 502.00,847.00 502.00,847.00              502.00,847.00 487.00,866.00 487.00,866.00              487.00,866.00 486.00,859.00 486.00,859.00              478.42,863.50 477.91,881.93 482.09,888.98              483.80,891.87 485.12,892.60 488.00,894.00              488.00,894.00 489.00,880.00 489.00,880.00              489.00,880.00 497.00,883.00 497.00,883.00              501.69,874.85 510.41,863.22 518.00,857.79              518.00,857.79 538.00,847.00 538.00,847.00              538.00,847.00 538.00,845.00 538.00,845.00 Z            M 592.00,1033.00            C 592.00,1033.00 585.94,1044.00 585.94,1044.00              585.94,1044.00 573.26,1064.00 573.26,1064.00              573.26,1064.00 559.61,1089.96 559.61,1089.96              559.61,1089.96 553.00,1096.00 553.00,1096.00              549.35,1085.94 549.19,1087.15 552.00,1076.00              545.18,1079.60 543.47,1088.32 538.67,1093.99              531.00,1103.06 516.07,1109.27 511.00,1120.00              511.00,1120.00 517.00,1118.66 517.00,1118.66              517.00,1118.66 540.00,1106.00 540.00,1106.00              540.00,1106.00 540.00,1117.00 540.00,1117.00              548.71,1113.07 556.73,1101.70 562.29,1094.00              562.29,1094.00 573.64,1079.00 573.64,1079.00              581.36,1067.49 590.84,1046.86 592.00,1033.00 Z" class="selected" fill-opacity="1"/></g></svg>