%TF.GenerationSoftware,KiCad,Pcbnew,(6.0.6)*%
%TF.CreationDate,2022-11-03T15:56:01+01:00*%
%TF.ProjectId,Wasbeer-communicator,57617362-6565-4722-9d63-6f6d6d756e69,rev?*%
%TF.SameCoordinates,Original*%
%TF.FileFunction,Copper,L1,Top*%
%TF.FilePolarity,Positive*%
%FSLAX46Y46*%
G04 Gerber Fmt 4.6, Leading zero omitted, Abs format (unit mm)*
G04 Created by KiCad (PCBNEW (6.0.6)) date 2022-11-03 15:56:01*
%MOMM*%
%LPD*%
G01*
G04 APERTURE LIST*
G04 Aperture macros list*
%AMRoundRect*
0 Rectangle with rounded corners*
0 $1 Rounding radius*
0 $2 $3 $4 $5 $6 $7 $8 $9 X,Y pos of 4 corners*
0 Add a 4 corners polygon primitive as box body*
4,1,4,$2,$3,$4,$5,$6,$7,$8,$9,$2,$3,0*
0 Add four circle primitives for the rounded corners*
1,1,$1+$1,$2,$3*
1,1,$1+$1,$4,$5*
1,1,$1+$1,$6,$7*
1,1,$1+$1,$8,$9*
0 Add four rect primitives between the rounded corners*
20,1,$1+$1,$2,$3,$4,$5,0*
20,1,$1+$1,$4,$5,$6,$7,0*
20,1,$1+$1,$6,$7,$8,$9,0*
20,1,$1+$1,$8,$9,$2,$3,0*%
G04 Aperture macros list end*
%TA.AperFunction,SMDPad,CuDef*%
%ADD10RoundRect,0.237500X0.287500X0.237500X-0.287500X0.237500X-0.287500X-0.237500X0.287500X-0.237500X0*%
%TD*%
%TA.AperFunction,SMDPad,CuDef*%
%ADD11R,1.300000X3.250000*%
%TD*%
%TA.AperFunction,SMDPad,CuDef*%
%ADD12R,1.000000X3.250000*%
%TD*%
%TA.AperFunction,ComponentPad*%
%ADD13C,1.524000*%
%TD*%
%TA.AperFunction,ComponentPad*%
%ADD14C,2.000000*%
%TD*%
%TA.AperFunction,ViaPad*%
%ADD15C,0.800000*%
%TD*%
%TA.AperFunction,Conductor*%
%ADD16C,0.250000*%
%TD*%
%TA.AperFunction,Conductor*%
%ADD17C,0.508000*%
%TD*%
%TA.AperFunction,Conductor*%
%ADD18C,0.762000*%
%TD*%
%TA.AperFunction,Conductor*%
%ADD19C,0.304800*%
%TD*%
G04 APERTURE END LIST*
D10*
%TO.P,D13,1,K*%
%TO.N,GND*%
X155875000Y-101000000D03*
%TO.P,D13,2,A*%
%TO.N,/lora*%
X154125000Y-101000000D03*
%TD*%
D11*
%TO.P,D4,*%
%TO.N,*%
X101250000Y-88692186D03*
D12*
%TO.P,D4,1,K*%
%TO.N,GND*%
X99250000Y-88692186D03*
%TO.P,D4,2,A*%
%TO.N,/LED4*%
X103250000Y-88692186D03*
%TD*%
D10*
%TO.P,D10,1,K*%
%TO.N,GND*%
X155875000Y-92000000D03*
%TO.P,D10,2,A*%
%TO.N,Net-(D10-Pad2)*%
X154125000Y-92000000D03*
%TD*%
D11*
%TO.P,D1,*%
%TO.N,*%
X101250000Y-66375000D03*
D12*
%TO.P,D1,1,K*%
%TO.N,GND*%
X99250000Y-66375000D03*
%TO.P,D1,2,A*%
%TO.N,/LED1*%
X103250000Y-66375000D03*
%TD*%
D11*
%TO.P,D8,*%
%TO.N,*%
X101250000Y-118448434D03*
D12*
%TO.P,D8,1,K*%
%TO.N,GND*%
X99250000Y-118448434D03*
%TO.P,D8,2,A*%
%TO.N,/LED8*%
X103250000Y-118448434D03*
%TD*%
D10*
%TO.P,D12,1,K*%
%TO.N,GND*%
X155875000Y-95000000D03*
%TO.P,D12,2,A*%
%TO.N,/wifi*%
X154125000Y-95000000D03*
%TD*%
D11*
%TO.P,D5,*%
%TO.N,*%
X101250000Y-96131248D03*
D12*
%TO.P,D5,1,K*%
%TO.N,GND*%
X99250000Y-96131248D03*
%TO.P,D5,2,A*%
%TO.N,/LED5*%
X103250000Y-96131248D03*
%TD*%
D10*
%TO.P,D11,1,K*%
%TO.N,GND*%
X155875000Y-98000000D03*
%TO.P,D11,2,A*%
%TO.N,/status*%
X154125000Y-98000000D03*
%TD*%
D11*
%TO.P,D6,*%
%TO.N,*%
X101250000Y-103570310D03*
D12*
%TO.P,D6,1,K*%
%TO.N,GND*%
X99250000Y-103570310D03*
%TO.P,D6,2,A*%
%TO.N,/LED6*%
X103250000Y-103570310D03*
%TD*%
D13*
%TO.P,SW1,1,1*%
%TO.N,/BigBtn*%
X159080000Y-117920000D03*
%TO.P,SW1,2,2*%
%TO.N,GND*%
X164160000Y-112840000D03*
%TD*%
D11*
%TO.P,D9,*%
%TO.N,*%
X101250000Y-125887500D03*
D12*
%TO.P,D9,1,K*%
%TO.N,GND*%
X99250000Y-125887500D03*
%TO.P,D9,2,A*%
%TO.N,/LED9*%
X103250000Y-125887500D03*
%TD*%
D11*
%TO.P,D7,*%
%TO.N,*%
X101250000Y-111009372D03*
D12*
%TO.P,D7,1,K*%
%TO.N,GND*%
X99250000Y-111009372D03*
%TO.P,D7,2,A*%
%TO.N,/LED7*%
X103250000Y-111009372D03*
%TD*%
D11*
%TO.P,D3,*%
%TO.N,*%
X101250000Y-81253124D03*
D12*
%TO.P,D3,1,K*%
%TO.N,GND*%
X99250000Y-81253124D03*
%TO.P,D3,2,A*%
%TO.N,/LED3*%
X103250000Y-81253124D03*
%TD*%
D11*
%TO.P,D2,*%
%TO.N,*%
X101250000Y-73814062D03*
D12*
%TO.P,D2,1,K*%
%TO.N,GND*%
X99250000Y-73814062D03*
%TO.P,D2,2,A*%
%TO.N,/LED2*%
X103250000Y-73814062D03*
%TD*%
D14*
%TO.P,U1,1,Vdc*%
%TO.N,+5V*%
X150405000Y-62245000D03*
%TO.P,U1,2,GND*%
%TO.N,GND*%
X164405000Y-62245000D03*
%TO.P,U1,3,Vout*%
%TO.N,Net-(BT1-Pad1)*%
X150405000Y-85245000D03*
%TO.P,U1,4,GND*%
%TO.N,unconnected-(U1-Pad4)*%
X164405000Y-85245000D03*
%TO.P,U1,5,Vbat+*%
%TO.N,unconnected-(U1-Pad5)*%
X152945000Y-85245000D03*
%TO.P,U1,6,Vbat-*%
%TO.N,Net-(BT1-Pad2)*%
X161865000Y-85245000D03*
%TD*%
D15*
%TO.N,GND*%
X97500000Y-78750000D03*
X125000000Y-91000000D03*
X97500000Y-67250000D03*
X94000000Y-134000000D03*
X97500000Y-111000000D03*
X140000000Y-91750000D03*
X153000000Y-77750000D03*
X114000000Y-68599500D03*
X96750000Y-61000000D03*
%TO.N,/status*%
X144000000Y-99000000D03*
%TO.N,/wifi*%
X153000000Y-95000000D03*
X139000000Y-58000000D03*
X139000000Y-54000000D03*
%TO.N,/BigBtn*%
X153000000Y-107500000D03*
X135250000Y-106750000D03*
%TO.N,/lora*%
X133750000Y-100750000D03*
%TO.N,/LED1*%
X145000000Y-69250000D03*
%TO.N,/LED2*%
X149250000Y-71250000D03*
%TO.N,/LED3*%
X145000000Y-84250000D03*
%TO.N,/LED4*%
X135750000Y-91750000D03*
%TO.N,/LED5*%
X133660605Y-99275500D03*
%TO.N,/LED6*%
X133750000Y-106750000D03*
%TO.N,/LED7*%
X135500000Y-114250000D03*
%TO.N,/LED8*%
X139000000Y-119500000D03*
%TO.N,/LED9*%
X142000000Y-114250000D03*
%TO.N,Net-(D10-Pad2)*%
X154000000Y-91000000D03*
%TD*%
D16*
%TO.N,/LED6*%
X105250000Y-107500000D02*
X133000000Y-107500000D01*
X105000000Y-103750000D02*
X105000000Y-107250000D01*
X105000000Y-107250000D02*
X105250000Y-107500000D01*
X104820310Y-103570310D02*
X105000000Y-103750000D01*
X103250000Y-103570310D02*
X104820310Y-103570310D01*
X133000000Y-107500000D02*
X133750000Y-106750000D01*
D17*
%TO.N,GND*%
X97500000Y-67250000D02*
X97500000Y-73750000D01*
X97500000Y-118500000D02*
X97500000Y-125250000D01*
X97500000Y-125250000D02*
X98137500Y-125887500D01*
X98137500Y-125887500D02*
X99250000Y-125887500D01*
X97500000Y-111000000D02*
X97500000Y-111250000D01*
D18*
X98509372Y-111009372D02*
X97740628Y-111009372D01*
X99250000Y-111009372D02*
X98509372Y-111009372D01*
D17*
X97570310Y-103570310D02*
X97500000Y-103500000D01*
X97564062Y-73814062D02*
X97500000Y-73750000D01*
X97500000Y-66500000D02*
X97500000Y-67250000D01*
X96750000Y-61750000D02*
X96750000Y-61000000D01*
X99250000Y-103570310D02*
X97570310Y-103570310D01*
X97692186Y-88692186D02*
X97500000Y-88500000D01*
X97500000Y-111250000D02*
X97500000Y-118500000D01*
X97503124Y-81253124D02*
X97500000Y-81250000D01*
X99250000Y-81253124D02*
X97503124Y-81253124D01*
X97625000Y-66375000D02*
X97500000Y-66500000D01*
X99250000Y-66375000D02*
X97625000Y-66375000D01*
X99250000Y-96131248D02*
X97618752Y-96131248D01*
X97500000Y-66250000D02*
X97500000Y-62500000D01*
X97500000Y-88500000D02*
X97500000Y-96250000D01*
X99250000Y-118448434D02*
X97551566Y-118448434D01*
X97500000Y-81250000D02*
X97500000Y-88500000D01*
X97551566Y-118448434D02*
X97500000Y-118500000D01*
X97618752Y-96131248D02*
X97500000Y-96250000D01*
X97500000Y-103500000D02*
X97500000Y-111000000D01*
X99250000Y-88692186D02*
X97692186Y-88692186D01*
X99250000Y-73814062D02*
X97564062Y-73814062D01*
X97500000Y-62500000D02*
X96750000Y-61750000D01*
X97500000Y-96250000D02*
X97500000Y-103500000D01*
X97500000Y-73750000D02*
X97500000Y-81250000D01*
X97625000Y-66375000D02*
X97500000Y-66250000D01*
X97740628Y-111009372D02*
X97500000Y-111250000D01*
D19*
%TO.N,/status*%
X153125000Y-99000000D02*
X154125000Y-98000000D01*
X144000000Y-99000000D02*
X153125000Y-99000000D01*
D17*
%TO.N,/wifi*%
X154125000Y-95000000D02*
X153000000Y-95000000D01*
X139000000Y-54000000D02*
X139000000Y-58000000D01*
D16*
%TO.N,/BigBtn*%
X135250000Y-107250000D02*
X135250000Y-106750000D01*
X135500000Y-107500000D02*
X135250000Y-107250000D01*
X135500000Y-107500000D02*
X153000000Y-107500000D01*
D19*
%TO.N,/lora*%
X154125000Y-101000000D02*
X153125000Y-100000000D01*
X134500000Y-100000000D02*
X133750000Y-100750000D01*
X134500000Y-100000000D02*
X153125000Y-100000000D01*
D16*
%TO.N,/LED1*%
X144250000Y-70000000D02*
X105250000Y-70000000D01*
X104875000Y-66375000D02*
X103250000Y-66375000D01*
X105000000Y-66500000D02*
X104875000Y-66375000D01*
X105000000Y-69750000D02*
X105000000Y-66500000D01*
X105250000Y-70000000D02*
X105000000Y-69750000D01*
X145000000Y-69250000D02*
X144250000Y-70000000D01*
%TO.N,/LED2*%
X105000000Y-74000000D02*
X104814062Y-73814062D01*
X149250000Y-71250000D02*
X150000000Y-72000000D01*
X105000000Y-77250000D02*
X105000000Y-74000000D01*
X104814062Y-73814062D02*
X103250000Y-73814062D01*
X105250000Y-77500000D02*
X105000000Y-77250000D01*
X150000000Y-72000000D02*
X150000000Y-77250000D01*
X150000000Y-77250000D02*
X149750000Y-77500000D01*
X149750000Y-77500000D02*
X105250000Y-77500000D01*
%TO.N,/LED3*%
X105000000Y-81250000D02*
X104996876Y-81253124D01*
X144250000Y-85000000D02*
X105250000Y-85000000D01*
X105000000Y-84750000D02*
X105000000Y-81250000D01*
X104996876Y-81253124D02*
X103250000Y-81253124D01*
X145000000Y-84250000D02*
X144250000Y-85000000D01*
X105250000Y-85000000D02*
X105000000Y-84750000D01*
%TO.N,/LED4*%
X105000000Y-89000000D02*
X104692186Y-88692186D01*
X104692186Y-88692186D02*
X103250000Y-88692186D01*
X105000000Y-92250000D02*
X105000000Y-89000000D01*
X135750000Y-91750000D02*
X135000000Y-92500000D01*
X105250000Y-92500000D02*
X105000000Y-92250000D01*
X135000000Y-92500000D02*
X105250000Y-92500000D01*
%TO.N,/LED5*%
X132936105Y-100000000D02*
X133660605Y-99275500D01*
X103250000Y-96131248D02*
X103250000Y-97256248D01*
X105000000Y-99006248D02*
X105000000Y-99750000D01*
X103250000Y-97256248D02*
X105000000Y-99006248D01*
X105000000Y-99750000D02*
X105250000Y-100000000D01*
X105250000Y-100000000D02*
X132936105Y-100000000D01*
%TO.N,/LED7*%
X135500000Y-114250000D02*
X134750000Y-115000000D01*
X105000000Y-114500000D02*
X105000000Y-111250000D01*
X134750000Y-115000000D02*
X105500000Y-115000000D01*
X104759372Y-111009372D02*
X103250000Y-111009372D01*
X105500000Y-115000000D02*
X105000000Y-114500000D01*
X105000000Y-111250000D02*
X104759372Y-111009372D01*
%TO.N,/LED8*%
X105000000Y-118750000D02*
X104698434Y-118448434D01*
X105000000Y-122250000D02*
X105000000Y-118750000D01*
X104698434Y-118448434D02*
X103250000Y-118448434D01*
X139000000Y-119500000D02*
X139000000Y-122250000D01*
X139000000Y-122250000D02*
X138750000Y-122500000D01*
X105250000Y-122500000D02*
X105000000Y-122250000D01*
X138750000Y-122500000D02*
X105250000Y-122500000D01*
%TO.N,/LED9*%
X150000000Y-129500000D02*
X149500000Y-130000000D01*
X142000000Y-114250000D02*
X142750000Y-115000000D01*
X149750000Y-115000000D02*
X150000000Y-115250000D01*
X105000000Y-129500000D02*
X105000000Y-126000000D01*
X142750000Y-115000000D02*
X149750000Y-115000000D01*
X150000000Y-115250000D02*
X150000000Y-129500000D01*
X105500000Y-130000000D02*
X105000000Y-129500000D01*
X149500000Y-130000000D02*
X105500000Y-130000000D01*
X104887500Y-125887500D02*
X103250000Y-125887500D01*
X105000000Y-126000000D02*
X104887500Y-125887500D01*
%TO.N,Net-(D10-Pad2)*%
X154125000Y-92000000D02*
X154125000Y-91125000D01*
X154125000Y-91125000D02*
X154000000Y-91000000D01*
%TD*%
%TA.AperFunction,Conductor*%
%TO.N,GND*%
G36*
X164850038Y-45420502D02*
G01*
X164871012Y-45437405D01*
X169562595Y-50128988D01*
X169596621Y-50191300D01*
X169599500Y-50218083D01*
X169599500Y-61063433D01*
X169602564Y-61072864D01*
X169602565Y-61072868D01*
X169606297Y-61084353D01*
X169610913Y-61103578D01*
X169614354Y-61125304D01*
X169618855Y-61134137D01*
X169618856Y-61134141D01*
X169624341Y-61144906D01*
X169631905Y-61163166D01*
X169638704Y-61184090D01*
X169651639Y-61201893D01*
X169661965Y-61218745D01*
X169671950Y-61238342D01*
X169694513Y-61260905D01*
X169694516Y-61260909D01*
X172213095Y-63779488D01*
X172247121Y-63841800D01*
X172250000Y-63868583D01*
X172250000Y-74131417D01*
X172229998Y-74199538D01*
X172213095Y-74220512D01*
X169694516Y-76739091D01*
X169694513Y-76739095D01*
X169671950Y-76761658D01*
X169667446Y-76770498D01*
X169661965Y-76781255D01*
X169651639Y-76798107D01*
X169638704Y-76815910D01*
X169631907Y-76836830D01*
X169624341Y-76855094D01*
X169618856Y-76865859D01*
X169618855Y-76865863D01*
X169614354Y-76874696D01*
X169612803Y-76884487D01*
X169612803Y-76884488D01*
X169610913Y-76896422D01*
X169606297Y-76915647D01*
X169602565Y-76927132D01*
X169602564Y-76927136D01*
X169599500Y-76936567D01*
X169599500Y-144473500D01*
X169579498Y-144541621D01*
X169525842Y-144588114D01*
X169473500Y-144599500D01*
X90526500Y-144599500D01*
X90458379Y-144579498D01*
X90411886Y-144525842D01*
X90400500Y-144473500D01*
X90400500Y-130500000D01*
X92459566Y-130500000D01*
X92479270Y-130750363D01*
X92480424Y-130755170D01*
X92480425Y-130755176D01*
X92494365Y-130813240D01*
X92537897Y-130994561D01*
X92634003Y-131226582D01*
X92765222Y-131440712D01*
X92928322Y-131631678D01*
X93119288Y-131794778D01*
X93333418Y-131925997D01*
X93337988Y-131927890D01*
X93337992Y-131927892D01*
X93560866Y-132020209D01*
X93565439Y-132022103D01*
X93650864Y-132042612D01*
X93804824Y-132079575D01*
X93804830Y-132079576D01*
X93809637Y-132080730D01*
X93897291Y-132087628D01*
X93994851Y-132095307D01*
X93994860Y-132095307D01*
X93997308Y-132095500D01*
X94122692Y-132095500D01*
X94125140Y-132095307D01*
X94125149Y-132095307D01*
X94222709Y-132087628D01*
X94310363Y-132080730D01*
X94315170Y-132079576D01*
X94315176Y-132079575D01*
X94469136Y-132042612D01*
X94554561Y-132022103D01*
X94559134Y-132020209D01*
X94782008Y-131927892D01*
X94782012Y-131927890D01*
X94786582Y-131925997D01*
X95000712Y-131794778D01*
X95191678Y-131631678D01*
X95354778Y-131440712D01*
X95485997Y-131226582D01*
X95582103Y-130994561D01*
X95625635Y-130813240D01*
X95639575Y-130755176D01*
X95639576Y-130755170D01*
X95640730Y-130750363D01*
X95657031Y-130543233D01*
X155694906Y-130543233D01*
X155721102Y-130817792D01*
X155786657Y-131085694D01*
X155890199Y-131341326D01*
X155892500Y-131345256D01*
X155892503Y-131345262D01*
X156027255Y-131575403D01*
X156027260Y-131575410D01*
X156029558Y-131579335D01*
X156032405Y-131582895D01*
X156150028Y-131729974D01*
X156201816Y-131794732D01*
X156205157Y-131797853D01*
X156344363Y-131927892D01*
X156403364Y-131983008D01*
X156629979Y-132140216D01*
X156634055Y-132142244D01*
X156634057Y-132142245D01*
X156872827Y-132261032D01*
X156872830Y-132261033D01*
X156876914Y-132263065D01*
X157138998Y-132348980D01*
X157143489Y-132349760D01*
X157143490Y-132349760D01*
X157406957Y-132395506D01*
X157406965Y-132395507D01*
X157410738Y-132396162D01*
X157414575Y-132396353D01*
X157496305Y-132400422D01*
X157496313Y-132400422D01*
X157497876Y-132400500D01*
X157670070Y-132400500D01*
X157672338Y-132400335D01*
X157672350Y-132400335D01*
X157806603Y-132390594D01*
X157875083Y-132385625D01*
X157879538Y-132384641D01*
X157879541Y-132384641D01*
X158139947Y-132327148D01*
X158139950Y-132327147D01*
X158144403Y-132326164D01*
X158402319Y-132228449D01*
X158643428Y-132094525D01*
X158862678Y-131927198D01*
X158866380Y-131923411D01*
X159052283Y-131733242D01*
X159052287Y-131733237D01*
X159055477Y-131729974D01*
X159217787Y-131506984D01*
X159346206Y-131262899D01*
X159438045Y-131002832D01*
X159474516Y-130817792D01*
X159490499Y-130736704D01*
X159490500Y-130736698D01*
X159491380Y-130732232D01*
X159491607Y-130727676D01*
X159504867Y-130461336D01*
X159504867Y-130461330D01*
X159505094Y-130456767D01*
X159478898Y-130182208D01*
X159413343Y-129914306D01*
X159309801Y-129658674D01*
X159307500Y-129654744D01*
X159307497Y-129654738D01*
X159172745Y-129424597D01*
X159172740Y-129424590D01*
X159170442Y-129420665D01*
X159052927Y-129273720D01*
X159001036Y-129208834D01*
X159001035Y-129208833D01*
X158998184Y-129205268D01*
X158856380Y-129072802D01*
X158799972Y-129020108D01*
X158799969Y-129020106D01*
X158796636Y-129016992D01*
X158570021Y-128859784D01*
X158392667Y-128771551D01*
X158327173Y-128738968D01*
X158327170Y-128738967D01*
X158323086Y-128736935D01*
X158061002Y-128651020D01*
X158056510Y-128650240D01*
X157793043Y-128604494D01*
X157793035Y-128604493D01*
X157789262Y-128603838D01*
X157779029Y-128603329D01*
X157703695Y-128599578D01*
X157703687Y-128599578D01*
X157702124Y-128599500D01*
X157529930Y-128599500D01*
X157527662Y-128599665D01*
X157527650Y-128599665D01*
X157393397Y-128609406D01*
X157324917Y-128614375D01*
X157320462Y-128615359D01*
X157320459Y-128615359D01*
X157060053Y-128672852D01*
X157060050Y-128672853D01*
X157055597Y-128673836D01*
X156797681Y-128771551D01*
X156556572Y-128905475D01*
X156337322Y-129072802D01*
X156334129Y-129076068D01*
X156334127Y-129076070D01*
X156147717Y-129266758D01*
X156147713Y-129266763D01*
X156144523Y-129270026D01*
X156141836Y-129273718D01*
X156141834Y-129273720D01*
X155985724Y-129488193D01*
X155982213Y-129493016D01*
X155853794Y-129737101D01*
X155761955Y-129997168D01*
X155742303Y-130096874D01*
X155712194Y-130249637D01*
X155708620Y-130267768D01*
X155708393Y-130272322D01*
X155708393Y-130272324D01*
X155695556Y-130530180D01*
X155694906Y-130543233D01*
X95657031Y-130543233D01*
X95660434Y-130500000D01*
X95640730Y-130249637D01*
X95639576Y-130244830D01*
X95639575Y-130244824D01*
X95583258Y-130010251D01*
X95582103Y-130005439D01*
X95542602Y-129910075D01*
X95487892Y-129777992D01*
X95487890Y-129777988D01*
X95485997Y-129773418D01*
X95478017Y-129760395D01*
X95413270Y-129654738D01*
X95354778Y-129559288D01*
X95191678Y-129368322D01*
X95000712Y-129205222D01*
X94786582Y-129074003D01*
X94782012Y-129072110D01*
X94782008Y-129072108D01*
X94559134Y-128979791D01*
X94559132Y-128979790D01*
X94554561Y-128977897D01*
X94469136Y-128957388D01*
X94315176Y-128920425D01*
X94315170Y-128920424D01*
X94310363Y-128919270D01*
X94222709Y-128912372D01*
X94125149Y-128904693D01*
X94125140Y-128904693D01*
X94122692Y-128904500D01*
X93997308Y-128904500D01*
X93994860Y-128904693D01*
X93994851Y-128904693D01*
X93897291Y-128912372D01*
X93809637Y-128919270D01*
X93804830Y-128920424D01*
X93804824Y-128920425D01*
X93650864Y-128957388D01*
X93565439Y-128977897D01*
X93560868Y-128979790D01*
X93560866Y-128979791D01*
X93337992Y-129072108D01*
X93337988Y-129072110D01*
X93333418Y-129074003D01*
X93119288Y-129205222D01*
X92928322Y-129368322D01*
X92765222Y-129559288D01*
X92706730Y-129654738D01*
X92641984Y-129760395D01*
X92634003Y-129773418D01*
X92632110Y-129777988D01*
X92632108Y-129777992D01*
X92577398Y-129910075D01*
X92537897Y-130005439D01*
X92536742Y-130010251D01*
X92480425Y-130244824D01*
X92480424Y-130244830D01*
X92479270Y-130249637D01*
X92459566Y-130500000D01*
X90400500Y-130500000D01*
X90400500Y-124230981D01*
X100199500Y-124230981D01*
X100199501Y-127544018D01*
X100214354Y-127637804D01*
X100271950Y-127750842D01*
X100361658Y-127840550D01*
X100474696Y-127898146D01*
X100484485Y-127899696D01*
X100484487Y-127899697D01*
X100511849Y-127904030D01*
X100568481Y-127913000D01*
X101249862Y-127913000D01*
X101931518Y-127912999D01*
X101936412Y-127912224D01*
X102015506Y-127899698D01*
X102015508Y-127899697D01*
X102025304Y-127898146D01*
X102138342Y-127840550D01*
X102228050Y-127750842D01*
X102228263Y-127751055D01*
X102279289Y-127711710D01*
X102350025Y-127705636D01*
X102412816Y-127738769D01*
X102420055Y-127747124D01*
X102421950Y-127750842D01*
X102511658Y-127840550D01*
X102624696Y-127898146D01*
X102634485Y-127899696D01*
X102634487Y-127899697D01*
X102661849Y-127904030D01*
X102718481Y-127913000D01*
X103249892Y-127913000D01*
X103781518Y-127912999D01*
X103786412Y-127912224D01*
X103865506Y-127899698D01*
X103865508Y-127899697D01*
X103875304Y-127898146D01*
X103988342Y-127840550D01*
X104078050Y-127750842D01*
X104135646Y-127637804D01*
X104150500Y-127544019D01*
X104150500Y-126539000D01*
X104170502Y-126470879D01*
X104224158Y-126424386D01*
X104276500Y-126413000D01*
X104348500Y-126413000D01*
X104416621Y-126433002D01*
X104463114Y-126486658D01*
X104474500Y-126539000D01*
X104474500Y-129485565D01*
X104474389Y-129490841D01*
X104471913Y-129549919D01*
X104479867Y-129583830D01*
X104481337Y-129590097D01*
X104483500Y-129601770D01*
X104489099Y-129642646D01*
X104492510Y-129650527D01*
X104492510Y-129650529D01*
X104494595Y-129655347D01*
X104501627Y-129676610D01*
X104502828Y-129681729D01*
X104504790Y-129690093D01*
X104524681Y-129726275D01*
X104529888Y-129736905D01*
X104546280Y-129774783D01*
X104551686Y-129781459D01*
X104551687Y-129781461D01*
X104554992Y-129785542D01*
X104567480Y-129804126D01*
X104574153Y-129816263D01*
X104580836Y-129824005D01*
X104604040Y-129847209D01*
X104612865Y-129857009D01*
X104636888Y-129886675D01*
X104651144Y-129896806D01*
X104667244Y-129910413D01*
X105118195Y-130361364D01*
X105121848Y-130365173D01*
X105161884Y-130408712D01*
X105196968Y-130430465D01*
X105206736Y-130437179D01*
X105239605Y-130462128D01*
X105247586Y-130465288D01*
X105247588Y-130465289D01*
X105252474Y-130467223D01*
X105272490Y-130477291D01*
X105284250Y-130484582D01*
X105292494Y-130486977D01*
X105292496Y-130486978D01*
X105323874Y-130496094D01*
X105335103Y-130499939D01*
X105365486Y-130511968D01*
X105365488Y-130511968D01*
X105373473Y-130515130D01*
X105387098Y-130516562D01*
X105387242Y-130516577D01*
X105409222Y-130520890D01*
X105422512Y-130524751D01*
X105429093Y-130525234D01*
X105429097Y-130525235D01*
X105430404Y-130525331D01*
X105430417Y-130525331D01*
X105432712Y-130525500D01*
X105465529Y-130525500D01*
X105478700Y-130526190D01*
X105496749Y-130528087D01*
X105516662Y-130530180D01*
X105525134Y-130528747D01*
X105525135Y-130528747D01*
X105533896Y-130527265D01*
X105554909Y-130525500D01*
X149485565Y-130525500D01*
X149490842Y-130525611D01*
X149549919Y-130528087D01*
X149590105Y-130518662D01*
X149601771Y-130516500D01*
X149634136Y-130512067D01*
X149634138Y-130512066D01*
X149642646Y-130510901D01*
X149650527Y-130507490D01*
X149650529Y-130507490D01*
X149655347Y-130505405D01*
X149676610Y-130498373D01*
X149681729Y-130497172D01*
X149681731Y-130497171D01*
X149690093Y-130495210D01*
X149726275Y-130475319D01*
X149736905Y-130470112D01*
X149774783Y-130453720D01*
X149781459Y-130448314D01*
X149781461Y-130448313D01*
X149785542Y-130445008D01*
X149804126Y-130432520D01*
X149816263Y-130425847D01*
X149824005Y-130419164D01*
X149847209Y-130395960D01*
X149857010Y-130387134D01*
X149879999Y-130368518D01*
X149886675Y-130363112D01*
X149896806Y-130348856D01*
X149910413Y-130332756D01*
X150361364Y-129881805D01*
X150365173Y-129878152D01*
X150402385Y-129843934D01*
X150408712Y-129838116D01*
X150430465Y-129803032D01*
X150437182Y-129793260D01*
X150462128Y-129760395D01*
X150467224Y-129747524D01*
X150477292Y-129727507D01*
X150480056Y-129723049D01*
X150484582Y-129715750D01*
X150489851Y-129697616D01*
X150496094Y-129676126D01*
X150499939Y-129664897D01*
X150511968Y-129634514D01*
X150511968Y-129634512D01*
X150515130Y-129626527D01*
X150516577Y-129612758D01*
X150520890Y-129590776D01*
X150522908Y-129583830D01*
X150524751Y-129577488D01*
X150525500Y-129567288D01*
X150525500Y-129534471D01*
X150526190Y-129521300D01*
X150529282Y-129491882D01*
X150530180Y-129483338D01*
X150527265Y-129466104D01*
X150525500Y-129445091D01*
X150525500Y-120554646D01*
X160719500Y-120554646D01*
X160758856Y-120739803D01*
X160835849Y-120912730D01*
X160947112Y-121065871D01*
X161087784Y-121192533D01*
X161251716Y-121287179D01*
X161431744Y-121345674D01*
X161438305Y-121346364D01*
X161438307Y-121346364D01*
X161491963Y-121352003D01*
X161572808Y-121360500D01*
X161667192Y-121360500D01*
X161748037Y-121352003D01*
X161801693Y-121346364D01*
X161801695Y-121346364D01*
X161808256Y-121345674D01*
X161988284Y-121287179D01*
X162152216Y-121192533D01*
X162292888Y-121065871D01*
X162404151Y-120912730D01*
X162481144Y-120739803D01*
X162520500Y-120554646D01*
X162520500Y-120365354D01*
X162481144Y-120180197D01*
X162404151Y-120007270D01*
X162396382Y-119996576D01*
X162296767Y-119859468D01*
X162292888Y-119854129D01*
X162274860Y-119837896D01*
X162157124Y-119731886D01*
X162157123Y-119731885D01*
X162152216Y-119727467D01*
X161988284Y-119632821D01*
X161808256Y-119574326D01*
X161801695Y-119573636D01*
X161801693Y-119573636D01*
X161748037Y-119567997D01*
X161667192Y-119559500D01*
X161572808Y-119559500D01*
X161491963Y-119567997D01*
X161438307Y-119573636D01*
X161438305Y-119573636D01*
X161431744Y-119574326D01*
X161251716Y-119632821D01*
X161087784Y-119727467D01*
X161082877Y-119731885D01*
X161082876Y-119731886D01*
X160965141Y-119837896D01*
X160947112Y-119854129D01*
X160943233Y-119859468D01*
X160843619Y-119996576D01*
X160835849Y-120007270D01*
X160758856Y-120180197D01*
X160719500Y-120365354D01*
X160719500Y-120554646D01*
X150525500Y-120554646D01*
X150525500Y-117889439D01*
X157912920Y-117889439D01*
X157926894Y-118102634D01*
X157979485Y-118309713D01*
X158068933Y-118503740D01*
X158072266Y-118508456D01*
X158136589Y-118599471D01*
X158192241Y-118678218D01*
X158345281Y-118827302D01*
X158522927Y-118946001D01*
X158528230Y-118948279D01*
X158528233Y-118948281D01*
X158636107Y-118994627D01*
X158719229Y-119030339D01*
X158820993Y-119053366D01*
X158921977Y-119076217D01*
X158921980Y-119076217D01*
X158927613Y-119077492D01*
X158933384Y-119077719D01*
X158933386Y-119077719D01*
X158998363Y-119080272D01*
X159141101Y-119085880D01*
X159246822Y-119070551D01*
X159346829Y-119056051D01*
X159346834Y-119056050D01*
X159352543Y-119055222D01*
X159358007Y-119053367D01*
X159358012Y-119053366D01*
X159531051Y-118994627D01*
X159554857Y-118986546D01*
X159741268Y-118882151D01*
X159905533Y-118745533D01*
X160013378Y-118615864D01*
X160038460Y-118585706D01*
X160042151Y-118581268D01*
X160146546Y-118394857D01*
X160215222Y-118192543D01*
X160228259Y-118102634D01*
X160245347Y-117984775D01*
X160245880Y-117981101D01*
X160247480Y-117920000D01*
X160227930Y-117707244D01*
X160221092Y-117682996D01*
X160171504Y-117507172D01*
X160171503Y-117507170D01*
X160169936Y-117501613D01*
X160158662Y-117478750D01*
X160077995Y-117315174D01*
X160075440Y-117309993D01*
X160056139Y-117284145D01*
X159951060Y-117143427D01*
X159951059Y-117143426D01*
X159947607Y-117138803D01*
X159943371Y-117134887D01*
X159794957Y-116997695D01*
X159794954Y-116997693D01*
X159790717Y-116993776D01*
X159610025Y-116879768D01*
X159411582Y-116800597D01*
X159405925Y-116799472D01*
X159405919Y-116799470D01*
X159207703Y-116760043D01*
X159207699Y-116760043D01*
X159202035Y-116758916D01*
X159196260Y-116758840D01*
X159196256Y-116758840D01*
X159088997Y-116757436D01*
X158988401Y-116756119D01*
X158982704Y-116757098D01*
X158982703Y-116757098D01*
X158783531Y-116791322D01*
X158777834Y-116792301D01*
X158577387Y-116866250D01*
X158572426Y-116869202D01*
X158572425Y-116869202D01*
X158398740Y-116972533D01*
X158398737Y-116972535D01*
X158393772Y-116975489D01*
X158389432Y-116979295D01*
X158389428Y-116979298D01*
X158237481Y-117112553D01*
X158233140Y-117116360D01*
X158100869Y-117284145D01*
X158098180Y-117289256D01*
X158098178Y-117289259D01*
X158084544Y-117315174D01*
X158001389Y-117473225D01*
X157999675Y-117478746D01*
X157999673Y-117478750D01*
X157994183Y-117496433D01*
X157938032Y-117677267D01*
X157912920Y-117889439D01*
X150525500Y-117889439D01*
X150525500Y-115264425D01*
X150525611Y-115259148D01*
X150527727Y-115208666D01*
X150528087Y-115200081D01*
X150518665Y-115159908D01*
X150516502Y-115148239D01*
X150512066Y-115115861D01*
X150510901Y-115107354D01*
X150505403Y-115094649D01*
X150498369Y-115073380D01*
X150497171Y-115068271D01*
X150497170Y-115068269D01*
X150495209Y-115059907D01*
X150491071Y-115052381D01*
X150491070Y-115052377D01*
X150475330Y-115023747D01*
X150470114Y-115013102D01*
X150453720Y-114975217D01*
X150445009Y-114964460D01*
X150432515Y-114945867D01*
X150429029Y-114939525D01*
X150429028Y-114939524D01*
X150425847Y-114933737D01*
X150419164Y-114925995D01*
X150395960Y-114902791D01*
X150387134Y-114892990D01*
X150368518Y-114870001D01*
X150363112Y-114863325D01*
X150348856Y-114853194D01*
X150332756Y-114839587D01*
X150131805Y-114638636D01*
X150128152Y-114634827D01*
X150093934Y-114597615D01*
X150088116Y-114591288D01*
X150071874Y-114581217D01*
X150053045Y-114569543D01*
X150043262Y-114562819D01*
X150017240Y-114543067D01*
X150010396Y-114537872D01*
X150002409Y-114534710D01*
X150002406Y-114534708D01*
X149997517Y-114532772D01*
X149977516Y-114522713D01*
X149965750Y-114515418D01*
X149926119Y-114503904D01*
X149914895Y-114500060D01*
X149884516Y-114488033D01*
X149884513Y-114488032D01*
X149876528Y-114484871D01*
X149867991Y-114483974D01*
X149867984Y-114483972D01*
X149862761Y-114483423D01*
X149840784Y-114479112D01*
X149833822Y-114477089D01*
X149833820Y-114477089D01*
X149827488Y-114475249D01*
X149820673Y-114474749D01*
X149819596Y-114474669D01*
X149819583Y-114474669D01*
X149817288Y-114474500D01*
X149784461Y-114474500D01*
X149771290Y-114473810D01*
X149733338Y-114469821D01*
X149724872Y-114471253D01*
X149724869Y-114471253D01*
X149716102Y-114472736D01*
X149695090Y-114474500D01*
X143019859Y-114474500D01*
X142951738Y-114454498D01*
X142930764Y-114437595D01*
X142842342Y-114349173D01*
X142808316Y-114286861D01*
X142805449Y-114258321D01*
X142805510Y-114253964D01*
X142805510Y-114253959D01*
X142805565Y-114250000D01*
X142785546Y-114071528D01*
X142779427Y-114053955D01*
X142728803Y-113908584D01*
X142726485Y-113901927D01*
X142631316Y-113749625D01*
X142545196Y-113662902D01*
X142509733Y-113627190D01*
X142509729Y-113627187D01*
X142504770Y-113622193D01*
X142493761Y-113615206D01*
X142419555Y-113568114D01*
X142353136Y-113525963D01*
X142323352Y-113515357D01*
X142190586Y-113468081D01*
X142190581Y-113468080D01*
X142183951Y-113465719D01*
X142176965Y-113464886D01*
X142176961Y-113464885D01*
X142049177Y-113449648D01*
X142005624Y-113444455D01*
X141998621Y-113445191D01*
X141998620Y-113445191D01*
X141834025Y-113462490D01*
X141834021Y-113462491D01*
X141827017Y-113463227D01*
X141820346Y-113465498D01*
X141663677Y-113518832D01*
X141663674Y-113518833D01*
X141657007Y-113521103D01*
X141651009Y-113524793D01*
X141651007Y-113524794D01*
X141580592Y-113568114D01*
X141504045Y-113615206D01*
X141499014Y-113620132D01*
X141499011Y-113620135D01*
X141436883Y-113680976D01*
X141375732Y-113740859D01*
X141371913Y-113746784D01*
X141371912Y-113746786D01*
X141282265Y-113885891D01*
X141278446Y-113891817D01*
X141276037Y-113898437D01*
X141276035Y-113898440D01*
X141268645Y-113918744D01*
X141217022Y-114060578D01*
X141194514Y-114238753D01*
X141195201Y-114245760D01*
X141195201Y-114245763D01*
X141197822Y-114272493D01*
X141212039Y-114417486D01*
X141214262Y-114424168D01*
X141214262Y-114424169D01*
X141261580Y-114566413D01*
X141268726Y-114587896D01*
X141272373Y-114593918D01*
X141348274Y-114719245D01*
X141361759Y-114741512D01*
X141366648Y-114746575D01*
X141366649Y-114746576D01*
X141435422Y-114817792D01*
X141486514Y-114870699D01*
X141636789Y-114969036D01*
X141805116Y-115031636D01*
X141812097Y-115032567D01*
X141812099Y-115032568D01*
X141976149Y-115054457D01*
X141976153Y-115054457D01*
X141983130Y-115055388D01*
X141990141Y-115054750D01*
X141990144Y-115054750D01*
X141994446Y-115054358D01*
X141996843Y-115054140D01*
X142066495Y-115067885D01*
X142097357Y-115090526D01*
X142368195Y-115361364D01*
X142371848Y-115365173D01*
X142411884Y-115408712D01*
X142419184Y-115413238D01*
X142419185Y-115413239D01*
X142446960Y-115430460D01*
X142456730Y-115437174D01*
X142489604Y-115462127D01*
X142502474Y-115467222D01*
X142522482Y-115477286D01*
X142534250Y-115484582D01*
X142542493Y-115486977D01*
X142542500Y-115486980D01*
X142573893Y-115496101D01*
X142585120Y-115499945D01*
X142615487Y-115511968D01*
X142615489Y-115511969D01*
X142623472Y-115515129D01*
X142632009Y-115516026D01*
X142632016Y-115516028D01*
X142637239Y-115516577D01*
X142659215Y-115520888D01*
X142661879Y-115521662D01*
X142666178Y-115522911D01*
X142666180Y-115522911D01*
X142672512Y-115524751D01*
X142679327Y-115525251D01*
X142680404Y-115525331D01*
X142680417Y-115525331D01*
X142682712Y-115525500D01*
X142715538Y-115525500D01*
X142728709Y-115526190D01*
X142766661Y-115530179D01*
X142775127Y-115528747D01*
X142775130Y-115528747D01*
X142783897Y-115527264D01*
X142804909Y-115525500D01*
X149348500Y-115525500D01*
X149416621Y-115545502D01*
X149463114Y-115599158D01*
X149474500Y-115651500D01*
X149474500Y-129230139D01*
X149454498Y-129298260D01*
X149437596Y-129319234D01*
X149319236Y-129437595D01*
X149256924Y-129471620D01*
X149230140Y-129474500D01*
X105769861Y-129474500D01*
X105701740Y-129454498D01*
X105680766Y-129437596D01*
X105562405Y-129319236D01*
X105528380Y-129256924D01*
X105525500Y-129230140D01*
X105525500Y-126014435D01*
X105525611Y-126009159D01*
X105527727Y-125958666D01*
X105528087Y-125950081D01*
X105518665Y-125909908D01*
X105516502Y-125898239D01*
X105512066Y-125865861D01*
X105510901Y-125857354D01*
X105505403Y-125844649D01*
X105498369Y-125823380D01*
X105497171Y-125818271D01*
X105497170Y-125818269D01*
X105495209Y-125809907D01*
X105491071Y-125802381D01*
X105491070Y-125802377D01*
X105475330Y-125773747D01*
X105470114Y-125763102D01*
X105453720Y-125725217D01*
X105445009Y-125714460D01*
X105432515Y-125695867D01*
X105429029Y-125689525D01*
X105429028Y-125689524D01*
X105425847Y-125683737D01*
X105419164Y-125675995D01*
X105395960Y-125652791D01*
X105387134Y-125642990D01*
X105368518Y-125620001D01*
X105363112Y-125613325D01*
X105348856Y-125603194D01*
X105332756Y-125589587D01*
X105269305Y-125526136D01*
X105265652Y-125522327D01*
X105231434Y-125485115D01*
X105225616Y-125478788D01*
X105190544Y-125457042D01*
X105180762Y-125450319D01*
X105154740Y-125430567D01*
X105147896Y-125425372D01*
X105139909Y-125422210D01*
X105139906Y-125422208D01*
X105135017Y-125420272D01*
X105115016Y-125410213D01*
X105103250Y-125402918D01*
X105063619Y-125391404D01*
X105052395Y-125387560D01*
X105022016Y-125375533D01*
X105022013Y-125375532D01*
X105014028Y-125372371D01*
X105005491Y-125371474D01*
X105005484Y-125371472D01*
X105000261Y-125370923D01*
X104978284Y-125366612D01*
X104971322Y-125364589D01*
X104971320Y-125364589D01*
X104964988Y-125362749D01*
X104958173Y-125362249D01*
X104957096Y-125362169D01*
X104957083Y-125362169D01*
X104954788Y-125362000D01*
X104921961Y-125362000D01*
X104908790Y-125361310D01*
X104870838Y-125357321D01*
X104862372Y-125358753D01*
X104862369Y-125358753D01*
X104853602Y-125360236D01*
X104832590Y-125362000D01*
X104276499Y-125362000D01*
X104208378Y-125341998D01*
X104161885Y-125288342D01*
X104150499Y-125236000D01*
X104150499Y-124230982D01*
X104135646Y-124137196D01*
X104078050Y-124024158D01*
X103988342Y-123934450D01*
X103875304Y-123876854D01*
X103865515Y-123875304D01*
X103865513Y-123875303D01*
X103838151Y-123870970D01*
X103781519Y-123862000D01*
X103250108Y-123862000D01*
X102718482Y-123862001D01*
X102713589Y-123862776D01*
X102713588Y-123862776D01*
X102634494Y-123875302D01*
X102634492Y-123875303D01*
X102624696Y-123876854D01*
X102511658Y-123934450D01*
X102421950Y-124024158D01*
X102421737Y-124023945D01*
X102370711Y-124063290D01*
X102299975Y-124069364D01*
X102237184Y-124036231D01*
X102229945Y-124027876D01*
X102228050Y-124024158D01*
X102138342Y-123934450D01*
X102025304Y-123876854D01*
X102015515Y-123875304D01*
X102015513Y-123875303D01*
X101988151Y-123870970D01*
X101931519Y-123862000D01*
X101250138Y-123862000D01*
X100568482Y-123862001D01*
X100563589Y-123862776D01*
X100563588Y-123862776D01*
X100484494Y-123875302D01*
X100484492Y-123875303D01*
X100474696Y-123876854D01*
X100361658Y-123934450D01*
X100271950Y-124024158D01*
X100214354Y-124137196D01*
X100199500Y-124230981D01*
X90400500Y-124230981D01*
X90400500Y-116791915D01*
X100199500Y-116791915D01*
X100199501Y-120104952D01*
X100200276Y-120109843D01*
X100200276Y-120109846D01*
X100211418Y-120180197D01*
X100214354Y-120198738D01*
X100271950Y-120311776D01*
X100361658Y-120401484D01*
X100474696Y-120459080D01*
X100484485Y-120460630D01*
X100484487Y-120460631D01*
X100511849Y-120464964D01*
X100568481Y-120473934D01*
X101249862Y-120473934D01*
X101931518Y-120473933D01*
X101936412Y-120473158D01*
X102015506Y-120460632D01*
X102015508Y-120460631D01*
X102025304Y-120459080D01*
X102138342Y-120401484D01*
X102228050Y-120311776D01*
X102228263Y-120311989D01*
X102279289Y-120272644D01*
X102350025Y-120266570D01*
X102412816Y-120299703D01*
X102420055Y-120308058D01*
X102421950Y-120311776D01*
X102511658Y-120401484D01*
X102624696Y-120459080D01*
X102634485Y-120460630D01*
X102634487Y-120460631D01*
X102661849Y-120464964D01*
X102718481Y-120473934D01*
X103249892Y-120473934D01*
X103781518Y-120473933D01*
X103786412Y-120473158D01*
X103865506Y-120460632D01*
X103865508Y-120460631D01*
X103875304Y-120459080D01*
X103988342Y-120401484D01*
X104078050Y-120311776D01*
X104135646Y-120198738D01*
X104150500Y-120104953D01*
X104150500Y-119099934D01*
X104170502Y-119031813D01*
X104224158Y-118985320D01*
X104276500Y-118973934D01*
X104348500Y-118973934D01*
X104416621Y-118993936D01*
X104463114Y-119047592D01*
X104474500Y-119099934D01*
X104474500Y-122235565D01*
X104474389Y-122240841D01*
X104471913Y-122299919D01*
X104479865Y-122333822D01*
X104481337Y-122340097D01*
X104483500Y-122351770D01*
X104489099Y-122392646D01*
X104492510Y-122400527D01*
X104492510Y-122400529D01*
X104494595Y-122405347D01*
X104501627Y-122426610D01*
X104502828Y-122431729D01*
X104504790Y-122440093D01*
X104524681Y-122476275D01*
X104529888Y-122486905D01*
X104546280Y-122524783D01*
X104551686Y-122531459D01*
X104551687Y-122531461D01*
X104554992Y-122535542D01*
X104567480Y-122554126D01*
X104574153Y-122566263D01*
X104580836Y-122574005D01*
X104604040Y-122597209D01*
X104612865Y-122607009D01*
X104636888Y-122636675D01*
X104643888Y-122641650D01*
X104643896Y-122641657D01*
X104651141Y-122646805D01*
X104667247Y-122660416D01*
X104868204Y-122861373D01*
X104871858Y-122865183D01*
X104911884Y-122908712D01*
X104944645Y-122929025D01*
X104946953Y-122930456D01*
X104956732Y-122937177D01*
X104989604Y-122962127D01*
X105002474Y-122967222D01*
X105022482Y-122977286D01*
X105034250Y-122984582D01*
X105042493Y-122986977D01*
X105042500Y-122986980D01*
X105073893Y-122996101D01*
X105085120Y-122999945D01*
X105115487Y-123011968D01*
X105115489Y-123011969D01*
X105123472Y-123015129D01*
X105132009Y-123016026D01*
X105132016Y-123016028D01*
X105137239Y-123016577D01*
X105159216Y-123020888D01*
X105166178Y-123022911D01*
X105166180Y-123022911D01*
X105172512Y-123024751D01*
X105179327Y-123025251D01*
X105180404Y-123025331D01*
X105180417Y-123025331D01*
X105182712Y-123025500D01*
X105215538Y-123025500D01*
X105228709Y-123026190D01*
X105266661Y-123030179D01*
X105275127Y-123028747D01*
X105275130Y-123028747D01*
X105283897Y-123027264D01*
X105304909Y-123025500D01*
X138735565Y-123025500D01*
X138740842Y-123025611D01*
X138799919Y-123028087D01*
X138840105Y-123018662D01*
X138851771Y-123016500D01*
X138884136Y-123012067D01*
X138884138Y-123012066D01*
X138892646Y-123010901D01*
X138900527Y-123007490D01*
X138900529Y-123007490D01*
X138905347Y-123005405D01*
X138926610Y-122998373D01*
X138931729Y-122997172D01*
X138931731Y-122997171D01*
X138940093Y-122995210D01*
X138976275Y-122975319D01*
X138986905Y-122970112D01*
X139024783Y-122953720D01*
X139031459Y-122948314D01*
X139031461Y-122948313D01*
X139035542Y-122945008D01*
X139054126Y-122932520D01*
X139066263Y-122925847D01*
X139074005Y-122919164D01*
X139097209Y-122895960D01*
X139107010Y-122887134D01*
X139129997Y-122868520D01*
X139129998Y-122868519D01*
X139136675Y-122863112D01*
X139141650Y-122856112D01*
X139141657Y-122856104D01*
X139146805Y-122848859D01*
X139160416Y-122832753D01*
X139361373Y-122631796D01*
X139365183Y-122628142D01*
X139402389Y-122593930D01*
X139408712Y-122588116D01*
X139430458Y-122553044D01*
X139437178Y-122543266D01*
X139456934Y-122517238D01*
X139456935Y-122517237D01*
X139462127Y-122510396D01*
X139467222Y-122497526D01*
X139477286Y-122477518D01*
X139484582Y-122465750D01*
X139486977Y-122457507D01*
X139486980Y-122457500D01*
X139496101Y-122426107D01*
X139499945Y-122414880D01*
X139511968Y-122384513D01*
X139511969Y-122384511D01*
X139515129Y-122376528D01*
X139516026Y-122367991D01*
X139516028Y-122367984D01*
X139516577Y-122362761D01*
X139520888Y-122340784D01*
X139522911Y-122333822D01*
X139522911Y-122333820D01*
X139524751Y-122327488D01*
X139525500Y-122317288D01*
X139525500Y-122284462D01*
X139526190Y-122271291D01*
X139529281Y-122241881D01*
X139530179Y-122233339D01*
X139527264Y-122216103D01*
X139525500Y-122195091D01*
X139525500Y-120159039D01*
X139545502Y-120090918D01*
X139564604Y-120067797D01*
X139617099Y-120017807D01*
X139716483Y-119868222D01*
X139731168Y-119829564D01*
X139777757Y-119706919D01*
X139777758Y-119706914D01*
X139780257Y-119700336D01*
X139797680Y-119576366D01*
X139804700Y-119526416D01*
X139804700Y-119526411D01*
X139805251Y-119522493D01*
X139805565Y-119500000D01*
X139785546Y-119321528D01*
X139779427Y-119303955D01*
X139728803Y-119158584D01*
X139726485Y-119151927D01*
X139631316Y-118999625D01*
X139567771Y-118935635D01*
X139509733Y-118877190D01*
X139509729Y-118877187D01*
X139504770Y-118872193D01*
X139493761Y-118865206D01*
X139427678Y-118823269D01*
X139353136Y-118775963D01*
X139305945Y-118759159D01*
X139190586Y-118718081D01*
X139190581Y-118718080D01*
X139183951Y-118715719D01*
X139176965Y-118714886D01*
X139176961Y-118714885D01*
X139049177Y-118699648D01*
X139005624Y-118694455D01*
X138998621Y-118695191D01*
X138998620Y-118695191D01*
X138834025Y-118712490D01*
X138834021Y-118712491D01*
X138827017Y-118713227D01*
X138820346Y-118715498D01*
X138663677Y-118768832D01*
X138663674Y-118768833D01*
X138657007Y-118771103D01*
X138651009Y-118774793D01*
X138651007Y-118774794D01*
X138580526Y-118818155D01*
X138504045Y-118865206D01*
X138499014Y-118870132D01*
X138499011Y-118870135D01*
X138436883Y-118930976D01*
X138375732Y-118990859D01*
X138371913Y-118996784D01*
X138371912Y-118996786D01*
X138320722Y-119076217D01*
X138278446Y-119141817D01*
X138217022Y-119310578D01*
X138194514Y-119488753D01*
X138195201Y-119495760D01*
X138195201Y-119495763D01*
X138202837Y-119573636D01*
X138212039Y-119667486D01*
X138214262Y-119674168D01*
X138214262Y-119674169D01*
X138222967Y-119700336D01*
X138268726Y-119837896D01*
X138361759Y-119991512D01*
X138366648Y-119996575D01*
X138366649Y-119996576D01*
X138439137Y-120071639D01*
X138472069Y-120134535D01*
X138474500Y-120159166D01*
X138474500Y-121848500D01*
X138454498Y-121916621D01*
X138400842Y-121963114D01*
X138348500Y-121974500D01*
X105651500Y-121974500D01*
X105583379Y-121954498D01*
X105536886Y-121900842D01*
X105525500Y-121848500D01*
X105525500Y-118764435D01*
X105525611Y-118759159D01*
X105526368Y-118741095D01*
X105528087Y-118700081D01*
X105518662Y-118659895D01*
X105516500Y-118648229D01*
X105512067Y-118615864D01*
X105512066Y-118615862D01*
X105510901Y-118607354D01*
X105505405Y-118594653D01*
X105498373Y-118573390D01*
X105497172Y-118568271D01*
X105497171Y-118568269D01*
X105495210Y-118559907D01*
X105475319Y-118523725D01*
X105470112Y-118513095D01*
X105453720Y-118475217D01*
X105445008Y-118464458D01*
X105432520Y-118445874D01*
X105425847Y-118433737D01*
X105419165Y-118425995D01*
X105395952Y-118402782D01*
X105387127Y-118392981D01*
X105368519Y-118370002D01*
X105363112Y-118363325D01*
X105356115Y-118358352D01*
X105356107Y-118358345D01*
X105348865Y-118353199D01*
X105332760Y-118339590D01*
X105080227Y-118087058D01*
X105076574Y-118083248D01*
X105042368Y-118046049D01*
X105036550Y-118039722D01*
X105001478Y-118017976D01*
X104991696Y-118011253D01*
X104965674Y-117991501D01*
X104958830Y-117986306D01*
X104950843Y-117983144D01*
X104950840Y-117983142D01*
X104945951Y-117981206D01*
X104925950Y-117971147D01*
X104914184Y-117963852D01*
X104874553Y-117952338D01*
X104863329Y-117948494D01*
X104832950Y-117936467D01*
X104832947Y-117936466D01*
X104824962Y-117933305D01*
X104816425Y-117932408D01*
X104816418Y-117932406D01*
X104811195Y-117931857D01*
X104789218Y-117927546D01*
X104782256Y-117925523D01*
X104782254Y-117925523D01*
X104775922Y-117923683D01*
X104769107Y-117923183D01*
X104768030Y-117923103D01*
X104768017Y-117923103D01*
X104765722Y-117922934D01*
X104732895Y-117922934D01*
X104719724Y-117922244D01*
X104681772Y-117918255D01*
X104673306Y-117919687D01*
X104673303Y-117919687D01*
X104664536Y-117921170D01*
X104643524Y-117922934D01*
X104276499Y-117922934D01*
X104208378Y-117902932D01*
X104161885Y-117849276D01*
X104150499Y-117796934D01*
X104150499Y-116791916D01*
X104135646Y-116698130D01*
X104078050Y-116585092D01*
X103988342Y-116495384D01*
X103875304Y-116437788D01*
X103865515Y-116436238D01*
X103865513Y-116436237D01*
X103838151Y-116431904D01*
X103781519Y-116422934D01*
X103338510Y-116422934D01*
X103270389Y-116402932D01*
X103223896Y-116349276D01*
X103213792Y-116279002D01*
X103243286Y-116214422D01*
X103277328Y-116186785D01*
X103361169Y-116140216D01*
X103443428Y-116094525D01*
X103662678Y-115927198D01*
X103665873Y-115923930D01*
X103852283Y-115733242D01*
X103852287Y-115733237D01*
X103855477Y-115729974D01*
X103912597Y-115651500D01*
X104015100Y-115510676D01*
X104015102Y-115510673D01*
X104017787Y-115506984D01*
X104146206Y-115262899D01*
X104238045Y-115002832D01*
X104268746Y-114847070D01*
X104286779Y-114755578D01*
X104319577Y-114692611D01*
X104381211Y-114657372D01*
X104452112Y-114661048D01*
X104509770Y-114702473D01*
X104520812Y-114719237D01*
X104524681Y-114726276D01*
X104529888Y-114736905D01*
X104546280Y-114774783D01*
X104551686Y-114781459D01*
X104551687Y-114781461D01*
X104554992Y-114785542D01*
X104567480Y-114804126D01*
X104574153Y-114816263D01*
X104578465Y-114821258D01*
X104579306Y-114822232D01*
X104580836Y-114824005D01*
X104604040Y-114847209D01*
X104612865Y-114857009D01*
X104636888Y-114886675D01*
X104651144Y-114896806D01*
X104667244Y-114910413D01*
X105118195Y-115361364D01*
X105121848Y-115365173D01*
X105161884Y-115408712D01*
X105196960Y-115430460D01*
X105206736Y-115437179D01*
X105239605Y-115462128D01*
X105247586Y-115465288D01*
X105247588Y-115465289D01*
X105252474Y-115467223D01*
X105272490Y-115477291D01*
X105284250Y-115484582D01*
X105292494Y-115486977D01*
X105292496Y-115486978D01*
X105323874Y-115496094D01*
X105335103Y-115499939D01*
X105365486Y-115511968D01*
X105365488Y-115511968D01*
X105373473Y-115515130D01*
X105387098Y-115516562D01*
X105387242Y-115516577D01*
X105409222Y-115520890D01*
X105422512Y-115524751D01*
X105429093Y-115525234D01*
X105429097Y-115525235D01*
X105430404Y-115525331D01*
X105430417Y-115525331D01*
X105432712Y-115525500D01*
X105465529Y-115525500D01*
X105478700Y-115526190D01*
X105508109Y-115529281D01*
X105516662Y-115530180D01*
X105525134Y-115528747D01*
X105525135Y-115528747D01*
X105533896Y-115527265D01*
X105554909Y-115525500D01*
X134735565Y-115525500D01*
X134740842Y-115525611D01*
X134799919Y-115528087D01*
X134840105Y-115518662D01*
X134851771Y-115516500D01*
X134884136Y-115512067D01*
X134884138Y-115512066D01*
X134892646Y-115510901D01*
X134900527Y-115507490D01*
X134900529Y-115507490D01*
X134905347Y-115505405D01*
X134926610Y-115498373D01*
X134931729Y-115497172D01*
X134931731Y-115497171D01*
X134940093Y-115495210D01*
X134976275Y-115475319D01*
X134986905Y-115470112D01*
X135024783Y-115453720D01*
X135031459Y-115448314D01*
X135031461Y-115448313D01*
X135035542Y-115445008D01*
X135054126Y-115432520D01*
X135066263Y-115425847D01*
X135074005Y-115419164D01*
X135097209Y-115395960D01*
X135107010Y-115387134D01*
X135129999Y-115368518D01*
X135136675Y-115363112D01*
X135146806Y-115348856D01*
X135160413Y-115332756D01*
X135401478Y-115091691D01*
X135463790Y-115057665D01*
X135483166Y-115055786D01*
X135483130Y-115055388D01*
X135654960Y-115039751D01*
X135654961Y-115039751D01*
X135661981Y-115039112D01*
X135775499Y-115002227D01*
X135826082Y-114985792D01*
X135832782Y-114983615D01*
X135864915Y-114964460D01*
X135980992Y-114895265D01*
X135980994Y-114895264D01*
X135987044Y-114891657D01*
X136117099Y-114767807D01*
X136134570Y-114741512D01*
X136204162Y-114636766D01*
X136216483Y-114618222D01*
X136245032Y-114543067D01*
X136277757Y-114456919D01*
X136277758Y-114456914D01*
X136280257Y-114450336D01*
X136281237Y-114443364D01*
X136304700Y-114276416D01*
X136304700Y-114276411D01*
X136305251Y-114272493D01*
X136305449Y-114258321D01*
X136305510Y-114253963D01*
X136305510Y-114253958D01*
X136305565Y-114250000D01*
X136285546Y-114071528D01*
X136279427Y-114053955D01*
X136228803Y-113908584D01*
X136226485Y-113901927D01*
X136131316Y-113749625D01*
X136045196Y-113662902D01*
X136009733Y-113627190D01*
X136009729Y-113627187D01*
X136004770Y-113622193D01*
X135993761Y-113615206D01*
X135919555Y-113568114D01*
X135853136Y-113525963D01*
X135823352Y-113515357D01*
X135690586Y-113468081D01*
X135690581Y-113468080D01*
X135683951Y-113465719D01*
X135676965Y-113464886D01*
X135676961Y-113464885D01*
X135549177Y-113449648D01*
X135505624Y-113444455D01*
X135498621Y-113445191D01*
X135498620Y-113445191D01*
X135334025Y-113462490D01*
X135334021Y-113462491D01*
X135327017Y-113463227D01*
X135320346Y-113465498D01*
X135163677Y-113518832D01*
X135163674Y-113518833D01*
X135157007Y-113521103D01*
X135151009Y-113524793D01*
X135151007Y-113524794D01*
X135080592Y-113568114D01*
X135004045Y-113615206D01*
X134999014Y-113620132D01*
X134999011Y-113620135D01*
X134936883Y-113680976D01*
X134875732Y-113740859D01*
X134871913Y-113746784D01*
X134871912Y-113746786D01*
X134782265Y-113885891D01*
X134778446Y-113891817D01*
X134776037Y-113898437D01*
X134776035Y-113898440D01*
X134768645Y-113918744D01*
X134717022Y-114060578D01*
X134694514Y-114238753D01*
X134695201Y-114245760D01*
X134695201Y-114245762D01*
X134695271Y-114246473D01*
X134695185Y-114246925D01*
X134695103Y-114252807D01*
X134694070Y-114252793D01*
X134682012Y-114316220D01*
X134658967Y-114347864D01*
X134569236Y-114437595D01*
X134506924Y-114471621D01*
X134480141Y-114474500D01*
X105769861Y-114474500D01*
X105701740Y-114454498D01*
X105680766Y-114437596D01*
X105562405Y-114319236D01*
X105528380Y-114256924D01*
X105525500Y-114230140D01*
X105525500Y-112934646D01*
X155639500Y-112934646D01*
X155640872Y-112941099D01*
X155640872Y-112941103D01*
X155657646Y-113020018D01*
X155678856Y-113119803D01*
X155755849Y-113292730D01*
X155867112Y-113445871D01*
X155872014Y-113450284D01*
X155872015Y-113450286D01*
X155956063Y-113525963D01*
X156007784Y-113572533D01*
X156013505Y-113575836D01*
X156150168Y-113654738D01*
X156171716Y-113667179D01*
X156351744Y-113725674D01*
X156358305Y-113726364D01*
X156358307Y-113726364D01*
X156411963Y-113732003D01*
X156492808Y-113740500D01*
X156587192Y-113740500D01*
X156668037Y-113732003D01*
X156721693Y-113726364D01*
X156721695Y-113726364D01*
X156728256Y-113725674D01*
X156908284Y-113667179D01*
X156929833Y-113654738D01*
X157066495Y-113575836D01*
X157072216Y-113572533D01*
X157123937Y-113525963D01*
X157207985Y-113450286D01*
X157207986Y-113450284D01*
X157212888Y-113445871D01*
X157324151Y-113292730D01*
X157401144Y-113119803D01*
X157422354Y-113020018D01*
X157439128Y-112941103D01*
X157439128Y-112941099D01*
X157440500Y-112934646D01*
X157440500Y-112745354D01*
X157401144Y-112560197D01*
X157324151Y-112387270D01*
X157212888Y-112234129D01*
X157072216Y-112107467D01*
X156908284Y-112012821D01*
X156728256Y-111954326D01*
X156721695Y-111953636D01*
X156721693Y-111953636D01*
X156668037Y-111947997D01*
X156587192Y-111939500D01*
X156492808Y-111939500D01*
X156411963Y-111947997D01*
X156358307Y-111953636D01*
X156358305Y-111953636D01*
X156351744Y-111954326D01*
X156171716Y-112012821D01*
X156007784Y-112107467D01*
X155867112Y-112234129D01*
X155755849Y-112387270D01*
X155678856Y-112560197D01*
X155639500Y-112745354D01*
X155639500Y-112934646D01*
X105525500Y-112934646D01*
X105525500Y-111264426D01*
X105525611Y-111259149D01*
X105527727Y-111208666D01*
X105528087Y-111200081D01*
X105518665Y-111159908D01*
X105516502Y-111148239D01*
X105512066Y-111115861D01*
X105510901Y-111107354D01*
X105505403Y-111094649D01*
X105498369Y-111073380D01*
X105497171Y-111068271D01*
X105497170Y-111068269D01*
X105495209Y-111059907D01*
X105491071Y-111052381D01*
X105491070Y-111052377D01*
X105475330Y-111023747D01*
X105470114Y-111013102D01*
X105453720Y-110975217D01*
X105445009Y-110964460D01*
X105432515Y-110945867D01*
X105429029Y-110939525D01*
X105429028Y-110939524D01*
X105425847Y-110933737D01*
X105419164Y-110925995D01*
X105395960Y-110902791D01*
X105387134Y-110892990D01*
X105368518Y-110870001D01*
X105363112Y-110863325D01*
X105348856Y-110853194D01*
X105332756Y-110839587D01*
X105141177Y-110648008D01*
X105137524Y-110644199D01*
X105103306Y-110606987D01*
X105097488Y-110600660D01*
X105062416Y-110578914D01*
X105052634Y-110572191D01*
X105026612Y-110552439D01*
X105019768Y-110547244D01*
X105011781Y-110544082D01*
X105011778Y-110544080D01*
X105006889Y-110542144D01*
X104986888Y-110532085D01*
X104975122Y-110524790D01*
X104935491Y-110513276D01*
X104924267Y-110509432D01*
X104893888Y-110497405D01*
X104893885Y-110497404D01*
X104885900Y-110494243D01*
X104877363Y-110493346D01*
X104877356Y-110493344D01*
X104872133Y-110492795D01*
X104850156Y-110488484D01*
X104843194Y-110486461D01*
X104843192Y-110486461D01*
X104836860Y-110484621D01*
X104830045Y-110484121D01*
X104828968Y-110484041D01*
X104828955Y-110484041D01*
X104826660Y-110483872D01*
X104793833Y-110483872D01*
X104780662Y-110483182D01*
X104742710Y-110479193D01*
X104734244Y-110480625D01*
X104734241Y-110480625D01*
X104725474Y-110482108D01*
X104704462Y-110483872D01*
X104276499Y-110483872D01*
X104208378Y-110463870D01*
X104161885Y-110410214D01*
X104150499Y-110357872D01*
X104150499Y-109352854D01*
X104135646Y-109259068D01*
X104078050Y-109146030D01*
X103988342Y-109056322D01*
X103875304Y-108998726D01*
X103865515Y-108997176D01*
X103865513Y-108997175D01*
X103838151Y-108992842D01*
X103781519Y-108983872D01*
X103250108Y-108983872D01*
X102718482Y-108983873D01*
X102713589Y-108984648D01*
X102713588Y-108984648D01*
X102634494Y-108997174D01*
X102634492Y-108997175D01*
X102624696Y-108998726D01*
X102511658Y-109056322D01*
X102421950Y-109146030D01*
X102421737Y-109145817D01*
X102370711Y-109185162D01*
X102299975Y-109191236D01*
X102237184Y-109158103D01*
X102229945Y-109149748D01*
X102228050Y-109146030D01*
X102138342Y-109056322D01*
X102025304Y-108998726D01*
X102015515Y-108997176D01*
X102015513Y-108997175D01*
X101988151Y-108992842D01*
X101931519Y-108983872D01*
X101250138Y-108983872D01*
X100568482Y-108983873D01*
X100563589Y-108984648D01*
X100563588Y-108984648D01*
X100484494Y-108997174D01*
X100484492Y-108997175D01*
X100474696Y-108998726D01*
X100361658Y-109056322D01*
X100271950Y-109146030D01*
X100214354Y-109259068D01*
X100199500Y-109352853D01*
X100199501Y-112665890D01*
X100214354Y-112759676D01*
X100271950Y-112872714D01*
X100361658Y-112962422D01*
X100474696Y-113020018D01*
X100484485Y-113021568D01*
X100484487Y-113021569D01*
X100511849Y-113025902D01*
X100568481Y-113034872D01*
X100875025Y-113034872D01*
X100943146Y-113054874D01*
X100989639Y-113108530D01*
X100999743Y-113178804D01*
X100970249Y-113243384D01*
X100965140Y-113248936D01*
X100944523Y-113270026D01*
X100941836Y-113273718D01*
X100941834Y-113273720D01*
X100800363Y-113468081D01*
X100782213Y-113493016D01*
X100653794Y-113737101D01*
X100561955Y-113997168D01*
X100561075Y-114001634D01*
X100511341Y-114253964D01*
X100508620Y-114267768D01*
X100508393Y-114272322D01*
X100508393Y-114272324D01*
X100495173Y-114537872D01*
X100494906Y-114543233D01*
X100521102Y-114817792D01*
X100522187Y-114822226D01*
X100522188Y-114822232D01*
X100575258Y-115039112D01*
X100586657Y-115085694D01*
X100690199Y-115341326D01*
X100692500Y-115345256D01*
X100692503Y-115345262D01*
X100827255Y-115575403D01*
X100827260Y-115575410D01*
X100829558Y-115579335D01*
X100832405Y-115582895D01*
X100950028Y-115729974D01*
X101001816Y-115794732D01*
X101203364Y-115983008D01*
X101429979Y-116140216D01*
X101434054Y-116142243D01*
X101434062Y-116142248D01*
X101518235Y-116184123D01*
X101570316Y-116232373D01*
X101588043Y-116301121D01*
X101565789Y-116368540D01*
X101510617Y-116413224D01*
X101462113Y-116422934D01*
X100582720Y-116422935D01*
X100568482Y-116422935D01*
X100563589Y-116423710D01*
X100563588Y-116423710D01*
X100484494Y-116436236D01*
X100484492Y-116436237D01*
X100474696Y-116437788D01*
X100361658Y-116495384D01*
X100271950Y-116585092D01*
X100214354Y-116698130D01*
X100199500Y-116791915D01*
X90400500Y-116791915D01*
X90400500Y-101913791D01*
X100199500Y-101913791D01*
X100199501Y-105226828D01*
X100214354Y-105320614D01*
X100271950Y-105433652D01*
X100361658Y-105523360D01*
X100474696Y-105580956D01*
X100484485Y-105582506D01*
X100484487Y-105582507D01*
X100511849Y-105586840D01*
X100568481Y-105595810D01*
X101249862Y-105595810D01*
X101931518Y-105595809D01*
X101936412Y-105595034D01*
X102015506Y-105582508D01*
X102015508Y-105582507D01*
X102025304Y-105580956D01*
X102138342Y-105523360D01*
X102228050Y-105433652D01*
X102228263Y-105433865D01*
X102279289Y-105394520D01*
X102350025Y-105388446D01*
X102412816Y-105421579D01*
X102420055Y-105429934D01*
X102421950Y-105433652D01*
X102511658Y-105523360D01*
X102624696Y-105580956D01*
X102634485Y-105582506D01*
X102634487Y-105582507D01*
X102661849Y-105586840D01*
X102718481Y-105595810D01*
X103249892Y-105595810D01*
X103781518Y-105595809D01*
X103786412Y-105595034D01*
X103865506Y-105582508D01*
X103865508Y-105582507D01*
X103875304Y-105580956D01*
X103988342Y-105523360D01*
X104078050Y-105433652D01*
X104135646Y-105320614D01*
X104150500Y-105226829D01*
X104150500Y-104221810D01*
X104170502Y-104153689D01*
X104224158Y-104107196D01*
X104276500Y-104095810D01*
X104348500Y-104095810D01*
X104416621Y-104115812D01*
X104463114Y-104169468D01*
X104474500Y-104221810D01*
X104474500Y-107235565D01*
X104474389Y-107240841D01*
X104471913Y-107299919D01*
X104478623Y-107328527D01*
X104481337Y-107340097D01*
X104483500Y-107351770D01*
X104489099Y-107392646D01*
X104492510Y-107400527D01*
X104492510Y-107400529D01*
X104494595Y-107405347D01*
X104501627Y-107426610D01*
X104502828Y-107431729D01*
X104504790Y-107440093D01*
X104524681Y-107476275D01*
X104529888Y-107486905D01*
X104546280Y-107524783D01*
X104551686Y-107531459D01*
X104551687Y-107531461D01*
X104554992Y-107535542D01*
X104567480Y-107554126D01*
X104574153Y-107566263D01*
X104580836Y-107574005D01*
X104604040Y-107597209D01*
X104612865Y-107607009D01*
X104636888Y-107636675D01*
X104643888Y-107641650D01*
X104643896Y-107641657D01*
X104651141Y-107646805D01*
X104667247Y-107660416D01*
X104868204Y-107861373D01*
X104871858Y-107865183D01*
X104911884Y-107908712D01*
X104944645Y-107929025D01*
X104946953Y-107930456D01*
X104956732Y-107937177D01*
X104989604Y-107962127D01*
X105002474Y-107967222D01*
X105022482Y-107977286D01*
X105034250Y-107984582D01*
X105042493Y-107986977D01*
X105042500Y-107986980D01*
X105073893Y-107996101D01*
X105085120Y-107999945D01*
X105115487Y-108011968D01*
X105115489Y-108011969D01*
X105123472Y-108015129D01*
X105132009Y-108016026D01*
X105132016Y-108016028D01*
X105137239Y-108016577D01*
X105159216Y-108020888D01*
X105166178Y-108022911D01*
X105166180Y-108022911D01*
X105172512Y-108024751D01*
X105179327Y-108025251D01*
X105180404Y-108025331D01*
X105180417Y-108025331D01*
X105182712Y-108025500D01*
X105215538Y-108025500D01*
X105228709Y-108026190D01*
X105266661Y-108030179D01*
X105275127Y-108028747D01*
X105275130Y-108028747D01*
X105283897Y-108027264D01*
X105304909Y-108025500D01*
X132985565Y-108025500D01*
X132990842Y-108025611D01*
X133049919Y-108028087D01*
X133090105Y-108018662D01*
X133101771Y-108016500D01*
X133134136Y-108012067D01*
X133134138Y-108012066D01*
X133142646Y-108010901D01*
X133150527Y-108007490D01*
X133150529Y-108007490D01*
X133155347Y-108005405D01*
X133176610Y-107998373D01*
X133181729Y-107997172D01*
X133181731Y-107997171D01*
X133190093Y-107995210D01*
X133226275Y-107975319D01*
X133236905Y-107970112D01*
X133274783Y-107953720D01*
X133281459Y-107948314D01*
X133281461Y-107948313D01*
X133285542Y-107945008D01*
X133304126Y-107932520D01*
X133316263Y-107925847D01*
X133324005Y-107919164D01*
X133347209Y-107895960D01*
X133357010Y-107887134D01*
X133379999Y-107868518D01*
X133386675Y-107863112D01*
X133396806Y-107848856D01*
X133410413Y-107832756D01*
X133651478Y-107591691D01*
X133713790Y-107557665D01*
X133733166Y-107555786D01*
X133733130Y-107555388D01*
X133904960Y-107539751D01*
X133904961Y-107539751D01*
X133911981Y-107539112D01*
X134082782Y-107483615D01*
X134095119Y-107476261D01*
X134230992Y-107395265D01*
X134230994Y-107395264D01*
X134237044Y-107391657D01*
X134367099Y-107267807D01*
X134393550Y-107227995D01*
X134447907Y-107182326D01*
X134518327Y-107173294D01*
X134582451Y-107203768D01*
X134606271Y-107232450D01*
X134611759Y-107241512D01*
X134706962Y-107340097D01*
X134711086Y-107344368D01*
X134738808Y-107392774D01*
X134739100Y-107392648D01*
X134742511Y-107400530D01*
X134744595Y-107405347D01*
X134751627Y-107426610D01*
X134752828Y-107431729D01*
X134754790Y-107440093D01*
X134774681Y-107476275D01*
X134779888Y-107486905D01*
X134796280Y-107524783D01*
X134801686Y-107531459D01*
X134801687Y-107531461D01*
X134804992Y-107535542D01*
X134817480Y-107554126D01*
X134824153Y-107566263D01*
X134830836Y-107574005D01*
X134854040Y-107597209D01*
X134862865Y-107607009D01*
X134886888Y-107636675D01*
X134893888Y-107641650D01*
X134893896Y-107641657D01*
X134901141Y-107646805D01*
X134917247Y-107660416D01*
X135118204Y-107861373D01*
X135121858Y-107865183D01*
X135161884Y-107908712D01*
X135194645Y-107929025D01*
X135196953Y-107930456D01*
X135206732Y-107937177D01*
X135239604Y-107962127D01*
X135252474Y-107967222D01*
X135272482Y-107977286D01*
X135284250Y-107984582D01*
X135292493Y-107986977D01*
X135292500Y-107986980D01*
X135323893Y-107996101D01*
X135335120Y-107999945D01*
X135365487Y-108011968D01*
X135365489Y-108011969D01*
X135373472Y-108015129D01*
X135382009Y-108016026D01*
X135382016Y-108016028D01*
X135387239Y-108016577D01*
X135409216Y-108020888D01*
X135416178Y-108022911D01*
X135416180Y-108022911D01*
X135422512Y-108024751D01*
X135429327Y-108025251D01*
X135430404Y-108025331D01*
X135430417Y-108025331D01*
X135432712Y-108025500D01*
X135465538Y-108025500D01*
X135478709Y-108026190D01*
X135516661Y-108030179D01*
X135525127Y-108028747D01*
X135525130Y-108028747D01*
X135533897Y-108027264D01*
X135554909Y-108025500D01*
X152341097Y-108025500D01*
X152409218Y-108045502D01*
X152431734Y-108063973D01*
X152486514Y-108120699D01*
X152636789Y-108219036D01*
X152805116Y-108281636D01*
X152812097Y-108282567D01*
X152812099Y-108282568D01*
X152976149Y-108304457D01*
X152976153Y-108304457D01*
X152983130Y-108305388D01*
X152990142Y-108304750D01*
X152990146Y-108304750D01*
X153154960Y-108289751D01*
X153154961Y-108289751D01*
X153161981Y-108289112D01*
X153332782Y-108233615D01*
X153363714Y-108215176D01*
X153480992Y-108145265D01*
X153480994Y-108145264D01*
X153487044Y-108141657D01*
X153617099Y-108017807D01*
X153621688Y-108010901D01*
X153673054Y-107933588D01*
X153716483Y-107868222D01*
X153731168Y-107829564D01*
X153777757Y-107706919D01*
X153777758Y-107706914D01*
X153780257Y-107700336D01*
X153781237Y-107693364D01*
X153804700Y-107526416D01*
X153804700Y-107526411D01*
X153805251Y-107522493D01*
X153805565Y-107500000D01*
X153785546Y-107321528D01*
X153766839Y-107267807D01*
X153728803Y-107158584D01*
X153726485Y-107151927D01*
X153631316Y-106999625D01*
X153533220Y-106900842D01*
X153509733Y-106877190D01*
X153509729Y-106877187D01*
X153504770Y-106872193D01*
X153493761Y-106865206D01*
X153416571Y-106816220D01*
X153353136Y-106775963D01*
X153291353Y-106753963D01*
X153190586Y-106718081D01*
X153190581Y-106718080D01*
X153183951Y-106715719D01*
X153176965Y-106714886D01*
X153176961Y-106714885D01*
X153049177Y-106699648D01*
X153005624Y-106694455D01*
X152998621Y-106695191D01*
X152998620Y-106695191D01*
X152834025Y-106712490D01*
X152834021Y-106712491D01*
X152827017Y-106713227D01*
X152820346Y-106715498D01*
X152663677Y-106768832D01*
X152663674Y-106768833D01*
X152657007Y-106771103D01*
X152651009Y-106774793D01*
X152651007Y-106774794D01*
X152600692Y-106805748D01*
X152504045Y-106865206D01*
X152429173Y-106938526D01*
X152366510Y-106971894D01*
X152341018Y-106974500D01*
X136171808Y-106974500D01*
X136103687Y-106954498D01*
X136057194Y-106900842D01*
X136047034Y-106830965D01*
X136054699Y-106776419D01*
X136055251Y-106772493D01*
X136055565Y-106750000D01*
X136035546Y-106571528D01*
X136029427Y-106553955D01*
X135978803Y-106408584D01*
X135976485Y-106401927D01*
X135881316Y-106249625D01*
X135817771Y-106185635D01*
X135759733Y-106127190D01*
X135759729Y-106127187D01*
X135754770Y-106122193D01*
X135743761Y-106115206D01*
X135696860Y-106085442D01*
X135603136Y-106025963D01*
X135573352Y-106015357D01*
X135440586Y-105968081D01*
X135440581Y-105968080D01*
X135433951Y-105965719D01*
X135426965Y-105964886D01*
X135426961Y-105964885D01*
X135299177Y-105949648D01*
X135255624Y-105944455D01*
X135248621Y-105945191D01*
X135248620Y-105945191D01*
X135084025Y-105962490D01*
X135084021Y-105962491D01*
X135077017Y-105963227D01*
X135070346Y-105965498D01*
X134913677Y-106018832D01*
X134913674Y-106018833D01*
X134907007Y-106021103D01*
X134901009Y-106024793D01*
X134901007Y-106024794D01*
X134830526Y-106068155D01*
X134754045Y-106115206D01*
X134749014Y-106120132D01*
X134749011Y-106120135D01*
X134741807Y-106127190D01*
X134625732Y-106240859D01*
X134606408Y-106270843D01*
X134552696Y-106317266D01*
X134482409Y-106327281D01*
X134417866Y-106297706D01*
X134393647Y-106269358D01*
X134381316Y-106249625D01*
X134317771Y-106185635D01*
X134259733Y-106127190D01*
X134259729Y-106127187D01*
X134254770Y-106122193D01*
X134243761Y-106115206D01*
X134196860Y-106085442D01*
X134103136Y-106025963D01*
X134073352Y-106015357D01*
X133940586Y-105968081D01*
X133940581Y-105968080D01*
X133933951Y-105965719D01*
X133926965Y-105964886D01*
X133926961Y-105964885D01*
X133799177Y-105949648D01*
X133755624Y-105944455D01*
X133748621Y-105945191D01*
X133748620Y-105945191D01*
X133584025Y-105962490D01*
X133584021Y-105962491D01*
X133577017Y-105963227D01*
X133570346Y-105965498D01*
X133413677Y-106018832D01*
X133413674Y-106018833D01*
X133407007Y-106021103D01*
X133401009Y-106024793D01*
X133401007Y-106024794D01*
X133330526Y-106068155D01*
X133254045Y-106115206D01*
X133249014Y-106120132D01*
X133249011Y-106120135D01*
X133241807Y-106127190D01*
X133125732Y-106240859D01*
X133121913Y-106246784D01*
X133121912Y-106246786D01*
X133076491Y-106317266D01*
X133028446Y-106391817D01*
X132967022Y-106560578D01*
X132944514Y-106738753D01*
X132945201Y-106745760D01*
X132945201Y-106745762D01*
X132945271Y-106746473D01*
X132945185Y-106746925D01*
X132945103Y-106752807D01*
X132944070Y-106752793D01*
X132932012Y-106816220D01*
X132908967Y-106847864D01*
X132819236Y-106937595D01*
X132756924Y-106971621D01*
X132730141Y-106974500D01*
X105651500Y-106974500D01*
X105583379Y-106954498D01*
X105536886Y-106900842D01*
X105525500Y-106848500D01*
X105525500Y-103764435D01*
X105525611Y-103759159D01*
X105527727Y-103708666D01*
X105528087Y-103700081D01*
X105518665Y-103659908D01*
X105516502Y-103648239D01*
X105512066Y-103615861D01*
X105510901Y-103607354D01*
X105505403Y-103594649D01*
X105498369Y-103573380D01*
X105497171Y-103568271D01*
X105497170Y-103568269D01*
X105495209Y-103559907D01*
X105491071Y-103552381D01*
X105491070Y-103552377D01*
X105475330Y-103523747D01*
X105470114Y-103513102D01*
X105453720Y-103475217D01*
X105445009Y-103464460D01*
X105432515Y-103445867D01*
X105429029Y-103439525D01*
X105429028Y-103439524D01*
X105425847Y-103433737D01*
X105419164Y-103425995D01*
X105395960Y-103402791D01*
X105387134Y-103392990D01*
X105368518Y-103370001D01*
X105363112Y-103363325D01*
X105348856Y-103353194D01*
X105332756Y-103339587D01*
X105202115Y-103208946D01*
X105198462Y-103205137D01*
X105164244Y-103167925D01*
X105158426Y-103161598D01*
X105123354Y-103139852D01*
X105113572Y-103133129D01*
X105087550Y-103113377D01*
X105080706Y-103108182D01*
X105072719Y-103105020D01*
X105072716Y-103105018D01*
X105067827Y-103103082D01*
X105047826Y-103093023D01*
X105036060Y-103085728D01*
X104996429Y-103074214D01*
X104985205Y-103070370D01*
X104954826Y-103058343D01*
X104954823Y-103058342D01*
X104946838Y-103055181D01*
X104938301Y-103054284D01*
X104938294Y-103054282D01*
X104933071Y-103053733D01*
X104911094Y-103049422D01*
X104904132Y-103047399D01*
X104904130Y-103047399D01*
X104897798Y-103045559D01*
X104890983Y-103045059D01*
X104889906Y-103044979D01*
X104889893Y-103044979D01*
X104887598Y-103044810D01*
X104854771Y-103044810D01*
X104841600Y-103044120D01*
X104803648Y-103040131D01*
X104795182Y-103041563D01*
X104795179Y-103041563D01*
X104786412Y-103043046D01*
X104765400Y-103044810D01*
X104276499Y-103044810D01*
X104208378Y-103024808D01*
X104161885Y-102971152D01*
X104150499Y-102918810D01*
X104150499Y-101913792D01*
X104144435Y-101875500D01*
X104137198Y-101829804D01*
X104137197Y-101829802D01*
X104135646Y-101820006D01*
X104078050Y-101706968D01*
X103988342Y-101617260D01*
X103875304Y-101559664D01*
X103865515Y-101558114D01*
X103865513Y-101558113D01*
X103838151Y-101553780D01*
X103781519Y-101544810D01*
X103250108Y-101544810D01*
X102718482Y-101544811D01*
X102713589Y-101545586D01*
X102713588Y-101545586D01*
X102634494Y-101558112D01*
X102634492Y-101558113D01*
X102624696Y-101559664D01*
X102511658Y-101617260D01*
X102421950Y-101706968D01*
X102421737Y-101706755D01*
X102370711Y-101746100D01*
X102299975Y-101752174D01*
X102237184Y-101719041D01*
X102229945Y-101710686D01*
X102228050Y-101706968D01*
X102138342Y-101617260D01*
X102025304Y-101559664D01*
X102015515Y-101558114D01*
X102015513Y-101558113D01*
X101988151Y-101553780D01*
X101931519Y-101544810D01*
X101250138Y-101544810D01*
X100568482Y-101544811D01*
X100563589Y-101545586D01*
X100563588Y-101545586D01*
X100484494Y-101558112D01*
X100484492Y-101558113D01*
X100474696Y-101559664D01*
X100361658Y-101617260D01*
X100271950Y-101706968D01*
X100214354Y-101820006D01*
X100199500Y-101913791D01*
X90400500Y-101913791D01*
X90400500Y-94474729D01*
X100199500Y-94474729D01*
X100199501Y-97787766D01*
X100214354Y-97881552D01*
X100271950Y-97994590D01*
X100361658Y-98084298D01*
X100474696Y-98141894D01*
X100484485Y-98143444D01*
X100484487Y-98143445D01*
X100511849Y-98147778D01*
X100568481Y-98156748D01*
X101249862Y-98156748D01*
X101931518Y-98156747D01*
X101936412Y-98155972D01*
X102015506Y-98143446D01*
X102015508Y-98143445D01*
X102025304Y-98141894D01*
X102138342Y-98084298D01*
X102228050Y-97994590D01*
X102228263Y-97994803D01*
X102279289Y-97955458D01*
X102350025Y-97949384D01*
X102412816Y-97982517D01*
X102420055Y-97990872D01*
X102421950Y-97994590D01*
X102511658Y-98084298D01*
X102624696Y-98141894D01*
X102634485Y-98143444D01*
X102634487Y-98143445D01*
X102661849Y-98147778D01*
X102718481Y-98156748D01*
X102778189Y-98156748D01*
X103355140Y-98156747D01*
X103423261Y-98176749D01*
X103444235Y-98193652D01*
X104437595Y-99187012D01*
X104471621Y-99249324D01*
X104474500Y-99276107D01*
X104474500Y-99735565D01*
X104474389Y-99740841D01*
X104471913Y-99799919D01*
X104481337Y-99840097D01*
X104483500Y-99851770D01*
X104489099Y-99892646D01*
X104492510Y-99900527D01*
X104492510Y-99900529D01*
X104494595Y-99905347D01*
X104501627Y-99926610D01*
X104502828Y-99931729D01*
X104504790Y-99940093D01*
X104524681Y-99976275D01*
X104529888Y-99986905D01*
X104546280Y-100024783D01*
X104551686Y-100031459D01*
X104551687Y-100031461D01*
X104554992Y-100035542D01*
X104567480Y-100054126D01*
X104574153Y-100066263D01*
X104580836Y-100074005D01*
X104604040Y-100097209D01*
X104612866Y-100107010D01*
X104629334Y-100127346D01*
X104636888Y-100136675D01*
X104643888Y-100141650D01*
X104643896Y-100141657D01*
X104651141Y-100146805D01*
X104667247Y-100160416D01*
X104868204Y-100361373D01*
X104871858Y-100365183D01*
X104911884Y-100408712D01*
X104919184Y-100413238D01*
X104946953Y-100430456D01*
X104956732Y-100437177D01*
X104989604Y-100462127D01*
X105002474Y-100467222D01*
X105022482Y-100477286D01*
X105034250Y-100484582D01*
X105042493Y-100486977D01*
X105042500Y-100486980D01*
X105073893Y-100496101D01*
X105085120Y-100499945D01*
X105115487Y-100511968D01*
X105115489Y-100511969D01*
X105123472Y-100515129D01*
X105132009Y-100516026D01*
X105132016Y-100516028D01*
X105137239Y-100516577D01*
X105159216Y-100520888D01*
X105166178Y-100522911D01*
X105166180Y-100522911D01*
X105172512Y-100524751D01*
X105179327Y-100525251D01*
X105180404Y-100525331D01*
X105180417Y-100525331D01*
X105182712Y-100525500D01*
X105215538Y-100525500D01*
X105228709Y-100526190D01*
X105266661Y-100530179D01*
X105275127Y-100528747D01*
X105275130Y-100528747D01*
X105283897Y-100527264D01*
X105304909Y-100525500D01*
X132828534Y-100525500D01*
X132896655Y-100545502D01*
X132943148Y-100599158D01*
X132953541Y-100667291D01*
X132949965Y-100695602D01*
X132944514Y-100738753D01*
X132945201Y-100745760D01*
X132945201Y-100745763D01*
X132947822Y-100772493D01*
X132962039Y-100917486D01*
X132964262Y-100924168D01*
X132964262Y-100924169D01*
X132972967Y-100950336D01*
X133018726Y-101087896D01*
X133111759Y-101241512D01*
X133236514Y-101370699D01*
X133386789Y-101469036D01*
X133555116Y-101531636D01*
X133562097Y-101532567D01*
X133562099Y-101532568D01*
X133726149Y-101554457D01*
X133726153Y-101554457D01*
X133733130Y-101555388D01*
X133740142Y-101554750D01*
X133740146Y-101554750D01*
X133904960Y-101539751D01*
X133904961Y-101539751D01*
X133911981Y-101539112D01*
X134082782Y-101483615D01*
X134113714Y-101465176D01*
X134230992Y-101395265D01*
X134230994Y-101395264D01*
X134237044Y-101391657D01*
X134367099Y-101267807D01*
X134384570Y-101241512D01*
X134462582Y-101124093D01*
X134466483Y-101118222D01*
X134481168Y-101079564D01*
X134527757Y-100956919D01*
X134527758Y-100956914D01*
X134530257Y-100950336D01*
X134536121Y-100908609D01*
X134554700Y-100776415D01*
X134554700Y-100776412D01*
X134555251Y-100772493D01*
X134555294Y-100769407D01*
X134580395Y-100703203D01*
X134591759Y-100690160D01*
X134692114Y-100589805D01*
X134754426Y-100555779D01*
X134781209Y-100552900D01*
X152843791Y-100552900D01*
X152911912Y-100572902D01*
X152932886Y-100589805D01*
X153162595Y-100819514D01*
X153196621Y-100881826D01*
X153199500Y-100908609D01*
X153199501Y-101111635D01*
X153199501Y-101301934D01*
X153202346Y-101338098D01*
X153204142Y-101344279D01*
X153204142Y-101344280D01*
X153240388Y-101469036D01*
X153247319Y-101492894D01*
X153251354Y-101499717D01*
X153325340Y-101624823D01*
X153325343Y-101624827D01*
X153329374Y-101631643D01*
X153443357Y-101745626D01*
X153450173Y-101749657D01*
X153450177Y-101749660D01*
X153554192Y-101811173D01*
X153582106Y-101827681D01*
X153589718Y-101829892D01*
X153589719Y-101829893D01*
X153730726Y-101870860D01*
X153730729Y-101870861D01*
X153736902Y-101872654D01*
X153758580Y-101874360D01*
X153770608Y-101875307D01*
X153770617Y-101875307D01*
X153773065Y-101875500D01*
X154124715Y-101875500D01*
X154476934Y-101875499D01*
X154496142Y-101873988D01*
X154506680Y-101873159D01*
X154506681Y-101873159D01*
X154513098Y-101872654D01*
X154519280Y-101870858D01*
X154660281Y-101829893D01*
X154660282Y-101829892D01*
X154667894Y-101827681D01*
X154695808Y-101811173D01*
X154799823Y-101749660D01*
X154799827Y-101749657D01*
X154806643Y-101745626D01*
X154920626Y-101631643D01*
X154924657Y-101624827D01*
X154924660Y-101624823D01*
X154998646Y-101499717D01*
X155002681Y-101492894D01*
X155008899Y-101471492D01*
X155045860Y-101344274D01*
X155045861Y-101344271D01*
X155047654Y-101338098D01*
X155049360Y-101316420D01*
X155050307Y-101304392D01*
X155050307Y-101304383D01*
X155050500Y-101301935D01*
X155050499Y-100698066D01*
X155047654Y-100661902D01*
X155013836Y-100545502D01*
X155004893Y-100514719D01*
X155004892Y-100514718D01*
X155002681Y-100507106D01*
X154990779Y-100486980D01*
X154924660Y-100375177D01*
X154924657Y-100375173D01*
X154920626Y-100368357D01*
X154806643Y-100254374D01*
X154799827Y-100250343D01*
X154799823Y-100250340D01*
X154674717Y-100176354D01*
X154667894Y-100172319D01*
X154660282Y-100170108D01*
X154660281Y-100170107D01*
X154519274Y-100129140D01*
X154519271Y-100129139D01*
X154513098Y-100127346D01*
X154491420Y-100125640D01*
X154479392Y-100124693D01*
X154479383Y-100124693D01*
X154476935Y-100124500D01*
X154456811Y-100124500D01*
X154083609Y-100124501D01*
X154015489Y-100104499D01*
X153994514Y-100087596D01*
X153526608Y-99619690D01*
X153522956Y-99615882D01*
X153494318Y-99584739D01*
X153462931Y-99521057D01*
X153470956Y-99450516D01*
X153507770Y-99401532D01*
X153531836Y-99382044D01*
X153542805Y-99366609D01*
X153556416Y-99350503D01*
X153994514Y-98912405D01*
X154056826Y-98878379D01*
X154083609Y-98875500D01*
X154456779Y-98875499D01*
X154476934Y-98875499D01*
X154496142Y-98873988D01*
X154506680Y-98873159D01*
X154506681Y-98873159D01*
X154513098Y-98872654D01*
X154571388Y-98855719D01*
X154660281Y-98829893D01*
X154660282Y-98829892D01*
X154667894Y-98827681D01*
X154696814Y-98810578D01*
X154799823Y-98749660D01*
X154799827Y-98749657D01*
X154806643Y-98745626D01*
X154920626Y-98631643D01*
X154924657Y-98624827D01*
X154924660Y-98624823D01*
X154998646Y-98499717D01*
X155002681Y-98492894D01*
X155009132Y-98470691D01*
X155045860Y-98344274D01*
X155045861Y-98344271D01*
X155047654Y-98338098D01*
X155050500Y-98301935D01*
X155050499Y-97698066D01*
X155047654Y-97661902D01*
X155002681Y-97507106D01*
X154998646Y-97500283D01*
X154924660Y-97375177D01*
X154924657Y-97375173D01*
X154920626Y-97368357D01*
X154806643Y-97254374D01*
X154799827Y-97250343D01*
X154799823Y-97250340D01*
X154674717Y-97176354D01*
X154667894Y-97172319D01*
X154660282Y-97170108D01*
X154660281Y-97170107D01*
X154519274Y-97129140D01*
X154519271Y-97129139D01*
X154513098Y-97127346D01*
X154491420Y-97125640D01*
X154479392Y-97124693D01*
X154479383Y-97124693D01*
X154476935Y-97124500D01*
X154125285Y-97124500D01*
X153773066Y-97124501D01*
X153753858Y-97126012D01*
X153743320Y-97126841D01*
X153743319Y-97126841D01*
X153736902Y-97127346D01*
X153730721Y-97129142D01*
X153730720Y-97129142D01*
X153589719Y-97170107D01*
X153589718Y-97170108D01*
X153582106Y-97172319D01*
X153575283Y-97176354D01*
X153450177Y-97250340D01*
X153450173Y-97250343D01*
X153443357Y-97254374D01*
X153329374Y-97368357D01*
X153325343Y-97375173D01*
X153325340Y-97375177D01*
X153251354Y-97500283D01*
X153247319Y-97507106D01*
X153202346Y-97661902D01*
X153201842Y-97668312D01*
X153199694Y-97695602D01*
X153199500Y-97698065D01*
X153199500Y-97700534D01*
X153199501Y-98091391D01*
X153179499Y-98159511D01*
X153162596Y-98180486D01*
X152932887Y-98410195D01*
X152870575Y-98444221D01*
X152843792Y-98447100D01*
X144631605Y-98447100D01*
X144563484Y-98427098D01*
X144542199Y-98409884D01*
X144509733Y-98377190D01*
X144509729Y-98377187D01*
X144504770Y-98372193D01*
X144493761Y-98365206D01*
X144440944Y-98331688D01*
X144353136Y-98275963D01*
X144323352Y-98265357D01*
X144190586Y-98218081D01*
X144190581Y-98218080D01*
X144183951Y-98215719D01*
X144176965Y-98214886D01*
X144176961Y-98214885D01*
X144049177Y-98199648D01*
X144005624Y-98194455D01*
X143998621Y-98195191D01*
X143998620Y-98195191D01*
X143834025Y-98212490D01*
X143834021Y-98212491D01*
X143827017Y-98213227D01*
X143820346Y-98215498D01*
X143663677Y-98268832D01*
X143663674Y-98268833D01*
X143657007Y-98271103D01*
X143651009Y-98274793D01*
X143651007Y-98274794D01*
X143580526Y-98318154D01*
X143504045Y-98365206D01*
X143499014Y-98370132D01*
X143499011Y-98370135D01*
X143440843Y-98427098D01*
X143375732Y-98490859D01*
X143371913Y-98496784D01*
X143371912Y-98496786D01*
X143336675Y-98551463D01*
X143278446Y-98641817D01*
X143276037Y-98648437D01*
X143276035Y-98648440D01*
X143263732Y-98682243D01*
X143217022Y-98810578D01*
X143194514Y-98988753D01*
X143212039Y-99167486D01*
X143214262Y-99174168D01*
X143214262Y-99174169D01*
X143249909Y-99281329D01*
X143252431Y-99352280D01*
X143216194Y-99413333D01*
X143152702Y-99445102D01*
X143130350Y-99447100D01*
X134589847Y-99447100D01*
X134521726Y-99427098D01*
X134475233Y-99373442D01*
X134465412Y-99305894D01*
X134465001Y-99305862D01*
X134465142Y-99304035D01*
X134465073Y-99303563D01*
X134465305Y-99301914D01*
X134465305Y-99301913D01*
X134465856Y-99297993D01*
X134466170Y-99275500D01*
X134446151Y-99097028D01*
X134440032Y-99079455D01*
X134389408Y-98934084D01*
X134387090Y-98927427D01*
X134376431Y-98910368D01*
X134295654Y-98781099D01*
X134291921Y-98775125D01*
X134199685Y-98682243D01*
X134170338Y-98652690D01*
X134170334Y-98652687D01*
X134165375Y-98647693D01*
X134154366Y-98640706D01*
X134083660Y-98595835D01*
X134013741Y-98551463D01*
X133983957Y-98540857D01*
X133851191Y-98493581D01*
X133851186Y-98493580D01*
X133844556Y-98491219D01*
X133837570Y-98490386D01*
X133837566Y-98490385D01*
X133709782Y-98475148D01*
X133666229Y-98469955D01*
X133659226Y-98470691D01*
X133659225Y-98470691D01*
X133494630Y-98487990D01*
X133494626Y-98487991D01*
X133487622Y-98488727D01*
X133480951Y-98490998D01*
X133324282Y-98544332D01*
X133324279Y-98544333D01*
X133317612Y-98546603D01*
X133311614Y-98550293D01*
X133311612Y-98550294D01*
X133241131Y-98593654D01*
X133164650Y-98640706D01*
X133159619Y-98645632D01*
X133159616Y-98645635D01*
X133114328Y-98689985D01*
X133036337Y-98766359D01*
X133032518Y-98772284D01*
X133032517Y-98772286D01*
X132995556Y-98829638D01*
X132939051Y-98917317D01*
X132877627Y-99086078D01*
X132855119Y-99264253D01*
X132855806Y-99271260D01*
X132855806Y-99271262D01*
X132855876Y-99271973D01*
X132855790Y-99272425D01*
X132855708Y-99278307D01*
X132854675Y-99278293D01*
X132842617Y-99341720D01*
X132819572Y-99373364D01*
X132755341Y-99437595D01*
X132693029Y-99471621D01*
X132666246Y-99474500D01*
X105651500Y-99474500D01*
X105583379Y-99454498D01*
X105536886Y-99400842D01*
X105525500Y-99348500D01*
X105525500Y-99020683D01*
X105525611Y-99015407D01*
X105527727Y-98964914D01*
X105528087Y-98956329D01*
X105518662Y-98916143D01*
X105516500Y-98904477D01*
X105512067Y-98872112D01*
X105512066Y-98872110D01*
X105510901Y-98863602D01*
X105505405Y-98850901D01*
X105498373Y-98829638D01*
X105497172Y-98824519D01*
X105497171Y-98824517D01*
X105495210Y-98816155D01*
X105475319Y-98779973D01*
X105470112Y-98769343D01*
X105453720Y-98731465D01*
X105445008Y-98720706D01*
X105432520Y-98702122D01*
X105425847Y-98689985D01*
X105419165Y-98682243D01*
X105395956Y-98659034D01*
X105387130Y-98649233D01*
X105368517Y-98626247D01*
X105368515Y-98626245D01*
X105363112Y-98619573D01*
X105348862Y-98609446D01*
X105332757Y-98595835D01*
X104187405Y-97450484D01*
X104153380Y-97388172D01*
X104150500Y-97361389D01*
X104150499Y-94988753D01*
X152194514Y-94988753D01*
X152212039Y-95167486D01*
X152214262Y-95174168D01*
X152214262Y-95174169D01*
X152256764Y-95301935D01*
X152268726Y-95337896D01*
X152361759Y-95491512D01*
X152366648Y-95496575D01*
X152366649Y-95496576D01*
X152443713Y-95576378D01*
X152486514Y-95620699D01*
X152636789Y-95719036D01*
X152805116Y-95781636D01*
X152812097Y-95782567D01*
X152812099Y-95782568D01*
X152976149Y-95804457D01*
X152976153Y-95804457D01*
X152983130Y-95805388D01*
X152990142Y-95804750D01*
X152990146Y-95804750D01*
X153154960Y-95789751D01*
X153154961Y-95789751D01*
X153161981Y-95789112D01*
X153332782Y-95733615D01*
X153333378Y-95735449D01*
X153394181Y-95726862D01*
X153442328Y-95747366D01*
X153443357Y-95745626D01*
X153582106Y-95827681D01*
X153589718Y-95829892D01*
X153589719Y-95829893D01*
X153730726Y-95870860D01*
X153730729Y-95870861D01*
X153736902Y-95872654D01*
X153758580Y-95874360D01*
X153770608Y-95875307D01*
X153770617Y-95875307D01*
X153773065Y-95875500D01*
X154124715Y-95875500D01*
X154476934Y-95875499D01*
X154496142Y-95873988D01*
X154506680Y-95873159D01*
X154506681Y-95873159D01*
X154513098Y-95872654D01*
X154519280Y-95870858D01*
X154660281Y-95829893D01*
X154660282Y-95829892D01*
X154667894Y-95827681D01*
X154732031Y-95789751D01*
X154799823Y-95749660D01*
X154799827Y-95749657D01*
X154806643Y-95745626D01*
X154920626Y-95631643D01*
X154924657Y-95624827D01*
X154924660Y-95624823D01*
X154998646Y-95499717D01*
X155002681Y-95492894D01*
X155047654Y-95338098D01*
X155050500Y-95301935D01*
X155050499Y-94698066D01*
X155047654Y-94661902D01*
X155002681Y-94507106D01*
X154990156Y-94485927D01*
X154924660Y-94375177D01*
X154924657Y-94375173D01*
X154920626Y-94368357D01*
X154806643Y-94254374D01*
X154799827Y-94250343D01*
X154799823Y-94250340D01*
X154674717Y-94176354D01*
X154667894Y-94172319D01*
X154660282Y-94170108D01*
X154660281Y-94170107D01*
X154519274Y-94129140D01*
X154519271Y-94129139D01*
X154513098Y-94127346D01*
X154491420Y-94125640D01*
X154479392Y-94124693D01*
X154479383Y-94124693D01*
X154476935Y-94124500D01*
X154125285Y-94124500D01*
X153773066Y-94124501D01*
X153753858Y-94126012D01*
X153743320Y-94126841D01*
X153743319Y-94126841D01*
X153736902Y-94127346D01*
X153730721Y-94129142D01*
X153730720Y-94129142D01*
X153589719Y-94170107D01*
X153589718Y-94170108D01*
X153582106Y-94172319D01*
X153443357Y-94254374D01*
X153442461Y-94252858D01*
X153385430Y-94275251D01*
X153332020Y-94268444D01*
X153190586Y-94218081D01*
X153190581Y-94218080D01*
X153183951Y-94215719D01*
X153176965Y-94214886D01*
X153176961Y-94214885D01*
X153049177Y-94199648D01*
X153005624Y-94194455D01*
X152998621Y-94195191D01*
X152998620Y-94195191D01*
X152834025Y-94212490D01*
X152834021Y-94212491D01*
X152827017Y-94213227D01*
X152820346Y-94215498D01*
X152663677Y-94268832D01*
X152663674Y-94268833D01*
X152657007Y-94271103D01*
X152651009Y-94274793D01*
X152651007Y-94274794D01*
X152588722Y-94313112D01*
X152504045Y-94365206D01*
X152499014Y-94370132D01*
X152499011Y-94370135D01*
X152477968Y-94390742D01*
X152375732Y-94490859D01*
X152371913Y-94496784D01*
X152371912Y-94496786D01*
X152360355Y-94514719D01*
X152278446Y-94641817D01*
X152276037Y-94648437D01*
X152276035Y-94648440D01*
X152258870Y-94695602D01*
X152217022Y-94810578D01*
X152194514Y-94988753D01*
X104150499Y-94988753D01*
X104150499Y-94479685D01*
X104150499Y-94474730D01*
X104135646Y-94380944D01*
X104078050Y-94267906D01*
X103988342Y-94178198D01*
X103875304Y-94120602D01*
X103865515Y-94119052D01*
X103865513Y-94119051D01*
X103838151Y-94114718D01*
X103781519Y-94105748D01*
X103250108Y-94105748D01*
X102718482Y-94105749D01*
X102713589Y-94106524D01*
X102713588Y-94106524D01*
X102634494Y-94119050D01*
X102634492Y-94119051D01*
X102624696Y-94120602D01*
X102511658Y-94178198D01*
X102421950Y-94267906D01*
X102421737Y-94267693D01*
X102370711Y-94307038D01*
X102299975Y-94313112D01*
X102237184Y-94279979D01*
X102229945Y-94271624D01*
X102228050Y-94267906D01*
X102138342Y-94178198D01*
X102025304Y-94120602D01*
X102015515Y-94119052D01*
X102015513Y-94119051D01*
X101988151Y-94114718D01*
X101931519Y-94105748D01*
X101250138Y-94105748D01*
X100568482Y-94105749D01*
X100563589Y-94106524D01*
X100563588Y-94106524D01*
X100484494Y-94119050D01*
X100484492Y-94119051D01*
X100474696Y-94120602D01*
X100361658Y-94178198D01*
X100271950Y-94267906D01*
X100214354Y-94380944D01*
X100199500Y-94474729D01*
X90400500Y-94474729D01*
X90400500Y-87035667D01*
X100199500Y-87035667D01*
X100199501Y-90348704D01*
X100214354Y-90442490D01*
X100271950Y-90555528D01*
X100361658Y-90645236D01*
X100474696Y-90702832D01*
X100484485Y-90704382D01*
X100484487Y-90704383D01*
X100511849Y-90708716D01*
X100568481Y-90717686D01*
X101249862Y-90717686D01*
X101931518Y-90717685D01*
X101936412Y-90716910D01*
X102015506Y-90704384D01*
X102015508Y-90704383D01*
X102025304Y-90702832D01*
X102138342Y-90645236D01*
X102228050Y-90555528D01*
X102228263Y-90555741D01*
X102279289Y-90516396D01*
X102350025Y-90510322D01*
X102412816Y-90543455D01*
X102420055Y-90551810D01*
X102421950Y-90555528D01*
X102511658Y-90645236D01*
X102624696Y-90702832D01*
X102634485Y-90704382D01*
X102634487Y-90704383D01*
X102661849Y-90708716D01*
X102718481Y-90717686D01*
X103249892Y-90717686D01*
X103781518Y-90717685D01*
X103786412Y-90716910D01*
X103865506Y-90704384D01*
X103865508Y-90704383D01*
X103875304Y-90702832D01*
X103988342Y-90645236D01*
X104078050Y-90555528D01*
X104135646Y-90442490D01*
X104150500Y-90348705D01*
X104150500Y-89343686D01*
X104170502Y-89275565D01*
X104224158Y-89229072D01*
X104276500Y-89217686D01*
X104348500Y-89217686D01*
X104416621Y-89237688D01*
X104463114Y-89291344D01*
X104474500Y-89343686D01*
X104474500Y-92235565D01*
X104474389Y-92240841D01*
X104471913Y-92299919D01*
X104480868Y-92338098D01*
X104481337Y-92340097D01*
X104483500Y-92351770D01*
X104489099Y-92392646D01*
X104492510Y-92400527D01*
X104492510Y-92400529D01*
X104494595Y-92405347D01*
X104501627Y-92426610D01*
X104502828Y-92431729D01*
X104504790Y-92440093D01*
X104524681Y-92476275D01*
X104529888Y-92486905D01*
X104546280Y-92524783D01*
X104551686Y-92531459D01*
X104551687Y-92531461D01*
X104554992Y-92535542D01*
X104567480Y-92554126D01*
X104574153Y-92566263D01*
X104580836Y-92574005D01*
X104604040Y-92597209D01*
X104612866Y-92607010D01*
X104627291Y-92624823D01*
X104636888Y-92636675D01*
X104643888Y-92641650D01*
X104643896Y-92641657D01*
X104651141Y-92646805D01*
X104667247Y-92660416D01*
X104868204Y-92861373D01*
X104871858Y-92865183D01*
X104911884Y-92908712D01*
X104944645Y-92929025D01*
X104946953Y-92930456D01*
X104956732Y-92937177D01*
X104989604Y-92962127D01*
X105002474Y-92967222D01*
X105022482Y-92977286D01*
X105034250Y-92984582D01*
X105042493Y-92986977D01*
X105042500Y-92986980D01*
X105073893Y-92996101D01*
X105085120Y-92999945D01*
X105115487Y-93011968D01*
X105115489Y-93011969D01*
X105123472Y-93015129D01*
X105132009Y-93016026D01*
X105132016Y-93016028D01*
X105137239Y-93016577D01*
X105159216Y-93020888D01*
X105166178Y-93022911D01*
X105166180Y-93022911D01*
X105172512Y-93024751D01*
X105179327Y-93025251D01*
X105180404Y-93025331D01*
X105180417Y-93025331D01*
X105182712Y-93025500D01*
X105215538Y-93025500D01*
X105228709Y-93026190D01*
X105266661Y-93030179D01*
X105275127Y-93028747D01*
X105275130Y-93028747D01*
X105283897Y-93027264D01*
X105304909Y-93025500D01*
X134985565Y-93025500D01*
X134990842Y-93025611D01*
X135049919Y-93028087D01*
X135090105Y-93018662D01*
X135101771Y-93016500D01*
X135134136Y-93012067D01*
X135134138Y-93012066D01*
X135142646Y-93010901D01*
X135150527Y-93007490D01*
X135150529Y-93007490D01*
X135155347Y-93005405D01*
X135176610Y-92998373D01*
X135181729Y-92997172D01*
X135181731Y-92997171D01*
X135190093Y-92995210D01*
X135226275Y-92975319D01*
X135236905Y-92970112D01*
X135274783Y-92953720D01*
X135281459Y-92948314D01*
X135281461Y-92948313D01*
X135285542Y-92945008D01*
X135304126Y-92932520D01*
X135316263Y-92925847D01*
X135324005Y-92919164D01*
X135347209Y-92895960D01*
X135357010Y-92887134D01*
X135374269Y-92873158D01*
X135386675Y-92863112D01*
X135396806Y-92848856D01*
X135410413Y-92832756D01*
X135651478Y-92591691D01*
X135713790Y-92557665D01*
X135733166Y-92555786D01*
X135733130Y-92555388D01*
X135904960Y-92539751D01*
X135904961Y-92539751D01*
X135911981Y-92539112D01*
X136082782Y-92483615D01*
X136095119Y-92476261D01*
X136230992Y-92395265D01*
X136230994Y-92395264D01*
X136237044Y-92391657D01*
X136367099Y-92267807D01*
X136386775Y-92238193D01*
X136462582Y-92124093D01*
X136466483Y-92118222D01*
X136481168Y-92079564D01*
X136527757Y-91956919D01*
X136527758Y-91956914D01*
X136530257Y-91950336D01*
X136544569Y-91848500D01*
X136554700Y-91776416D01*
X136554700Y-91776411D01*
X136555251Y-91772493D01*
X136555565Y-91750000D01*
X136535546Y-91571528D01*
X136529427Y-91553955D01*
X136478803Y-91408584D01*
X136476485Y-91401927D01*
X136432301Y-91331217D01*
X136385049Y-91255599D01*
X136381316Y-91249625D01*
X136292787Y-91160476D01*
X136259733Y-91127190D01*
X136259729Y-91127187D01*
X136254770Y-91122193D01*
X136243761Y-91115206D01*
X136196860Y-91085442D01*
X136103136Y-91025963D01*
X136041353Y-91003963D01*
X135998639Y-90988753D01*
X153194514Y-90988753D01*
X153195201Y-90995760D01*
X153195201Y-90995763D01*
X153198048Y-91024794D01*
X153212039Y-91167486D01*
X153214262Y-91174168D01*
X153214262Y-91174169D01*
X153239363Y-91249625D01*
X153268726Y-91337896D01*
X153272373Y-91343918D01*
X153275329Y-91350315D01*
X153272748Y-91351507D01*
X153287640Y-91407756D01*
X153270138Y-91468521D01*
X153247319Y-91507106D01*
X153245108Y-91514718D01*
X153245107Y-91514719D01*
X153229753Y-91567569D01*
X153202346Y-91661902D01*
X153201842Y-91668312D01*
X153199694Y-91695602D01*
X153199500Y-91698065D01*
X153199501Y-92301934D01*
X153202346Y-92338098D01*
X153204142Y-92344279D01*
X153204142Y-92344280D01*
X153243999Y-92481465D01*
X153247319Y-92492894D01*
X153251354Y-92499717D01*
X153325340Y-92624823D01*
X153325343Y-92624827D01*
X153329374Y-92631643D01*
X153443357Y-92745626D01*
X153450173Y-92749657D01*
X153450177Y-92749660D01*
X153575283Y-92823646D01*
X153582106Y-92827681D01*
X153589718Y-92829892D01*
X153589719Y-92829893D01*
X153730726Y-92870860D01*
X153730729Y-92870861D01*
X153736902Y-92872654D01*
X153758580Y-92874360D01*
X153770608Y-92875307D01*
X153770617Y-92875307D01*
X153773065Y-92875500D01*
X154124715Y-92875500D01*
X154476934Y-92875499D01*
X154496142Y-92873988D01*
X154506680Y-92873159D01*
X154506681Y-92873159D01*
X154513098Y-92872654D01*
X154545484Y-92863245D01*
X154660281Y-92829893D01*
X154660282Y-92829892D01*
X154667894Y-92827681D01*
X154674717Y-92823646D01*
X154799823Y-92749660D01*
X154799827Y-92749657D01*
X154806643Y-92745626D01*
X154920626Y-92631643D01*
X154924657Y-92624827D01*
X154924660Y-92624823D01*
X154998646Y-92499717D01*
X155002681Y-92492894D01*
X155005377Y-92483615D01*
X155045860Y-92344274D01*
X155045861Y-92344271D01*
X155047654Y-92338098D01*
X155050001Y-92308281D01*
X155050307Y-92304392D01*
X155050307Y-92304383D01*
X155050500Y-92301935D01*
X155050499Y-91698066D01*
X155047654Y-91661902D01*
X155021398Y-91571528D01*
X155004893Y-91514719D01*
X155004892Y-91514718D01*
X155002681Y-91507106D01*
X154944416Y-91408584D01*
X154924660Y-91375177D01*
X154924657Y-91375173D01*
X154920626Y-91368357D01*
X154821272Y-91269003D01*
X154787246Y-91206691D01*
X154785593Y-91162373D01*
X154804699Y-91026419D01*
X154805251Y-91022493D01*
X154805565Y-91000000D01*
X154785546Y-90821528D01*
X154779427Y-90803955D01*
X154728803Y-90658584D01*
X154726485Y-90651927D01*
X154631316Y-90499625D01*
X154564848Y-90432692D01*
X154509733Y-90377190D01*
X154509729Y-90377187D01*
X154504770Y-90372193D01*
X154493761Y-90365206D01*
X154446860Y-90335442D01*
X154353136Y-90275963D01*
X154323352Y-90265357D01*
X154190586Y-90218081D01*
X154190581Y-90218080D01*
X154183951Y-90215719D01*
X154176965Y-90214886D01*
X154176961Y-90214885D01*
X154049177Y-90199648D01*
X154005624Y-90194455D01*
X153998621Y-90195191D01*
X153998620Y-90195191D01*
X153834025Y-90212490D01*
X153834021Y-90212491D01*
X153827017Y-90213227D01*
X153820346Y-90215498D01*
X153663677Y-90268832D01*
X153663674Y-90268833D01*
X153657007Y-90271103D01*
X153651009Y-90274793D01*
X153651007Y-90274794D01*
X153580526Y-90318154D01*
X153504045Y-90365206D01*
X153499014Y-90370132D01*
X153499011Y-90370135D01*
X153491807Y-90377190D01*
X153375732Y-90490859D01*
X153371913Y-90496784D01*
X153371912Y-90496786D01*
X153331335Y-90559749D01*
X153278446Y-90641817D01*
X153276037Y-90648437D01*
X153276035Y-90648440D01*
X153256238Y-90702832D01*
X153217022Y-90810578D01*
X153194514Y-90988753D01*
X135998639Y-90988753D01*
X135940586Y-90968081D01*
X135940581Y-90968080D01*
X135933951Y-90965719D01*
X135926965Y-90964886D01*
X135926961Y-90964885D01*
X135799177Y-90949648D01*
X135755624Y-90944455D01*
X135748621Y-90945191D01*
X135748620Y-90945191D01*
X135584025Y-90962490D01*
X135584021Y-90962491D01*
X135577017Y-90963227D01*
X135570346Y-90965498D01*
X135413677Y-91018832D01*
X135413674Y-91018833D01*
X135407007Y-91021103D01*
X135401009Y-91024793D01*
X135401007Y-91024794D01*
X135330526Y-91068155D01*
X135254045Y-91115206D01*
X135249014Y-91120132D01*
X135249011Y-91120135D01*
X135200658Y-91167486D01*
X135125732Y-91240859D01*
X135121913Y-91246784D01*
X135121912Y-91246786D01*
X135107594Y-91269003D01*
X135028446Y-91391817D01*
X135026037Y-91398437D01*
X135026035Y-91398440D01*
X135022343Y-91408584D01*
X134967022Y-91560578D01*
X134944514Y-91738753D01*
X134945201Y-91745760D01*
X134945201Y-91745762D01*
X134945271Y-91746473D01*
X134945185Y-91746925D01*
X134945103Y-91752807D01*
X134944070Y-91752793D01*
X134932012Y-91816220D01*
X134908967Y-91847864D01*
X134819236Y-91937595D01*
X134756924Y-91971621D01*
X134730141Y-91974500D01*
X105651500Y-91974500D01*
X105583379Y-91954498D01*
X105536886Y-91900842D01*
X105525500Y-91848500D01*
X105525500Y-89014435D01*
X105525611Y-89009159D01*
X105527727Y-88958666D01*
X105528087Y-88950081D01*
X105518662Y-88909895D01*
X105516500Y-88898229D01*
X105512067Y-88865864D01*
X105512066Y-88865862D01*
X105510901Y-88857354D01*
X105505405Y-88844653D01*
X105498373Y-88823390D01*
X105497172Y-88818271D01*
X105497171Y-88818269D01*
X105495210Y-88809907D01*
X105475319Y-88773725D01*
X105470112Y-88763095D01*
X105453720Y-88725217D01*
X105445008Y-88714458D01*
X105432520Y-88695874D01*
X105425847Y-88683737D01*
X105419165Y-88675995D01*
X105395952Y-88652782D01*
X105387127Y-88642981D01*
X105368519Y-88620002D01*
X105363112Y-88613325D01*
X105356115Y-88608352D01*
X105356107Y-88608345D01*
X105348865Y-88603199D01*
X105332760Y-88589590D01*
X105073979Y-88330810D01*
X105070326Y-88327000D01*
X105036120Y-88289801D01*
X105030302Y-88283474D01*
X104995230Y-88261728D01*
X104985448Y-88255005D01*
X104959426Y-88235253D01*
X104952582Y-88230058D01*
X104944595Y-88226896D01*
X104944592Y-88226894D01*
X104939703Y-88224958D01*
X104919702Y-88214899D01*
X104907936Y-88207604D01*
X104868305Y-88196090D01*
X104857081Y-88192246D01*
X104826702Y-88180219D01*
X104826699Y-88180218D01*
X104818714Y-88177057D01*
X104810177Y-88176160D01*
X104810170Y-88176158D01*
X104804947Y-88175609D01*
X104782970Y-88171298D01*
X104776008Y-88169275D01*
X104776006Y-88169275D01*
X104769674Y-88167435D01*
X104762859Y-88166935D01*
X104761782Y-88166855D01*
X104761769Y-88166855D01*
X104759474Y-88166686D01*
X104726647Y-88166686D01*
X104713476Y-88165996D01*
X104675524Y-88162007D01*
X104667058Y-88163439D01*
X104667055Y-88163439D01*
X104658288Y-88164922D01*
X104637276Y-88166686D01*
X104276499Y-88166686D01*
X104208378Y-88146684D01*
X104161885Y-88093028D01*
X104150499Y-88040686D01*
X104150499Y-87035668D01*
X104135646Y-86941882D01*
X104078050Y-86828844D01*
X103988342Y-86739136D01*
X103875304Y-86681540D01*
X103865515Y-86679990D01*
X103865513Y-86679989D01*
X103838151Y-86675656D01*
X103781519Y-86666686D01*
X103250108Y-86666686D01*
X102718482Y-86666687D01*
X102713589Y-86667462D01*
X102713588Y-86667462D01*
X102634494Y-86679988D01*
X102634492Y-86679989D01*
X102624696Y-86681540D01*
X102511658Y-86739136D01*
X102421950Y-86828844D01*
X102421737Y-86828631D01*
X102370711Y-86867976D01*
X102299975Y-86874050D01*
X102237184Y-86840917D01*
X102229945Y-86832562D01*
X102228050Y-86828844D01*
X102138342Y-86739136D01*
X102025304Y-86681540D01*
X102015515Y-86679990D01*
X102015513Y-86679989D01*
X101988151Y-86675656D01*
X101931519Y-86666686D01*
X101250138Y-86666686D01*
X100568482Y-86666687D01*
X100563589Y-86667462D01*
X100563588Y-86667462D01*
X100484494Y-86679988D01*
X100484492Y-86679989D01*
X100474696Y-86681540D01*
X100361658Y-86739136D01*
X100271950Y-86828844D01*
X100214354Y-86941882D01*
X100199500Y-87035667D01*
X90400500Y-87035667D01*
X90400500Y-79596605D01*
X100199500Y-79596605D01*
X100199501Y-82909642D01*
X100214354Y-83003428D01*
X100271950Y-83116466D01*
X100361658Y-83206174D01*
X100474696Y-83263770D01*
X100484485Y-83265320D01*
X100484487Y-83265321D01*
X100511849Y-83269654D01*
X100568481Y-83278624D01*
X101249862Y-83278624D01*
X101931518Y-83278623D01*
X101936412Y-83277848D01*
X102015506Y-83265322D01*
X102015508Y-83265321D01*
X102025304Y-83263770D01*
X102138342Y-83206174D01*
X102228050Y-83116466D01*
X102228263Y-83116679D01*
X102279289Y-83077334D01*
X102350025Y-83071260D01*
X102412816Y-83104393D01*
X102420055Y-83112748D01*
X102421950Y-83116466D01*
X102511658Y-83206174D01*
X102624696Y-83263770D01*
X102634485Y-83265320D01*
X102634487Y-83265321D01*
X102661849Y-83269654D01*
X102718481Y-83278624D01*
X103249892Y-83278624D01*
X103781518Y-83278623D01*
X103786412Y-83277848D01*
X103865506Y-83265322D01*
X103865508Y-83265321D01*
X103875304Y-83263770D01*
X103988342Y-83206174D01*
X104078050Y-83116466D01*
X104135646Y-83003428D01*
X104150500Y-82909643D01*
X104150500Y-81904624D01*
X104170502Y-81836503D01*
X104224158Y-81790010D01*
X104276500Y-81778624D01*
X104348500Y-81778624D01*
X104416621Y-81798626D01*
X104463114Y-81852282D01*
X104474500Y-81904624D01*
X104474500Y-84735565D01*
X104474389Y-84740841D01*
X104471913Y-84799919D01*
X104481337Y-84840097D01*
X104483500Y-84851770D01*
X104489099Y-84892646D01*
X104492510Y-84900527D01*
X104492510Y-84900529D01*
X104494595Y-84905347D01*
X104501627Y-84926610D01*
X104502828Y-84931729D01*
X104504790Y-84940093D01*
X104524681Y-84976275D01*
X104529888Y-84986905D01*
X104546280Y-85024783D01*
X104551686Y-85031459D01*
X104551687Y-85031461D01*
X104554992Y-85035542D01*
X104567480Y-85054126D01*
X104574153Y-85066263D01*
X104580836Y-85074005D01*
X104604040Y-85097209D01*
X104612865Y-85107009D01*
X104636888Y-85136675D01*
X104643888Y-85141650D01*
X104643896Y-85141657D01*
X104651141Y-85146805D01*
X104667247Y-85160416D01*
X104868204Y-85361373D01*
X104871858Y-85365183D01*
X104911884Y-85408712D01*
X104944645Y-85429025D01*
X104946953Y-85430456D01*
X104956732Y-85437177D01*
X104989604Y-85462127D01*
X105002474Y-85467222D01*
X105022482Y-85477286D01*
X105034250Y-85484582D01*
X105042493Y-85486977D01*
X105042500Y-85486980D01*
X105073893Y-85496101D01*
X105085120Y-85499945D01*
X105115487Y-85511968D01*
X105115489Y-85511969D01*
X105123472Y-85515129D01*
X105132009Y-85516026D01*
X105132016Y-85516028D01*
X105137239Y-85516577D01*
X105159216Y-85520888D01*
X105166178Y-85522911D01*
X105166180Y-85522911D01*
X105172512Y-85524751D01*
X105179327Y-85525251D01*
X105180404Y-85525331D01*
X105180417Y-85525331D01*
X105182712Y-85525500D01*
X105215538Y-85525500D01*
X105228709Y-85526190D01*
X105266661Y-85530179D01*
X105275127Y-85528747D01*
X105275130Y-85528747D01*
X105283897Y-85527264D01*
X105304909Y-85525500D01*
X144235565Y-85525500D01*
X144240842Y-85525611D01*
X144299919Y-85528087D01*
X144340105Y-85518662D01*
X144351771Y-85516500D01*
X144384136Y-85512067D01*
X144384138Y-85512066D01*
X144392646Y-85510901D01*
X144400527Y-85507490D01*
X144400529Y-85507490D01*
X144405347Y-85505405D01*
X144426610Y-85498373D01*
X144431729Y-85497172D01*
X144431731Y-85497171D01*
X144440093Y-85495210D01*
X144476275Y-85475319D01*
X144486905Y-85470112D01*
X144524783Y-85453720D01*
X144531459Y-85448314D01*
X144531461Y-85448313D01*
X144535542Y-85445008D01*
X144554126Y-85432520D01*
X144566263Y-85425847D01*
X144574005Y-85419164D01*
X144597209Y-85395960D01*
X144607010Y-85387134D01*
X144629999Y-85368518D01*
X144636675Y-85363112D01*
X144646806Y-85348856D01*
X144660413Y-85332756D01*
X144782504Y-85210665D01*
X149000119Y-85210665D01*
X149000416Y-85215817D01*
X149000416Y-85215821D01*
X149005864Y-85310296D01*
X149013376Y-85440580D01*
X149014513Y-85445626D01*
X149014514Y-85445632D01*
X149036226Y-85541975D01*
X149064006Y-85665242D01*
X149065948Y-85670024D01*
X149065949Y-85670028D01*
X149103427Y-85762325D01*
X149150649Y-85878618D01*
X149270979Y-86074978D01*
X149421763Y-86249048D01*
X149598953Y-86396154D01*
X149797790Y-86512345D01*
X150012934Y-86594501D01*
X150018000Y-86595532D01*
X150018001Y-86595532D01*
X150118697Y-86616018D01*
X150238607Y-86640414D01*
X150368352Y-86645172D01*
X150463585Y-86648664D01*
X150463589Y-86648664D01*
X150468749Y-86648853D01*
X150473869Y-86648197D01*
X150473871Y-86648197D01*
X150543272Y-86639307D01*
X150697178Y-86619591D01*
X150702126Y-86618106D01*
X150702133Y-86618105D01*
X150912811Y-86554898D01*
X150912810Y-86554898D01*
X150917761Y-86553413D01*
X151124574Y-86452096D01*
X151312062Y-86318363D01*
X151475190Y-86155803D01*
X151530464Y-86078881D01*
X151572489Y-86020397D01*
X151628484Y-85976749D01*
X151699187Y-85970303D01*
X151762152Y-86003106D01*
X151782245Y-86028089D01*
X151808278Y-86070572D01*
X151808282Y-86070577D01*
X151810979Y-86074978D01*
X151961763Y-86249048D01*
X152138953Y-86396154D01*
X152337790Y-86512345D01*
X152552934Y-86594501D01*
X152558000Y-86595532D01*
X152558001Y-86595532D01*
X152658697Y-86616018D01*
X152778607Y-86640414D01*
X152908352Y-86645172D01*
X153003585Y-86648664D01*
X153003589Y-86648664D01*
X153008749Y-86648853D01*
X153013869Y-86648197D01*
X153013871Y-86648197D01*
X153083272Y-86639307D01*
X153237178Y-86619591D01*
X153242126Y-86618106D01*
X153242133Y-86618105D01*
X153452811Y-86554898D01*
X153452810Y-86554898D01*
X153457761Y-86553413D01*
X153664574Y-86452096D01*
X153852062Y-86318363D01*
X154015190Y-86155803D01*
X154073269Y-86074978D01*
X154146559Y-85972983D01*
X154149577Y-85968783D01*
X154251615Y-85762325D01*
X154282643Y-85660200D01*
X154317059Y-85546927D01*
X154317060Y-85546921D01*
X154318563Y-85541975D01*
X154336107Y-85408712D01*
X154348185Y-85316971D01*
X154348185Y-85316965D01*
X154348622Y-85313649D01*
X154350300Y-85245000D01*
X154347477Y-85210665D01*
X160460119Y-85210665D01*
X160460416Y-85215817D01*
X160460416Y-85215821D01*
X160465864Y-85310296D01*
X160473376Y-85440580D01*
X160474513Y-85445626D01*
X160474514Y-85445632D01*
X160496226Y-85541975D01*
X160524006Y-85665242D01*
X160525948Y-85670024D01*
X160525949Y-85670028D01*
X160563427Y-85762325D01*
X160610649Y-85878618D01*
X160730979Y-86074978D01*
X160881763Y-86249048D01*
X161058953Y-86396154D01*
X161257790Y-86512345D01*
X161472934Y-86594501D01*
X161478000Y-86595532D01*
X161478001Y-86595532D01*
X161578697Y-86616018D01*
X161698607Y-86640414D01*
X161828352Y-86645172D01*
X161923585Y-86648664D01*
X161923589Y-86648664D01*
X161928749Y-86648853D01*
X161933869Y-86648197D01*
X161933871Y-86648197D01*
X162003272Y-86639307D01*
X162157178Y-86619591D01*
X162162126Y-86618106D01*
X162162133Y-86618105D01*
X162372811Y-86554898D01*
X162372810Y-86554898D01*
X162377761Y-86553413D01*
X162584574Y-86452096D01*
X162772062Y-86318363D01*
X162935190Y-86155803D01*
X162990464Y-86078881D01*
X163032489Y-86020397D01*
X163088484Y-85976749D01*
X163159187Y-85970303D01*
X163222152Y-86003106D01*
X163242245Y-86028089D01*
X163268278Y-86070572D01*
X163268282Y-86070577D01*
X163270979Y-86074978D01*
X163421763Y-86249048D01*
X163598953Y-86396154D01*
X163797790Y-86512345D01*
X164012934Y-86594501D01*
X164018000Y-86595532D01*
X164018001Y-86595532D01*
X164118697Y-86616018D01*
X164238607Y-86640414D01*
X164368352Y-86645172D01*
X164463585Y-86648664D01*
X164463589Y-86648664D01*
X164468749Y-86648853D01*
X164473869Y-86648197D01*
X164473871Y-86648197D01*
X164543272Y-86639307D01*
X164697178Y-86619591D01*
X164702126Y-86618106D01*
X164702133Y-86618105D01*
X164912811Y-86554898D01*
X164912810Y-86554898D01*
X164917761Y-86553413D01*
X165124574Y-86452096D01*
X165312062Y-86318363D01*
X165475190Y-86155803D01*
X165533269Y-86074978D01*
X165606559Y-85972983D01*
X165609577Y-85968783D01*
X165711615Y-85762325D01*
X165742643Y-85660200D01*
X165777059Y-85546927D01*
X165777060Y-85546921D01*
X165778563Y-85541975D01*
X165796107Y-85408712D01*
X165808185Y-85316971D01*
X165808185Y-85316965D01*
X165808622Y-85313649D01*
X165810300Y-85245000D01*
X165791430Y-85015478D01*
X165735326Y-84792120D01*
X165659714Y-84618222D01*
X165645556Y-84585661D01*
X165645554Y-84585658D01*
X165643496Y-84580924D01*
X165518405Y-84387563D01*
X165497774Y-84364889D01*
X165366890Y-84221051D01*
X165366889Y-84221050D01*
X165363412Y-84217229D01*
X165359361Y-84214030D01*
X165359357Y-84214026D01*
X165186735Y-84077697D01*
X165186730Y-84077693D01*
X165182681Y-84074496D01*
X165178165Y-84072003D01*
X165178162Y-84072001D01*
X164985589Y-83965695D01*
X164985585Y-83965693D01*
X164981065Y-83963198D01*
X164976196Y-83961474D01*
X164976192Y-83961472D01*
X164768853Y-83888049D01*
X164768849Y-83888048D01*
X164763978Y-83886323D01*
X164758885Y-83885416D01*
X164758882Y-83885415D01*
X164662707Y-83868284D01*
X164537250Y-83845937D01*
X164450802Y-83844881D01*
X164312141Y-83843186D01*
X164312139Y-83843186D01*
X164306971Y-83843123D01*
X164079325Y-83877958D01*
X163860424Y-83949506D01*
X163656149Y-84055845D01*
X163471984Y-84194119D01*
X163312877Y-84360616D01*
X163239131Y-84468724D01*
X163184220Y-84513726D01*
X163113695Y-84521897D01*
X163049948Y-84490643D01*
X163029251Y-84466159D01*
X162981215Y-84391906D01*
X162981213Y-84391903D01*
X162978405Y-84387563D01*
X162957774Y-84364889D01*
X162826890Y-84221051D01*
X162826889Y-84221050D01*
X162823412Y-84217229D01*
X162819361Y-84214030D01*
X162819357Y-84214026D01*
X162646735Y-84077697D01*
X162646730Y-84077693D01*
X162642681Y-84074496D01*
X162638165Y-84072003D01*
X162638162Y-84072001D01*
X162445589Y-83965695D01*
X162445585Y-83965693D01*
X162441065Y-83963198D01*
X162436196Y-83961474D01*
X162436192Y-83961472D01*
X162228853Y-83888049D01*
X162228849Y-83888048D01*
X162223978Y-83886323D01*
X162218885Y-83885416D01*
X162218882Y-83885415D01*
X162122707Y-83868284D01*
X161997250Y-83845937D01*
X161910802Y-83844881D01*
X161772141Y-83843186D01*
X161772139Y-83843186D01*
X161766971Y-83843123D01*
X161539325Y-83877958D01*
X161320424Y-83949506D01*
X161116149Y-84055845D01*
X160931984Y-84194119D01*
X160772877Y-84360616D01*
X160643099Y-84550863D01*
X160640923Y-84555552D01*
X160640919Y-84555558D01*
X160595248Y-84653949D01*
X160546136Y-84759752D01*
X160484592Y-84981673D01*
X160484043Y-84986810D01*
X160468027Y-85136675D01*
X160460119Y-85210665D01*
X154347477Y-85210665D01*
X154331430Y-85015478D01*
X154275326Y-84792120D01*
X154199714Y-84618222D01*
X154185556Y-84585661D01*
X154185554Y-84585658D01*
X154183496Y-84580924D01*
X154058405Y-84387563D01*
X154037774Y-84364889D01*
X153906890Y-84221051D01*
X153906889Y-84221050D01*
X153903412Y-84217229D01*
X153899361Y-84214030D01*
X153899357Y-84214026D01*
X153726735Y-84077697D01*
X153726730Y-84077693D01*
X153722681Y-84074496D01*
X153718165Y-84072003D01*
X153718162Y-84072001D01*
X153525589Y-83965695D01*
X153525585Y-83965693D01*
X153521065Y-83963198D01*
X153516196Y-83961474D01*
X153516192Y-83961472D01*
X153308853Y-83888049D01*
X153308849Y-83888048D01*
X153303978Y-83886323D01*
X153298885Y-83885416D01*
X153298882Y-83885415D01*
X153202707Y-83868284D01*
X153077250Y-83845937D01*
X152990802Y-83844881D01*
X152852141Y-83843186D01*
X152852139Y-83843186D01*
X152846971Y-83843123D01*
X152619325Y-83877958D01*
X152400424Y-83949506D01*
X152196149Y-84055845D01*
X152011984Y-84194119D01*
X151852877Y-84360616D01*
X151779131Y-84468724D01*
X151724220Y-84513726D01*
X151653695Y-84521897D01*
X151589948Y-84490643D01*
X151569251Y-84466159D01*
X151521215Y-84391906D01*
X151521213Y-84391903D01*
X151518405Y-84387563D01*
X151497774Y-84364889D01*
X151366890Y-84221051D01*
X151366889Y-84221050D01*
X151363412Y-84217229D01*
X151359361Y-84214030D01*
X151359357Y-84214026D01*
X151186735Y-84077697D01*
X151186730Y-84077693D01*
X151182681Y-84074496D01*
X151178165Y-84072003D01*
X151178162Y-84072001D01*
X150985589Y-83965695D01*
X150985585Y-83965693D01*
X150981065Y-83963198D01*
X150976196Y-83961474D01*
X150976192Y-83961472D01*
X150768853Y-83888049D01*
X150768849Y-83888048D01*
X150763978Y-83886323D01*
X150758885Y-83885416D01*
X150758882Y-83885415D01*
X150662707Y-83868284D01*
X150537250Y-83845937D01*
X150450802Y-83844881D01*
X150312141Y-83843186D01*
X150312139Y-83843186D01*
X150306971Y-83843123D01*
X150079325Y-83877958D01*
X149860424Y-83949506D01*
X149656149Y-84055845D01*
X149471984Y-84194119D01*
X149312877Y-84360616D01*
X149183099Y-84550863D01*
X149180923Y-84555552D01*
X149180919Y-84555558D01*
X149135248Y-84653949D01*
X149086136Y-84759752D01*
X149024592Y-84981673D01*
X149024043Y-84986810D01*
X149008027Y-85136675D01*
X149000119Y-85210665D01*
X144782504Y-85210665D01*
X144901478Y-85091691D01*
X144963790Y-85057665D01*
X144983166Y-85055786D01*
X144983130Y-85055388D01*
X145154960Y-85039751D01*
X145154961Y-85039751D01*
X145161981Y-85039112D01*
X145332782Y-84983615D01*
X145345119Y-84976261D01*
X145480992Y-84895265D01*
X145480994Y-84895264D01*
X145487044Y-84891657D01*
X145617099Y-84767807D01*
X145636775Y-84738193D01*
X145712582Y-84624093D01*
X145716483Y-84618222D01*
X145743696Y-84546584D01*
X145777757Y-84456919D01*
X145777758Y-84456914D01*
X145780257Y-84450336D01*
X145792266Y-84364889D01*
X145804700Y-84276416D01*
X145804700Y-84276411D01*
X145805251Y-84272493D01*
X145805565Y-84250000D01*
X145785546Y-84071528D01*
X145779427Y-84053955D01*
X145728803Y-83908584D01*
X145726485Y-83901927D01*
X145711508Y-83877958D01*
X145635049Y-83755599D01*
X145631316Y-83749625D01*
X145567771Y-83685635D01*
X145509733Y-83627190D01*
X145509729Y-83627187D01*
X145504770Y-83622193D01*
X145493761Y-83615206D01*
X145446860Y-83585442D01*
X145353136Y-83525963D01*
X145323352Y-83515357D01*
X145190586Y-83468081D01*
X145190581Y-83468080D01*
X145183951Y-83465719D01*
X145176965Y-83464886D01*
X145176961Y-83464885D01*
X145049177Y-83449648D01*
X145005624Y-83444455D01*
X144998621Y-83445191D01*
X144998620Y-83445191D01*
X144834025Y-83462490D01*
X144834021Y-83462491D01*
X144827017Y-83463227D01*
X144820346Y-83465498D01*
X144663677Y-83518832D01*
X144663674Y-83518833D01*
X144657007Y-83521103D01*
X144651009Y-83524793D01*
X144651007Y-83524794D01*
X144580526Y-83568155D01*
X144504045Y-83615206D01*
X144499014Y-83620132D01*
X144499011Y-83620135D01*
X144491807Y-83627190D01*
X144375732Y-83740859D01*
X144371913Y-83746784D01*
X144371912Y-83746786D01*
X144286342Y-83879565D01*
X144278446Y-83891817D01*
X144217022Y-84060578D01*
X144194514Y-84238753D01*
X144195201Y-84245760D01*
X144195201Y-84245762D01*
X144195271Y-84246473D01*
X144195185Y-84246925D01*
X144195103Y-84252807D01*
X144194070Y-84252793D01*
X144182012Y-84316220D01*
X144158967Y-84347864D01*
X144069236Y-84437595D01*
X144006924Y-84471621D01*
X143980141Y-84474500D01*
X105651500Y-84474500D01*
X105583379Y-84454498D01*
X105536886Y-84400842D01*
X105525500Y-84348500D01*
X105525500Y-81284461D01*
X105526190Y-81271290D01*
X105529281Y-81241882D01*
X105530179Y-81233338D01*
X105519877Y-81172431D01*
X105519283Y-81168548D01*
X105512067Y-81115867D01*
X105510901Y-81107354D01*
X105507582Y-81099684D01*
X105507562Y-81099615D01*
X105506168Y-81091376D01*
X105502514Y-81083612D01*
X105502513Y-81083607D01*
X105479868Y-81035484D01*
X105478239Y-81031877D01*
X105457130Y-80983098D01*
X105453720Y-80975217D01*
X105448465Y-80968727D01*
X105448425Y-80968662D01*
X105444866Y-80961101D01*
X105404513Y-80914353D01*
X105401972Y-80911314D01*
X105368519Y-80870002D01*
X105368518Y-80870001D01*
X105363112Y-80863325D01*
X105356300Y-80858484D01*
X105356244Y-80858433D01*
X105350786Y-80852110D01*
X105299333Y-80817924D01*
X105296120Y-80815715D01*
X105252755Y-80784897D01*
X105252747Y-80784893D01*
X105245751Y-80779921D01*
X105237894Y-80777092D01*
X105237821Y-80777055D01*
X105230865Y-80772434D01*
X105172129Y-80753350D01*
X105168395Y-80752071D01*
X105118371Y-80734061D01*
X105118370Y-80734061D01*
X105110285Y-80731150D01*
X105101952Y-80730538D01*
X105101878Y-80730523D01*
X105093933Y-80727942D01*
X105085353Y-80727582D01*
X105085351Y-80727582D01*
X105039779Y-80725672D01*
X105032249Y-80725357D01*
X105028307Y-80725130D01*
X104966693Y-80720606D01*
X104958508Y-80722256D01*
X104958428Y-80722262D01*
X104950081Y-80721913D01*
X104941717Y-80723875D01*
X104941715Y-80723875D01*
X104939924Y-80724295D01*
X104911153Y-80727624D01*
X104276499Y-80727624D01*
X104208378Y-80707622D01*
X104161885Y-80653966D01*
X104150499Y-80601624D01*
X104150499Y-79596606D01*
X104135646Y-79502820D01*
X104078050Y-79389782D01*
X103988342Y-79300074D01*
X103875304Y-79242478D01*
X103865515Y-79240928D01*
X103865513Y-79240927D01*
X103838151Y-79236594D01*
X103781519Y-79227624D01*
X103250108Y-79227624D01*
X102718482Y-79227625D01*
X102713589Y-79228400D01*
X102713588Y-79228400D01*
X102634494Y-79240926D01*
X102634492Y-79240927D01*
X102624696Y-79242478D01*
X102511658Y-79300074D01*
X102421950Y-79389782D01*
X102421737Y-79389569D01*
X102370711Y-79428914D01*
X102299975Y-79434988D01*
X102237184Y-79401855D01*
X102229945Y-79393500D01*
X102228050Y-79389782D01*
X102138342Y-79300074D01*
X102025304Y-79242478D01*
X102015515Y-79240928D01*
X102015513Y-79240927D01*
X101988151Y-79236594D01*
X101931519Y-79227624D01*
X101250138Y-79227624D01*
X100568482Y-79227625D01*
X100563589Y-79228400D01*
X100563588Y-79228400D01*
X100484494Y-79240926D01*
X100484492Y-79240927D01*
X100474696Y-79242478D01*
X100361658Y-79300074D01*
X100271950Y-79389782D01*
X100214354Y-79502820D01*
X100199500Y-79596605D01*
X90400500Y-79596605D01*
X90400500Y-72157543D01*
X100199500Y-72157543D01*
X100199501Y-75470580D01*
X100214354Y-75564366D01*
X100271950Y-75677404D01*
X100361658Y-75767112D01*
X100474696Y-75824708D01*
X100484485Y-75826258D01*
X100484487Y-75826259D01*
X100511849Y-75830592D01*
X100568481Y-75839562D01*
X101249862Y-75839562D01*
X101931518Y-75839561D01*
X101936412Y-75838786D01*
X102015506Y-75826260D01*
X102015508Y-75826259D01*
X102025304Y-75824708D01*
X102138342Y-75767112D01*
X102228050Y-75677404D01*
X102228263Y-75677617D01*
X102279289Y-75638272D01*
X102350025Y-75632198D01*
X102412816Y-75665331D01*
X102420055Y-75673686D01*
X102421950Y-75677404D01*
X102511658Y-75767112D01*
X102624696Y-75824708D01*
X102634485Y-75826258D01*
X102634487Y-75826259D01*
X102661849Y-75830592D01*
X102718481Y-75839562D01*
X103249892Y-75839562D01*
X103781518Y-75839561D01*
X103786412Y-75838786D01*
X103865506Y-75826260D01*
X103865508Y-75826259D01*
X103875304Y-75824708D01*
X103988342Y-75767112D01*
X104078050Y-75677404D01*
X104135646Y-75564366D01*
X104150500Y-75470581D01*
X104150500Y-74465562D01*
X104170502Y-74397441D01*
X104224158Y-74350948D01*
X104276500Y-74339562D01*
X104348500Y-74339562D01*
X104416621Y-74359564D01*
X104463114Y-74413220D01*
X104474500Y-74465562D01*
X104474500Y-77235565D01*
X104474389Y-77240841D01*
X104471913Y-77299919D01*
X104479865Y-77333822D01*
X104481337Y-77340097D01*
X104483500Y-77351770D01*
X104489099Y-77392646D01*
X104492510Y-77400527D01*
X104492510Y-77400529D01*
X104494595Y-77405347D01*
X104501627Y-77426610D01*
X104502828Y-77431729D01*
X104504790Y-77440093D01*
X104524681Y-77476275D01*
X104529888Y-77486905D01*
X104546280Y-77524783D01*
X104551686Y-77531459D01*
X104551687Y-77531461D01*
X104554992Y-77535542D01*
X104567480Y-77554126D01*
X104574153Y-77566263D01*
X104580836Y-77574005D01*
X104604040Y-77597209D01*
X104612865Y-77607009D01*
X104636888Y-77636675D01*
X104643888Y-77641650D01*
X104643896Y-77641657D01*
X104651141Y-77646805D01*
X104667247Y-77660416D01*
X104868204Y-77861373D01*
X104871858Y-77865183D01*
X104911884Y-77908712D01*
X104944645Y-77929025D01*
X104946953Y-77930456D01*
X104956732Y-77937177D01*
X104989604Y-77962127D01*
X105002474Y-77967222D01*
X105022482Y-77977286D01*
X105034250Y-77984582D01*
X105042493Y-77986977D01*
X105042500Y-77986980D01*
X105073893Y-77996101D01*
X105085120Y-77999945D01*
X105115487Y-78011968D01*
X105115489Y-78011969D01*
X105123472Y-78015129D01*
X105132009Y-78016026D01*
X105132016Y-78016028D01*
X105137239Y-78016577D01*
X105159216Y-78020888D01*
X105166178Y-78022911D01*
X105166180Y-78022911D01*
X105172512Y-78024751D01*
X105179327Y-78025251D01*
X105180404Y-78025331D01*
X105180417Y-78025331D01*
X105182712Y-78025500D01*
X105215538Y-78025500D01*
X105228709Y-78026190D01*
X105266661Y-78030179D01*
X105275127Y-78028747D01*
X105275130Y-78028747D01*
X105283897Y-78027264D01*
X105304909Y-78025500D01*
X149735565Y-78025500D01*
X149740842Y-78025611D01*
X149799919Y-78028087D01*
X149840105Y-78018662D01*
X149851771Y-78016500D01*
X149884136Y-78012067D01*
X149884138Y-78012066D01*
X149892646Y-78010901D01*
X149900527Y-78007490D01*
X149900529Y-78007490D01*
X149905347Y-78005405D01*
X149926610Y-77998373D01*
X149931729Y-77997172D01*
X149931731Y-77997171D01*
X149940093Y-77995210D01*
X149976275Y-77975319D01*
X149986905Y-77970112D01*
X150024783Y-77953720D01*
X150031459Y-77948314D01*
X150031461Y-77948313D01*
X150035542Y-77945008D01*
X150054126Y-77932520D01*
X150066263Y-77925847D01*
X150074005Y-77919164D01*
X150097209Y-77895960D01*
X150107010Y-77887134D01*
X150129997Y-77868520D01*
X150129998Y-77868519D01*
X150136675Y-77863112D01*
X150141650Y-77856112D01*
X150141657Y-77856104D01*
X150146805Y-77848859D01*
X150160416Y-77832753D01*
X150361373Y-77631796D01*
X150365183Y-77628142D01*
X150402389Y-77593930D01*
X150408712Y-77588116D01*
X150430458Y-77553044D01*
X150437178Y-77543266D01*
X150456934Y-77517238D01*
X150456935Y-77517237D01*
X150462127Y-77510396D01*
X150467222Y-77497526D01*
X150477286Y-77477518D01*
X150484582Y-77465750D01*
X150486977Y-77457507D01*
X150486980Y-77457500D01*
X150496101Y-77426107D01*
X150499945Y-77414880D01*
X150511968Y-77384513D01*
X150511969Y-77384511D01*
X150515129Y-77376528D01*
X150516026Y-77367991D01*
X150516028Y-77367984D01*
X150516577Y-77362761D01*
X150520888Y-77340784D01*
X150522911Y-77333822D01*
X150522911Y-77333820D01*
X150524751Y-77327488D01*
X150525500Y-77317288D01*
X150525500Y-77284462D01*
X150526190Y-77271291D01*
X150529281Y-77241881D01*
X150530179Y-77233339D01*
X150527264Y-77216103D01*
X150525500Y-77195091D01*
X150525500Y-72014435D01*
X150525611Y-72009159D01*
X150527190Y-71971492D01*
X150528087Y-71950081D01*
X150518665Y-71909908D01*
X150516502Y-71898239D01*
X150515887Y-71893747D01*
X150510901Y-71857354D01*
X150505403Y-71844649D01*
X150498369Y-71823380D01*
X150497171Y-71818271D01*
X150497170Y-71818269D01*
X150495209Y-71809907D01*
X150491071Y-71802381D01*
X150491070Y-71802377D01*
X150475330Y-71773747D01*
X150470114Y-71763102D01*
X150453720Y-71725217D01*
X150445009Y-71714460D01*
X150432515Y-71695867D01*
X150429029Y-71689525D01*
X150429028Y-71689524D01*
X150425847Y-71683737D01*
X150419164Y-71675995D01*
X150395960Y-71652791D01*
X150387134Y-71642990D01*
X150368518Y-71620001D01*
X150363112Y-71613325D01*
X150348856Y-71603194D01*
X150332756Y-71589587D01*
X150092342Y-71349173D01*
X150058316Y-71286861D01*
X150055449Y-71258321D01*
X150055510Y-71253964D01*
X150055510Y-71253959D01*
X150055565Y-71250000D01*
X150035546Y-71071528D01*
X150029427Y-71053955D01*
X149978803Y-70908584D01*
X149976485Y-70901927D01*
X149881316Y-70749625D01*
X149817771Y-70685635D01*
X149759733Y-70627190D01*
X149759729Y-70627187D01*
X149754770Y-70622193D01*
X149743761Y-70615206D01*
X149609779Y-70530179D01*
X149603136Y-70525963D01*
X149572711Y-70515129D01*
X149440586Y-70468081D01*
X149440581Y-70468080D01*
X149433951Y-70465719D01*
X149426965Y-70464886D01*
X149426961Y-70464885D01*
X149287978Y-70448313D01*
X149255624Y-70444455D01*
X149248621Y-70445191D01*
X149248620Y-70445191D01*
X149084025Y-70462490D01*
X149084021Y-70462491D01*
X149077017Y-70463227D01*
X149070346Y-70465498D01*
X148913677Y-70518832D01*
X148913674Y-70518833D01*
X148907007Y-70521103D01*
X148901009Y-70524793D01*
X148901007Y-70524794D01*
X148892254Y-70530179D01*
X148754045Y-70615206D01*
X148749014Y-70620132D01*
X148749011Y-70620135D01*
X148741807Y-70627190D01*
X148625732Y-70740859D01*
X148621913Y-70746784D01*
X148621912Y-70746786D01*
X148532265Y-70885891D01*
X148528446Y-70891817D01*
X148467022Y-71060578D01*
X148444514Y-71238753D01*
X148445201Y-71245760D01*
X148445201Y-71245763D01*
X148447822Y-71272493D01*
X148462039Y-71417486D01*
X148518726Y-71587896D01*
X148522373Y-71593918D01*
X148597847Y-71718540D01*
X148611759Y-71741512D01*
X148616648Y-71746575D01*
X148616649Y-71746576D01*
X148670041Y-71801865D01*
X148736514Y-71870699D01*
X148886789Y-71969036D01*
X149055116Y-72031636D01*
X149062097Y-72032567D01*
X149062099Y-72032568D01*
X149226149Y-72054457D01*
X149226153Y-72054457D01*
X149233130Y-72055388D01*
X149240141Y-72054750D01*
X149240144Y-72054750D01*
X149244446Y-72054358D01*
X149246843Y-72054140D01*
X149316495Y-72067885D01*
X149347357Y-72090526D01*
X149437595Y-72180764D01*
X149471621Y-72243076D01*
X149474500Y-72269859D01*
X149474500Y-76848500D01*
X149454498Y-76916621D01*
X149400842Y-76963114D01*
X149348500Y-76974500D01*
X105651500Y-76974500D01*
X105583379Y-76954498D01*
X105536886Y-76900842D01*
X105525500Y-76848500D01*
X105525500Y-74014435D01*
X105525611Y-74009159D01*
X105527727Y-73958666D01*
X105528087Y-73950081D01*
X105518665Y-73909908D01*
X105516502Y-73898239D01*
X105512066Y-73865861D01*
X105510901Y-73857354D01*
X105505403Y-73844649D01*
X105498369Y-73823380D01*
X105497171Y-73818271D01*
X105497170Y-73818269D01*
X105495209Y-73809907D01*
X105491071Y-73802381D01*
X105491070Y-73802377D01*
X105475330Y-73773747D01*
X105470114Y-73763102D01*
X105453720Y-73725217D01*
X105445009Y-73714460D01*
X105432515Y-73695867D01*
X105429029Y-73689525D01*
X105429028Y-73689524D01*
X105425847Y-73683737D01*
X105419164Y-73675995D01*
X105395960Y-73652791D01*
X105387134Y-73642990D01*
X105368518Y-73620001D01*
X105363112Y-73613325D01*
X105348856Y-73603194D01*
X105332756Y-73589587D01*
X105195867Y-73452698D01*
X105192214Y-73448889D01*
X105157996Y-73411677D01*
X105152178Y-73405350D01*
X105117106Y-73383604D01*
X105107324Y-73376881D01*
X105081302Y-73357129D01*
X105074458Y-73351934D01*
X105066471Y-73348772D01*
X105066468Y-73348770D01*
X105061579Y-73346834D01*
X105041578Y-73336775D01*
X105029812Y-73329480D01*
X104990181Y-73317966D01*
X104978957Y-73314122D01*
X104948578Y-73302095D01*
X104948575Y-73302094D01*
X104940590Y-73298933D01*
X104932053Y-73298036D01*
X104932046Y-73298034D01*
X104926823Y-73297485D01*
X104904846Y-73293174D01*
X104897884Y-73291151D01*
X104897882Y-73291151D01*
X104891550Y-73289311D01*
X104884735Y-73288811D01*
X104883658Y-73288731D01*
X104883645Y-73288731D01*
X104881350Y-73288562D01*
X104848523Y-73288562D01*
X104835352Y-73287872D01*
X104797400Y-73283883D01*
X104788934Y-73285315D01*
X104788931Y-73285315D01*
X104780164Y-73286798D01*
X104759152Y-73288562D01*
X104276499Y-73288562D01*
X104208378Y-73268560D01*
X104161885Y-73214904D01*
X104150499Y-73162562D01*
X104150499Y-72157544D01*
X104149724Y-72152650D01*
X104137198Y-72073556D01*
X104137197Y-72073554D01*
X104135646Y-72063758D01*
X104130746Y-72054140D01*
X104118028Y-72029181D01*
X104078050Y-71950720D01*
X103988342Y-71861012D01*
X103875304Y-71803416D01*
X103865515Y-71801866D01*
X103865513Y-71801865D01*
X103838151Y-71797532D01*
X103781519Y-71788562D01*
X103250108Y-71788562D01*
X102718482Y-71788563D01*
X102713589Y-71789338D01*
X102713588Y-71789338D01*
X102634494Y-71801864D01*
X102634492Y-71801865D01*
X102624696Y-71803416D01*
X102615859Y-71807919D01*
X102615858Y-71807919D01*
X102595542Y-71818271D01*
X102511658Y-71861012D01*
X102421950Y-71950720D01*
X102421737Y-71950507D01*
X102370711Y-71989852D01*
X102299975Y-71995926D01*
X102237184Y-71962793D01*
X102229945Y-71954438D01*
X102228050Y-71950720D01*
X102138342Y-71861012D01*
X102025304Y-71803416D01*
X102015515Y-71801866D01*
X102015513Y-71801865D01*
X101988151Y-71797532D01*
X101931519Y-71788562D01*
X101250138Y-71788562D01*
X100568482Y-71788563D01*
X100563589Y-71789338D01*
X100563588Y-71789338D01*
X100484494Y-71801864D01*
X100484492Y-71801865D01*
X100474696Y-71803416D01*
X100465859Y-71807919D01*
X100465858Y-71807919D01*
X100445542Y-71818271D01*
X100361658Y-71861012D01*
X100271950Y-71950720D01*
X100214354Y-72063758D01*
X100199500Y-72157543D01*
X90400500Y-72157543D01*
X90400500Y-67839744D01*
X92233319Y-67839744D01*
X92233676Y-67846561D01*
X92233676Y-67846565D01*
X92241802Y-68001611D01*
X92242990Y-68024281D01*
X92244801Y-68030854D01*
X92244801Y-68030857D01*
X92270430Y-68123902D01*
X92292062Y-68202436D01*
X92378246Y-68365898D01*
X92497520Y-68507040D01*
X92502944Y-68511187D01*
X92502945Y-68511188D01*
X92638899Y-68615133D01*
X92638903Y-68615136D01*
X92644320Y-68619277D01*
X92650500Y-68622159D01*
X92650502Y-68622160D01*
X92805620Y-68694493D01*
X92805623Y-68694494D01*
X92811797Y-68697373D01*
X92818442Y-68698858D01*
X92818447Y-68698860D01*
X92926707Y-68723058D01*
X92992137Y-68737683D01*
X92997807Y-68738000D01*
X93133664Y-68738000D01*
X93271209Y-68723058D01*
X93446348Y-68664117D01*
X93604744Y-68568943D01*
X93665818Y-68511188D01*
X93734049Y-68446665D01*
X93734051Y-68446663D01*
X93739007Y-68441976D01*
X93842875Y-68289140D01*
X93860389Y-68245353D01*
X93908966Y-68123902D01*
X93908967Y-68123897D01*
X93911500Y-68117565D01*
X93941681Y-67935256D01*
X93936323Y-67833006D01*
X93932367Y-67757532D01*
X93932010Y-67750719D01*
X93906316Y-67657435D01*
X93884751Y-67579146D01*
X93882938Y-67572564D01*
X93796754Y-67409102D01*
X93677480Y-67267960D01*
X93672055Y-67263812D01*
X93536101Y-67159867D01*
X93536097Y-67159864D01*
X93530680Y-67155723D01*
X93524500Y-67152841D01*
X93524498Y-67152840D01*
X93369380Y-67080507D01*
X93369377Y-67080506D01*
X93363203Y-67077627D01*
X93356558Y-67076142D01*
X93356553Y-67076140D01*
X93216629Y-67044865D01*
X93182863Y-67037317D01*
X93177193Y-67037000D01*
X93041336Y-67037000D01*
X92903791Y-67051942D01*
X92728652Y-67110883D01*
X92570256Y-67206057D01*
X92565296Y-67210748D01*
X92565294Y-67210749D01*
X92504796Y-67267960D01*
X92435993Y-67333024D01*
X92332125Y-67485860D01*
X92329592Y-67492194D01*
X92329590Y-67492197D01*
X92266034Y-67651098D01*
X92266033Y-67651103D01*
X92263500Y-67657435D01*
X92233319Y-67839744D01*
X90400500Y-67839744D01*
X90400500Y-64839744D01*
X92233319Y-64839744D01*
X92233676Y-64846561D01*
X92233676Y-64846565D01*
X92241802Y-65001611D01*
X92242990Y-65024281D01*
X92244801Y-65030854D01*
X92244801Y-65030857D01*
X92270430Y-65123902D01*
X92292062Y-65202436D01*
X92378246Y-65365898D01*
X92497520Y-65507040D01*
X92502944Y-65511187D01*
X92502945Y-65511188D01*
X92638899Y-65615133D01*
X92638903Y-65615136D01*
X92644320Y-65619277D01*
X92650500Y-65622159D01*
X92650502Y-65622160D01*
X92805620Y-65694493D01*
X92805623Y-65694494D01*
X92811797Y-65697373D01*
X92818442Y-65698858D01*
X92818447Y-65698860D01*
X92930004Y-65723795D01*
X92992137Y-65737683D01*
X92997807Y-65738000D01*
X93133664Y-65738000D01*
X93271209Y-65723058D01*
X93446348Y-65664117D01*
X93604744Y-65568943D01*
X93665818Y-65511188D01*
X93734049Y-65446665D01*
X93734051Y-65446663D01*
X93739007Y-65441976D01*
X93842875Y-65289140D01*
X93875139Y-65208475D01*
X93908966Y-65123902D01*
X93908967Y-65123897D01*
X93911500Y-65117565D01*
X93941681Y-64935256D01*
X93936323Y-64833006D01*
X93932367Y-64757532D01*
X93932010Y-64750719D01*
X93924496Y-64723437D01*
X93923131Y-64718481D01*
X100199500Y-64718481D01*
X100199501Y-68031518D01*
X100214354Y-68125304D01*
X100271950Y-68238342D01*
X100361658Y-68328050D01*
X100474696Y-68385646D01*
X100484485Y-68387196D01*
X100484487Y-68387197D01*
X100511849Y-68391530D01*
X100568481Y-68400500D01*
X101249862Y-68400500D01*
X101931518Y-68400499D01*
X101936412Y-68399724D01*
X102015506Y-68387198D01*
X102015508Y-68387197D01*
X102025304Y-68385646D01*
X102138342Y-68328050D01*
X102228050Y-68238342D01*
X102228263Y-68238555D01*
X102279289Y-68199210D01*
X102350025Y-68193136D01*
X102412816Y-68226269D01*
X102420055Y-68234624D01*
X102421950Y-68238342D01*
X102511658Y-68328050D01*
X102624696Y-68385646D01*
X102634485Y-68387196D01*
X102634487Y-68387197D01*
X102661849Y-68391530D01*
X102718481Y-68400500D01*
X103249892Y-68400500D01*
X103781518Y-68400499D01*
X103786412Y-68399724D01*
X103865506Y-68387198D01*
X103865508Y-68387197D01*
X103875304Y-68385646D01*
X103988342Y-68328050D01*
X104078050Y-68238342D01*
X104135646Y-68125304D01*
X104150500Y-68031519D01*
X104150500Y-67026500D01*
X104170502Y-66958379D01*
X104224158Y-66911886D01*
X104276500Y-66900500D01*
X104348500Y-66900500D01*
X104416621Y-66920502D01*
X104463114Y-66974158D01*
X104474500Y-67026500D01*
X104474500Y-69735565D01*
X104474389Y-69740841D01*
X104471913Y-69799919D01*
X104481337Y-69840097D01*
X104483500Y-69851770D01*
X104489099Y-69892646D01*
X104492510Y-69900527D01*
X104492510Y-69900529D01*
X104494595Y-69905347D01*
X104501627Y-69926610D01*
X104502828Y-69931729D01*
X104504790Y-69940093D01*
X104524681Y-69976275D01*
X104529888Y-69986905D01*
X104546280Y-70024783D01*
X104551686Y-70031459D01*
X104551687Y-70031461D01*
X104554992Y-70035542D01*
X104567480Y-70054126D01*
X104574153Y-70066263D01*
X104580836Y-70074005D01*
X104604040Y-70097209D01*
X104612865Y-70107009D01*
X104636888Y-70136675D01*
X104643888Y-70141650D01*
X104643896Y-70141657D01*
X104651141Y-70146805D01*
X104667247Y-70160416D01*
X104868204Y-70361373D01*
X104871858Y-70365183D01*
X104911884Y-70408712D01*
X104944645Y-70429025D01*
X104946953Y-70430456D01*
X104956732Y-70437177D01*
X104989604Y-70462127D01*
X105002474Y-70467222D01*
X105022482Y-70477286D01*
X105034250Y-70484582D01*
X105042493Y-70486977D01*
X105042500Y-70486980D01*
X105073893Y-70496101D01*
X105085120Y-70499945D01*
X105115487Y-70511968D01*
X105115489Y-70511969D01*
X105123472Y-70515129D01*
X105132009Y-70516026D01*
X105132016Y-70516028D01*
X105137239Y-70516577D01*
X105159216Y-70520888D01*
X105166178Y-70522911D01*
X105166180Y-70522911D01*
X105172512Y-70524751D01*
X105179327Y-70525251D01*
X105180404Y-70525331D01*
X105180417Y-70525331D01*
X105182712Y-70525500D01*
X105215538Y-70525500D01*
X105228709Y-70526190D01*
X105266661Y-70530179D01*
X105275127Y-70528747D01*
X105275130Y-70528747D01*
X105283897Y-70527264D01*
X105304909Y-70525500D01*
X144235565Y-70525500D01*
X144240842Y-70525611D01*
X144299919Y-70528087D01*
X144340105Y-70518662D01*
X144351771Y-70516500D01*
X144384136Y-70512067D01*
X144384138Y-70512066D01*
X144392646Y-70510901D01*
X144400527Y-70507490D01*
X144400529Y-70507490D01*
X144405347Y-70505405D01*
X144426610Y-70498373D01*
X144431729Y-70497172D01*
X144431731Y-70497171D01*
X144440093Y-70495210D01*
X144476275Y-70475319D01*
X144486905Y-70470112D01*
X144524783Y-70453720D01*
X144531459Y-70448314D01*
X144531461Y-70448313D01*
X144535542Y-70445008D01*
X144554126Y-70432520D01*
X144566263Y-70425847D01*
X144574005Y-70419164D01*
X144597209Y-70395960D01*
X144607010Y-70387134D01*
X144629999Y-70368518D01*
X144636675Y-70363112D01*
X144646806Y-70348856D01*
X144660413Y-70332756D01*
X144901478Y-70091691D01*
X144963790Y-70057665D01*
X144983166Y-70055786D01*
X144983130Y-70055388D01*
X145154960Y-70039751D01*
X145154961Y-70039751D01*
X145161981Y-70039112D01*
X145332782Y-69983615D01*
X145345119Y-69976261D01*
X145480992Y-69895265D01*
X145480994Y-69895264D01*
X145487044Y-69891657D01*
X145617099Y-69767807D01*
X145636775Y-69738193D01*
X145712582Y-69624093D01*
X145716483Y-69618222D01*
X145731168Y-69579564D01*
X145777757Y-69456919D01*
X145777758Y-69456914D01*
X145780257Y-69450336D01*
X145794569Y-69348500D01*
X145804700Y-69276416D01*
X145804700Y-69276411D01*
X145805251Y-69272493D01*
X145805565Y-69250000D01*
X145785546Y-69071528D01*
X145779427Y-69053955D01*
X145728803Y-68908584D01*
X145726485Y-68901927D01*
X145631316Y-68749625D01*
X145567771Y-68685635D01*
X145509733Y-68627190D01*
X145509729Y-68627187D01*
X145504770Y-68622193D01*
X145493761Y-68615206D01*
X145426402Y-68572459D01*
X145353136Y-68525963D01*
X145299994Y-68507040D01*
X145190586Y-68468081D01*
X145190581Y-68468080D01*
X145183951Y-68465719D01*
X145176965Y-68464886D01*
X145176961Y-68464885D01*
X145049177Y-68449648D01*
X145005624Y-68444455D01*
X144998621Y-68445191D01*
X144998620Y-68445191D01*
X144834025Y-68462490D01*
X144834021Y-68462491D01*
X144827017Y-68463227D01*
X144820346Y-68465498D01*
X144663677Y-68518832D01*
X144663674Y-68518833D01*
X144657007Y-68521103D01*
X144651009Y-68524793D01*
X144651007Y-68524794D01*
X144586871Y-68564251D01*
X144504045Y-68615206D01*
X144499014Y-68620132D01*
X144499011Y-68620135D01*
X144451875Y-68666294D01*
X144375732Y-68740859D01*
X144371913Y-68746784D01*
X144371912Y-68746786D01*
X144282265Y-68885891D01*
X144278446Y-68891817D01*
X144217022Y-69060578D01*
X144194514Y-69238753D01*
X144195201Y-69245760D01*
X144195201Y-69245762D01*
X144195271Y-69246473D01*
X144195185Y-69246925D01*
X144195103Y-69252807D01*
X144194070Y-69252793D01*
X144182012Y-69316220D01*
X144158967Y-69347864D01*
X144069236Y-69437595D01*
X144006924Y-69471621D01*
X143980141Y-69474500D01*
X105651500Y-69474500D01*
X105583379Y-69454498D01*
X105536886Y-69400842D01*
X105525500Y-69348500D01*
X105525500Y-66514435D01*
X105525611Y-66509159D01*
X105527727Y-66458666D01*
X105528087Y-66450081D01*
X105518662Y-66409895D01*
X105516500Y-66398229D01*
X105512067Y-66365864D01*
X105512066Y-66365862D01*
X105510901Y-66357354D01*
X105505405Y-66344653D01*
X105498373Y-66323390D01*
X105497173Y-66318274D01*
X105497172Y-66318270D01*
X105495210Y-66309907D01*
X105491072Y-66302380D01*
X105491070Y-66302375D01*
X105475328Y-66273741D01*
X105470105Y-66263081D01*
X105457131Y-66233100D01*
X105453720Y-66225217D01*
X105445008Y-66214458D01*
X105432515Y-66195867D01*
X105429029Y-66189525D01*
X105429026Y-66189521D01*
X105425847Y-66183738D01*
X105419165Y-66175995D01*
X105395952Y-66152782D01*
X105387127Y-66142981D01*
X105368523Y-66120007D01*
X105363112Y-66113325D01*
X105348863Y-66103199D01*
X105332756Y-66089587D01*
X105256816Y-66013647D01*
X105253162Y-66009838D01*
X105218929Y-65972610D01*
X105213116Y-65966288D01*
X105178044Y-65944542D01*
X105168262Y-65937819D01*
X105142240Y-65918067D01*
X105135396Y-65912872D01*
X105127409Y-65909710D01*
X105127406Y-65909708D01*
X105122517Y-65907772D01*
X105102516Y-65897713D01*
X105090750Y-65890418D01*
X105051119Y-65878904D01*
X105039895Y-65875060D01*
X105009516Y-65863033D01*
X105009513Y-65863032D01*
X105001528Y-65859871D01*
X104992991Y-65858974D01*
X104992984Y-65858972D01*
X104987761Y-65858423D01*
X104965784Y-65854112D01*
X104958822Y-65852089D01*
X104958820Y-65852089D01*
X104952488Y-65850249D01*
X104945673Y-65849749D01*
X104944596Y-65849669D01*
X104944583Y-65849669D01*
X104942288Y-65849500D01*
X104909461Y-65849500D01*
X104896290Y-65848810D01*
X104858338Y-65844821D01*
X104849872Y-65846253D01*
X104849869Y-65846253D01*
X104841102Y-65847736D01*
X104820090Y-65849500D01*
X104276499Y-65849500D01*
X104208378Y-65829498D01*
X104161885Y-65775842D01*
X104150499Y-65723500D01*
X104150499Y-64718482D01*
X104140831Y-64657435D01*
X104137198Y-64634494D01*
X104137197Y-64634492D01*
X104135646Y-64624696D01*
X104078050Y-64511658D01*
X103988342Y-64421950D01*
X103875304Y-64364354D01*
X103865515Y-64362804D01*
X103865513Y-64362803D01*
X103838151Y-64358470D01*
X103781519Y-64349500D01*
X103250108Y-64349500D01*
X102718482Y-64349501D01*
X102713589Y-64350276D01*
X102713588Y-64350276D01*
X102634494Y-64362802D01*
X102634492Y-64362803D01*
X102624696Y-64364354D01*
X102511658Y-64421950D01*
X102421950Y-64511658D01*
X102421737Y-64511445D01*
X102370711Y-64550790D01*
X102299975Y-64556864D01*
X102237184Y-64523731D01*
X102229945Y-64515376D01*
X102228050Y-64511658D01*
X102138342Y-64421950D01*
X102025304Y-64364354D01*
X102015515Y-64362804D01*
X102015513Y-64362803D01*
X101988151Y-64358470D01*
X101931519Y-64349500D01*
X101250138Y-64349500D01*
X100568482Y-64349501D01*
X100563589Y-64350276D01*
X100563588Y-64350276D01*
X100484494Y-64362802D01*
X100484492Y-64362803D01*
X100474696Y-64364354D01*
X100361658Y-64421950D01*
X100271950Y-64511658D01*
X100214354Y-64624696D01*
X100199500Y-64718481D01*
X93923131Y-64718481D01*
X93884751Y-64579146D01*
X93882938Y-64572564D01*
X93796754Y-64409102D01*
X93677480Y-64267960D01*
X93672055Y-64263812D01*
X93536101Y-64159867D01*
X93536097Y-64159864D01*
X93530680Y-64155723D01*
X93524500Y-64152841D01*
X93524498Y-64152840D01*
X93369380Y-64080507D01*
X93369377Y-64080506D01*
X93363203Y-64077627D01*
X93356558Y-64076142D01*
X93356553Y-64076140D01*
X93216629Y-64044865D01*
X93182863Y-64037317D01*
X93177193Y-64037000D01*
X93041336Y-64037000D01*
X92903791Y-64051942D01*
X92728652Y-64110883D01*
X92570256Y-64206057D01*
X92565296Y-64210748D01*
X92565294Y-64210749D01*
X92504796Y-64267960D01*
X92435993Y-64333024D01*
X92332125Y-64485860D01*
X92329592Y-64492194D01*
X92329590Y-64492197D01*
X92266034Y-64651098D01*
X92266033Y-64651103D01*
X92263500Y-64657435D01*
X92233319Y-64839744D01*
X90400500Y-64839744D01*
X90400500Y-62210665D01*
X149000119Y-62210665D01*
X149000416Y-62215817D01*
X149000416Y-62215821D01*
X149005864Y-62310296D01*
X149013376Y-62440580D01*
X149014513Y-62445626D01*
X149014514Y-62445632D01*
X149036226Y-62541975D01*
X149064006Y-62665242D01*
X149065948Y-62670024D01*
X149065949Y-62670028D01*
X149103427Y-62762325D01*
X149150649Y-62878618D01*
X149270979Y-63074978D01*
X149421763Y-63249048D01*
X149598953Y-63396154D01*
X149797790Y-63512345D01*
X150012934Y-63594501D01*
X150018000Y-63595532D01*
X150018001Y-63595532D01*
X150118697Y-63616018D01*
X150238607Y-63640414D01*
X150368352Y-63645172D01*
X150463585Y-63648664D01*
X150463589Y-63648664D01*
X150468749Y-63648853D01*
X150473869Y-63648197D01*
X150473871Y-63648197D01*
X150543272Y-63639307D01*
X150697178Y-63619591D01*
X150702126Y-63618106D01*
X150702133Y-63618105D01*
X150912811Y-63554898D01*
X150912810Y-63554898D01*
X150917761Y-63553413D01*
X151124574Y-63452096D01*
X151312062Y-63318363D01*
X151475190Y-63155803D01*
X151533269Y-63074978D01*
X151606559Y-62972983D01*
X151609577Y-62968783D01*
X151711615Y-62762325D01*
X151742643Y-62660200D01*
X151777059Y-62546927D01*
X151777060Y-62546921D01*
X151778563Y-62541975D01*
X151808622Y-62313649D01*
X151810300Y-62245000D01*
X151791430Y-62015478D01*
X151735326Y-61792120D01*
X151643496Y-61580924D01*
X151518405Y-61387563D01*
X151497774Y-61364889D01*
X151366890Y-61221051D01*
X151366889Y-61221050D01*
X151363412Y-61217229D01*
X151359361Y-61214030D01*
X151359357Y-61214026D01*
X151186735Y-61077697D01*
X151186730Y-61077693D01*
X151182681Y-61074496D01*
X151178165Y-61072003D01*
X151178162Y-61072001D01*
X150985589Y-60965695D01*
X150985585Y-60965693D01*
X150981065Y-60963198D01*
X150976196Y-60961474D01*
X150976192Y-60961472D01*
X150768853Y-60888049D01*
X150768849Y-60888048D01*
X150763978Y-60886323D01*
X150758885Y-60885416D01*
X150758882Y-60885415D01*
X150662707Y-60868284D01*
X150537250Y-60845937D01*
X150450802Y-60844881D01*
X150312141Y-60843186D01*
X150312139Y-60843186D01*
X150306971Y-60843123D01*
X150079325Y-60877958D01*
X149860424Y-60949506D01*
X149656149Y-61055845D01*
X149471984Y-61194119D01*
X149312877Y-61360616D01*
X149183099Y-61550863D01*
X149180923Y-61555552D01*
X149180919Y-61555558D01*
X149169145Y-61580924D01*
X149086136Y-61759752D01*
X149024592Y-61981673D01*
X149000119Y-62210665D01*
X90400500Y-62210665D01*
X90400500Y-57988753D01*
X138194514Y-57988753D01*
X138195201Y-57995760D01*
X138195201Y-57995763D01*
X138196005Y-58003963D01*
X138212039Y-58167486D01*
X138214262Y-58174168D01*
X138214262Y-58174169D01*
X138222967Y-58200336D01*
X138268726Y-58337896D01*
X138361759Y-58491512D01*
X138486514Y-58620699D01*
X138636789Y-58719036D01*
X138805116Y-58781636D01*
X138812097Y-58782567D01*
X138812099Y-58782568D01*
X138976149Y-58804457D01*
X138976153Y-58804457D01*
X138983130Y-58805388D01*
X138990142Y-58804750D01*
X138990146Y-58804750D01*
X139154960Y-58789751D01*
X139154961Y-58789751D01*
X139161981Y-58789112D01*
X139332782Y-58733615D01*
X139363714Y-58715176D01*
X139480992Y-58645265D01*
X139480994Y-58645264D01*
X139487044Y-58641657D01*
X139617099Y-58517807D01*
X139634570Y-58491512D01*
X139712582Y-58374093D01*
X139716483Y-58368222D01*
X139731168Y-58329564D01*
X139777757Y-58206919D01*
X139777758Y-58206914D01*
X139780257Y-58200336D01*
X139805251Y-58022493D01*
X139805565Y-58000000D01*
X139785546Y-57821528D01*
X139779427Y-57803955D01*
X139728803Y-57658584D01*
X139726485Y-57651927D01*
X139673646Y-57567367D01*
X139654500Y-57500597D01*
X139654500Y-54499555D01*
X139675552Y-54429828D01*
X139712582Y-54374093D01*
X139716483Y-54368222D01*
X139731168Y-54329564D01*
X139777757Y-54206919D01*
X139777758Y-54206914D01*
X139780257Y-54200336D01*
X139805251Y-54022493D01*
X139805565Y-54000000D01*
X139785546Y-53821528D01*
X139779427Y-53803955D01*
X139728803Y-53658584D01*
X139726485Y-53651927D01*
X139631316Y-53499625D01*
X139567771Y-53435635D01*
X139509733Y-53377190D01*
X139509729Y-53377187D01*
X139504770Y-53372193D01*
X139493761Y-53365206D01*
X139446860Y-53335442D01*
X139353136Y-53275963D01*
X139323352Y-53265357D01*
X139190586Y-53218081D01*
X139190581Y-53218080D01*
X139183951Y-53215719D01*
X139176965Y-53214886D01*
X139176961Y-53214885D01*
X139049177Y-53199648D01*
X139005624Y-53194455D01*
X138998621Y-53195191D01*
X138998620Y-53195191D01*
X138834025Y-53212490D01*
X138834021Y-53212491D01*
X138827017Y-53213227D01*
X138820346Y-53215498D01*
X138663677Y-53268832D01*
X138663674Y-53268833D01*
X138657007Y-53271103D01*
X138651009Y-53274793D01*
X138651007Y-53274794D01*
X138580526Y-53318155D01*
X138504045Y-53365206D01*
X138499014Y-53370132D01*
X138499011Y-53370135D01*
X138491807Y-53377190D01*
X138375732Y-53490859D01*
X138371913Y-53496784D01*
X138371912Y-53496786D01*
X138282265Y-53635891D01*
X138278446Y-53641817D01*
X138217022Y-53810578D01*
X138194514Y-53988753D01*
X138195201Y-53995760D01*
X138195201Y-53995763D01*
X138196005Y-54003963D01*
X138212039Y-54167486D01*
X138214262Y-54174168D01*
X138214262Y-54174169D01*
X138222967Y-54200336D01*
X138268726Y-54337896D01*
X138272373Y-54343918D01*
X138327276Y-54434574D01*
X138345500Y-54499845D01*
X138345500Y-57500687D01*
X138325412Y-57568941D01*
X138278446Y-57641817D01*
X138217022Y-57810578D01*
X138194514Y-57988753D01*
X90400500Y-57988753D01*
X90400500Y-50218083D01*
X90420502Y-50149962D01*
X90437405Y-50128988D01*
X95128988Y-45437405D01*
X95191300Y-45403379D01*
X95218083Y-45400500D01*
X164781917Y-45400500D01*
X164850038Y-45420502D01*
G37*
%TD.AperFunction*%
%TD*%
M02*
