%TF.GenerationSoftware,KiCad,Pcbnew,(6.0.6)*%
%TF.CreationDate,2022-11-03T15:56:01+01:00*%
%TF.ProjectId,Wasbeer-communicator,57617362-6565-4722-9d63-6f6d6d756e69,rev?*%
%TF.SameCoordinates,Original*%
%TF.FileFunction,Legend,Bot*%
%TF.FilePolarity,Positive*%
%FSLAX46Y46*%
G04 Gerber Fmt 4.6, Leading zero omitted, Abs format (unit mm)*
G04 Created by KiCad (PCBNEW (6.0.6)) date 2022-11-03 15:56:01*
%MOMM*%
%LPD*%
G01*
G04 APERTURE LIST*
%ADD10C,0.150000*%
%ADD11C,1.000000*%
%ADD12C,0.127000*%
%ADD13C,0.300000*%
%ADD14C,0.120000*%
G04 APERTURE END LIST*
D10*
%TO.C,SW2*%
X90182738Y-71870833D02*
X90135119Y-71727976D01*
X90135119Y-71489880D01*
X90182738Y-71394642D01*
X90230357Y-71347023D01*
X90325595Y-71299404D01*
X90420833Y-71299404D01*
X90516071Y-71347023D01*
X90563690Y-71394642D01*
X90611309Y-71489880D01*
X90658928Y-71680357D01*
X90706547Y-71775595D01*
X90754166Y-71823214D01*
X90849404Y-71870833D01*
X90944642Y-71870833D01*
X91039880Y-71823214D01*
X91087500Y-71775595D01*
X91135119Y-71680357D01*
X91135119Y-71442261D01*
X91087500Y-71299404D01*
X91135119Y-70966071D02*
X90135119Y-70727976D01*
X90849404Y-70537500D01*
X90135119Y-70347023D01*
X91135119Y-70108928D01*
X91039880Y-69775595D02*
X91087500Y-69727976D01*
X91135119Y-69632738D01*
X91135119Y-69394642D01*
X91087500Y-69299404D01*
X91039880Y-69251785D01*
X90944642Y-69204166D01*
X90849404Y-69204166D01*
X90706547Y-69251785D01*
X90135119Y-69823214D01*
X90135119Y-69204166D01*
%TO.C,IC1*%
X116771190Y-82517380D02*
X116771190Y-81517380D01*
X115723571Y-82422142D02*
X115771190Y-82469761D01*
X115914047Y-82517380D01*
X116009285Y-82517380D01*
X116152142Y-82469761D01*
X116247380Y-82374523D01*
X116295000Y-82279285D01*
X116342619Y-82088809D01*
X116342619Y-81945952D01*
X116295000Y-81755476D01*
X116247380Y-81660238D01*
X116152142Y-81565000D01*
X116009285Y-81517380D01*
X115914047Y-81517380D01*
X115771190Y-81565000D01*
X115723571Y-81612619D01*
X114771190Y-82517380D02*
X115342619Y-82517380D01*
X115056904Y-82517380D02*
X115056904Y-81517380D01*
X115152142Y-81660238D01*
X115247380Y-81755476D01*
X115342619Y-81803095D01*
X112754285Y-66118571D02*
X112420952Y-66118571D01*
X112278095Y-66642380D02*
X112754285Y-66642380D01*
X112754285Y-65642380D01*
X112278095Y-65642380D01*
X111897142Y-65737619D02*
X111849523Y-65690000D01*
X111754285Y-65642380D01*
X111516190Y-65642380D01*
X111420952Y-65690000D01*
X111373333Y-65737619D01*
X111325714Y-65832857D01*
X111325714Y-65928095D01*
X111373333Y-66070952D01*
X111944761Y-66642380D01*
X111325714Y-66642380D01*
X110944761Y-65737619D02*
X110897142Y-65690000D01*
X110801904Y-65642380D01*
X110563809Y-65642380D01*
X110468571Y-65690000D01*
X110420952Y-65737619D01*
X110373333Y-65832857D01*
X110373333Y-65928095D01*
X110420952Y-66070952D01*
X110992380Y-66642380D01*
X110373333Y-66642380D01*
X109944761Y-66261428D02*
X109182857Y-66261428D01*
X108659047Y-66642380D02*
X108468571Y-66642380D01*
X108373333Y-66594761D01*
X108325714Y-66547142D01*
X108230476Y-66404285D01*
X108182857Y-66213809D01*
X108182857Y-65832857D01*
X108230476Y-65737619D01*
X108278095Y-65690000D01*
X108373333Y-65642380D01*
X108563809Y-65642380D01*
X108659047Y-65690000D01*
X108706666Y-65737619D01*
X108754285Y-65832857D01*
X108754285Y-66070952D01*
X108706666Y-66166190D01*
X108659047Y-66213809D01*
X108563809Y-66261428D01*
X108373333Y-66261428D01*
X108278095Y-66213809D01*
X108230476Y-66166190D01*
X108182857Y-66070952D01*
X107563809Y-65642380D02*
X107468571Y-65642380D01*
X107373333Y-65690000D01*
X107325714Y-65737619D01*
X107278095Y-65832857D01*
X107230476Y-66023333D01*
X107230476Y-66261428D01*
X107278095Y-66451904D01*
X107325714Y-66547142D01*
X107373333Y-66594761D01*
X107468571Y-66642380D01*
X107563809Y-66642380D01*
X107659047Y-66594761D01*
X107706666Y-66547142D01*
X107754285Y-66451904D01*
X107801904Y-66261428D01*
X107801904Y-66023333D01*
X107754285Y-65832857D01*
X107706666Y-65737619D01*
X107659047Y-65690000D01*
X107563809Y-65642380D01*
X106611428Y-65642380D02*
X106516190Y-65642380D01*
X106420952Y-65690000D01*
X106373333Y-65737619D01*
X106325714Y-65832857D01*
X106278095Y-66023333D01*
X106278095Y-66261428D01*
X106325714Y-66451904D01*
X106373333Y-66547142D01*
X106420952Y-66594761D01*
X106516190Y-66642380D01*
X106611428Y-66642380D01*
X106706666Y-66594761D01*
X106754285Y-66547142D01*
X106801904Y-66451904D01*
X106849523Y-66261428D01*
X106849523Y-66023333D01*
X106801904Y-65832857D01*
X106754285Y-65737619D01*
X106706666Y-65690000D01*
X106611428Y-65642380D01*
X105849523Y-66642380D02*
X105849523Y-65642380D01*
X105516190Y-66356666D01*
X105182857Y-65642380D01*
X105182857Y-66642380D01*
X104754285Y-65737619D02*
X104706666Y-65690000D01*
X104611428Y-65642380D01*
X104373333Y-65642380D01*
X104278095Y-65690000D01*
X104230476Y-65737619D01*
X104182857Y-65832857D01*
X104182857Y-65928095D01*
X104230476Y-66070952D01*
X104801904Y-66642380D01*
X104182857Y-66642380D01*
X103801904Y-65737619D02*
X103754285Y-65690000D01*
X103659047Y-65642380D01*
X103420952Y-65642380D01*
X103325714Y-65690000D01*
X103278095Y-65737619D01*
X103230476Y-65832857D01*
X103230476Y-65928095D01*
X103278095Y-66070952D01*
X103849523Y-66642380D01*
X103230476Y-66642380D01*
X102849523Y-66594761D02*
X102706666Y-66642380D01*
X102468571Y-66642380D01*
X102373333Y-66594761D01*
X102325714Y-66547142D01*
X102278095Y-66451904D01*
X102278095Y-66356666D01*
X102325714Y-66261428D01*
X102373333Y-66213809D01*
X102468571Y-66166190D01*
X102659047Y-66118571D01*
X102754285Y-66070952D01*
X102801904Y-66023333D01*
X102849523Y-65928095D01*
X102849523Y-65832857D01*
X102801904Y-65737619D01*
X102754285Y-65690000D01*
X102659047Y-65642380D01*
X102420952Y-65642380D01*
X102278095Y-65690000D01*
X105134761Y-70404761D02*
X105230000Y-70452380D01*
X105420476Y-70452380D01*
X105515714Y-70404761D01*
X105563333Y-70309523D01*
X105563333Y-69928571D01*
X105515714Y-69833333D01*
X105420476Y-69785714D01*
X105230000Y-69785714D01*
X105134761Y-69833333D01*
X105087142Y-69928571D01*
X105087142Y-70023809D01*
X105563333Y-70119047D01*
X104325238Y-69928571D02*
X104182380Y-69976190D01*
X104134761Y-70023809D01*
X104087142Y-70119047D01*
X104087142Y-70261904D01*
X104134761Y-70357142D01*
X104182380Y-70404761D01*
X104277619Y-70452380D01*
X104658571Y-70452380D01*
X104658571Y-69452380D01*
X104325238Y-69452380D01*
X104230000Y-69500000D01*
X104182380Y-69547619D01*
X104134761Y-69642857D01*
X104134761Y-69738095D01*
X104182380Y-69833333D01*
X104230000Y-69880952D01*
X104325238Y-69928571D01*
X104658571Y-69928571D01*
X103753809Y-69785714D02*
X103515714Y-70452380D01*
X103277619Y-69785714D02*
X103515714Y-70452380D01*
X103610952Y-70690476D01*
X103658571Y-70738095D01*
X103753809Y-70785714D01*
X103039523Y-69785714D02*
X102658571Y-69785714D01*
X102896666Y-69452380D02*
X102896666Y-70309523D01*
X102849047Y-70404761D01*
X102753809Y-70452380D01*
X102658571Y-70452380D01*
X101944285Y-70404761D02*
X102039523Y-70452380D01*
X102230000Y-70452380D01*
X102325238Y-70404761D01*
X102372857Y-70309523D01*
X102372857Y-69928571D01*
X102325238Y-69833333D01*
X102230000Y-69785714D01*
X102039523Y-69785714D01*
X101944285Y-69833333D01*
X101896666Y-69928571D01*
X101896666Y-70023809D01*
X102372857Y-70119047D01*
%TO.C,BT1*%
X169630952Y-113321428D02*
X168869047Y-113321428D01*
X90880952Y-113321428D02*
X90119047Y-113321428D01*
X90500000Y-113702380D02*
X90500000Y-112940476D01*
D11*
X166773809Y-115035714D02*
X163726190Y-115035714D01*
X95273809Y-115035714D02*
X92226190Y-115035714D01*
X93750000Y-116559523D02*
X93750000Y-113511904D01*
D10*
%TO.C,U1*%
X152757380Y-74223095D02*
X153566904Y-74223095D01*
X153662142Y-74270714D01*
X153709761Y-74318333D01*
X153757380Y-74413571D01*
X153757380Y-74604047D01*
X153709761Y-74699285D01*
X153662142Y-74746904D01*
X153566904Y-74794523D01*
X152757380Y-74794523D01*
X153757380Y-75794523D02*
X153757380Y-75223095D01*
X153757380Y-75508809D02*
X152757380Y-75508809D01*
X152900238Y-75413571D01*
X152995476Y-75318333D01*
X153043095Y-75223095D01*
X161933571Y-82197380D02*
X161981190Y-82340238D01*
X162028809Y-82387857D01*
X162124047Y-82435476D01*
X162266904Y-82435476D01*
X162362142Y-82387857D01*
X162409761Y-82340238D01*
X162457380Y-82245000D01*
X162457380Y-81864047D01*
X161457380Y-81864047D01*
X161457380Y-82197380D01*
X161505000Y-82292619D01*
X161552619Y-82340238D01*
X161647857Y-82387857D01*
X161743095Y-82387857D01*
X161838333Y-82340238D01*
X161885952Y-82292619D01*
X161933571Y-82197380D01*
X161933571Y-81864047D01*
X162076428Y-82864047D02*
X162076428Y-83625952D01*
X164957380Y-64102142D02*
X163957380Y-64102142D01*
X164957380Y-64578333D02*
X163957380Y-64578333D01*
X164957380Y-65149761D01*
X163957380Y-65149761D01*
X164576428Y-65625952D02*
X164576428Y-66387857D01*
X150957380Y-64102142D02*
X149957380Y-64102142D01*
X150957380Y-64578333D02*
X149957380Y-64578333D01*
X150957380Y-65149761D01*
X149957380Y-65149761D01*
X150576428Y-65625952D02*
X150576428Y-66387857D01*
X150957380Y-66006904D02*
X150195476Y-66006904D01*
X152933571Y-82197380D02*
X152981190Y-82340238D01*
X153028809Y-82387857D01*
X153124047Y-82435476D01*
X153266904Y-82435476D01*
X153362142Y-82387857D01*
X153409761Y-82340238D01*
X153457380Y-82245000D01*
X153457380Y-81864047D01*
X152457380Y-81864047D01*
X152457380Y-82197380D01*
X152505000Y-82292619D01*
X152552619Y-82340238D01*
X152647857Y-82387857D01*
X152743095Y-82387857D01*
X152838333Y-82340238D01*
X152885952Y-82292619D01*
X152933571Y-82197380D01*
X152933571Y-81864047D01*
X153076428Y-82864047D02*
X153076428Y-83625952D01*
X153457380Y-83245000D02*
X152695476Y-83245000D01*
X149957380Y-80125952D02*
X149957380Y-80316428D01*
X150005000Y-80411666D01*
X150100238Y-80506904D01*
X150290714Y-80554523D01*
X150624047Y-80554523D01*
X150814523Y-80506904D01*
X150909761Y-80411666D01*
X150957380Y-80316428D01*
X150957380Y-80125952D01*
X150909761Y-80030714D01*
X150814523Y-79935476D01*
X150624047Y-79887857D01*
X150290714Y-79887857D01*
X150100238Y-79935476D01*
X150005000Y-80030714D01*
X149957380Y-80125952D01*
X149957380Y-80983095D02*
X150766904Y-80983095D01*
X150862142Y-81030714D01*
X150909761Y-81078333D01*
X150957380Y-81173571D01*
X150957380Y-81364047D01*
X150909761Y-81459285D01*
X150862142Y-81506904D01*
X150766904Y-81554523D01*
X149957380Y-81554523D01*
X149957380Y-81887857D02*
X149957380Y-82459285D01*
X150957380Y-82173571D02*
X149957380Y-82173571D01*
X150576428Y-82792619D02*
X150576428Y-83554523D01*
X150957380Y-83173571D02*
X150195476Y-83173571D01*
X163957380Y-80125952D02*
X163957380Y-80316428D01*
X164005000Y-80411666D01*
X164100238Y-80506904D01*
X164290714Y-80554523D01*
X164624047Y-80554523D01*
X164814523Y-80506904D01*
X164909761Y-80411666D01*
X164957380Y-80316428D01*
X164957380Y-80125952D01*
X164909761Y-80030714D01*
X164814523Y-79935476D01*
X164624047Y-79887857D01*
X164290714Y-79887857D01*
X164100238Y-79935476D01*
X164005000Y-80030714D01*
X163957380Y-80125952D01*
X163957380Y-80983095D02*
X164766904Y-80983095D01*
X164862142Y-81030714D01*
X164909761Y-81078333D01*
X164957380Y-81173571D01*
X164957380Y-81364047D01*
X164909761Y-81459285D01*
X164862142Y-81506904D01*
X164766904Y-81554523D01*
X163957380Y-81554523D01*
X163957380Y-81887857D02*
X163957380Y-82459285D01*
X164957380Y-82173571D02*
X163957380Y-82173571D01*
X164576428Y-82792619D02*
X164576428Y-83554523D01*
%TO.C,U2*%
X133261904Y-84452380D02*
X133261904Y-85261904D01*
X133214285Y-85357142D01*
X133166666Y-85404761D01*
X133071428Y-85452380D01*
X132880952Y-85452380D01*
X132785714Y-85404761D01*
X132738095Y-85357142D01*
X132690476Y-85261904D01*
X132690476Y-84452380D01*
X132261904Y-84547619D02*
X132214285Y-84500000D01*
X132119047Y-84452380D01*
X131880952Y-84452380D01*
X131785714Y-84500000D01*
X131738095Y-84547619D01*
X131690476Y-84642857D01*
X131690476Y-84738095D01*
X131738095Y-84880952D01*
X132309523Y-85452380D01*
X131690476Y-85452380D01*
X128595238Y-111523809D02*
X128480952Y-111561904D01*
X128290476Y-111561904D01*
X128214285Y-111523809D01*
X128176190Y-111485714D01*
X128138095Y-111409523D01*
X128138095Y-111333333D01*
X128176190Y-111257142D01*
X128214285Y-111219047D01*
X128290476Y-111180952D01*
X128442857Y-111142857D01*
X128519047Y-111104761D01*
X128557142Y-111066666D01*
X128595238Y-110990476D01*
X128595238Y-110914285D01*
X128557142Y-110838095D01*
X128519047Y-110800000D01*
X128442857Y-110761904D01*
X128252380Y-110761904D01*
X128138095Y-110800000D01*
X127871428Y-110761904D02*
X127680952Y-111561904D01*
X127528571Y-110990476D01*
X127376190Y-111561904D01*
X127185714Y-110761904D01*
X126880952Y-111561904D02*
X126880952Y-110761904D01*
X126690476Y-110761904D01*
X126576190Y-110800000D01*
X126500000Y-110876190D01*
X126461904Y-110952380D01*
X126423809Y-111104761D01*
X126423809Y-111219047D01*
X126461904Y-111371428D01*
X126500000Y-111447619D01*
X126576190Y-111523809D01*
X126690476Y-111561904D01*
X126880952Y-111561904D01*
X126080952Y-111561904D02*
X126080952Y-110761904D01*
X125547619Y-110761904D02*
X125395238Y-110761904D01*
X125319047Y-110800000D01*
X125242857Y-110876190D01*
X125204761Y-111028571D01*
X125204761Y-111295238D01*
X125242857Y-111447619D01*
X125319047Y-111523809D01*
X125395238Y-111561904D01*
X125547619Y-111561904D01*
X125623809Y-111523809D01*
X125700000Y-111447619D01*
X125738095Y-111295238D01*
X125738095Y-111028571D01*
X125700000Y-110876190D01*
X125623809Y-110800000D01*
X125547619Y-110761904D01*
X118489722Y-106199407D02*
X118408910Y-106172470D01*
X118328097Y-106091658D01*
X118274223Y-105983908D01*
X118274223Y-105876158D01*
X118301160Y-105795346D01*
X118381972Y-105660659D01*
X118462784Y-105579847D01*
X118597471Y-105499035D01*
X118678284Y-105472097D01*
X118786033Y-105472097D01*
X118893783Y-105525972D01*
X118947658Y-105579847D01*
X119001532Y-105687597D01*
X119001532Y-105741471D01*
X118812971Y-105930033D01*
X118705221Y-105822284D01*
X119297844Y-105930033D02*
X118732158Y-106495719D01*
X118947658Y-106711218D01*
X119028470Y-106738155D01*
X119082345Y-106738155D01*
X119163157Y-106711218D01*
X119243969Y-106630406D01*
X119270906Y-106549593D01*
X119270906Y-106495719D01*
X119243969Y-106414906D01*
X119028470Y-106199407D01*
X120159841Y-106792030D02*
X119836592Y-106468781D01*
X119998216Y-106630406D02*
X119432531Y-107196091D01*
X119459468Y-107061404D01*
X119459468Y-106953654D01*
X119432531Y-106872842D01*
X119782717Y-107546277D02*
X120159841Y-107923401D01*
X120483089Y-107115279D01*
X117022131Y-66641691D02*
X117372317Y-66991877D01*
X117399255Y-66587816D01*
X117480067Y-66668629D01*
X117560879Y-66695566D01*
X117614754Y-66695566D01*
X117695566Y-66668629D01*
X117830253Y-66533942D01*
X117857190Y-66453129D01*
X117857190Y-66399255D01*
X117830253Y-66318442D01*
X117668629Y-66156818D01*
X117587816Y-66129881D01*
X117533942Y-66129881D01*
X117533942Y-67153502D02*
X118288189Y-66776378D01*
X117911065Y-67530625D01*
X118045752Y-67665312D02*
X118395938Y-68015499D01*
X118422876Y-67611438D01*
X118503688Y-67692250D01*
X118584500Y-67719187D01*
X118638375Y-67719187D01*
X118719187Y-67692250D01*
X118853874Y-67557563D01*
X118880812Y-67476751D01*
X118880812Y-67422876D01*
X118853874Y-67342064D01*
X118692250Y-67180439D01*
X118611438Y-67153502D01*
X118557563Y-67153502D01*
X119123248Y-67503688D02*
X119554247Y-67934687D01*
X119338748Y-68419560D02*
X119527309Y-68608122D01*
X119904433Y-68392622D02*
X119635059Y-68123248D01*
X119069374Y-68688934D01*
X119338748Y-68958308D01*
X120146870Y-68635059D02*
X119581184Y-69200744D01*
X120470118Y-68958308D01*
X119904433Y-69523993D01*
X144586158Y-78501844D02*
X144505346Y-78474906D01*
X144424534Y-78394094D01*
X144370659Y-78286345D01*
X144370659Y-78178595D01*
X144397597Y-78097783D01*
X144478409Y-77963096D01*
X144559221Y-77882284D01*
X144693908Y-77801471D01*
X144774720Y-77774534D01*
X144882470Y-77774534D01*
X144990219Y-77828409D01*
X145044094Y-77882284D01*
X145097969Y-77990033D01*
X145097969Y-78043908D01*
X144909407Y-78232470D01*
X144801658Y-78124720D01*
X145394280Y-78232470D02*
X144828595Y-78798155D01*
X145717529Y-78555719D01*
X145151844Y-79121404D01*
X145986903Y-78825093D02*
X145421218Y-79390778D01*
X145555905Y-79525465D01*
X145663654Y-79579340D01*
X145771404Y-79579340D01*
X145852216Y-79552402D01*
X145986903Y-79471590D01*
X146067715Y-79390778D01*
X146148528Y-79256091D01*
X146175465Y-79175279D01*
X146175465Y-79067529D01*
X146121590Y-78959780D01*
X145986903Y-78825093D01*
X144713096Y-63278781D02*
X144632284Y-63251844D01*
X144551471Y-63171032D01*
X144497597Y-63063282D01*
X144497597Y-62955532D01*
X144524534Y-62874720D01*
X144605346Y-62740033D01*
X144686158Y-62659221D01*
X144820845Y-62578409D01*
X144901658Y-62551471D01*
X145009407Y-62551471D01*
X145117157Y-62605346D01*
X145171032Y-62659221D01*
X145224906Y-62766971D01*
X145224906Y-62820845D01*
X145036345Y-63009407D01*
X144928595Y-62901658D01*
X145521218Y-63009407D02*
X144955532Y-63575093D01*
X145171032Y-63790592D01*
X145251844Y-63817529D01*
X145305719Y-63817529D01*
X145386531Y-63790592D01*
X145467343Y-63709780D01*
X145494280Y-63628967D01*
X145494280Y-63575093D01*
X145467343Y-63494280D01*
X145251844Y-63278781D01*
X146383215Y-63871404D02*
X146059966Y-63548155D01*
X146221590Y-63709780D02*
X145655905Y-64275465D01*
X145682842Y-64140778D01*
X145682842Y-64033028D01*
X145655905Y-63952216D01*
X140009523Y-111523809D02*
X139895238Y-111561904D01*
X139704761Y-111561904D01*
X139628571Y-111523809D01*
X139590476Y-111485714D01*
X139552380Y-111409523D01*
X139552380Y-111333333D01*
X139590476Y-111257142D01*
X139628571Y-111219047D01*
X139704761Y-111180952D01*
X139857142Y-111142857D01*
X139933333Y-111104761D01*
X139971428Y-111066666D01*
X140009523Y-110990476D01*
X140009523Y-110914285D01*
X139971428Y-110838095D01*
X139933333Y-110800000D01*
X139857142Y-110761904D01*
X139666666Y-110761904D01*
X139552380Y-110800000D01*
X139285714Y-110761904D02*
X139095238Y-111561904D01*
X138942857Y-110990476D01*
X138790476Y-111561904D01*
X138600000Y-110761904D01*
X137838095Y-111485714D02*
X137876190Y-111523809D01*
X137990476Y-111561904D01*
X138066666Y-111561904D01*
X138180952Y-111523809D01*
X138257142Y-111447619D01*
X138295238Y-111371428D01*
X138333333Y-111219047D01*
X138333333Y-111104761D01*
X138295238Y-110952380D01*
X138257142Y-110876190D01*
X138180952Y-110800000D01*
X138066666Y-110761904D01*
X137990476Y-110761904D01*
X137876190Y-110800000D01*
X137838095Y-110838095D01*
X137114285Y-111561904D02*
X137495238Y-111561904D01*
X137495238Y-110761904D01*
X136847619Y-111561904D02*
X136847619Y-110761904D01*
X136390476Y-111561904D02*
X136733333Y-111104761D01*
X136390476Y-110761904D02*
X136847619Y-111219047D01*
X118489722Y-96039407D02*
X118408910Y-96012470D01*
X118328097Y-95931658D01*
X118274223Y-95823908D01*
X118274223Y-95716158D01*
X118301160Y-95635346D01*
X118381972Y-95500659D01*
X118462784Y-95419847D01*
X118597471Y-95339035D01*
X118678284Y-95312097D01*
X118786033Y-95312097D01*
X118893783Y-95365972D01*
X118947658Y-95419847D01*
X119001532Y-95527597D01*
X119001532Y-95581471D01*
X118812971Y-95770033D01*
X118705221Y-95662284D01*
X119297844Y-95770033D02*
X118732158Y-96335719D01*
X118947658Y-96551218D01*
X119028470Y-96578155D01*
X119082345Y-96578155D01*
X119163157Y-96551218D01*
X119243969Y-96470406D01*
X119270906Y-96389593D01*
X119270906Y-96335719D01*
X119243969Y-96254906D01*
X119028470Y-96039407D01*
X119324781Y-96820592D02*
X119324781Y-96874467D01*
X119351719Y-96955279D01*
X119486406Y-97089966D01*
X119567218Y-97116903D01*
X119621093Y-97116903D01*
X119701905Y-97089966D01*
X119755780Y-97036091D01*
X119809654Y-96928341D01*
X119809654Y-96281844D01*
X120159841Y-96632030D01*
X119944341Y-97547902D02*
X119998216Y-97601776D01*
X120079028Y-97628714D01*
X120132903Y-97628714D01*
X120213715Y-97601776D01*
X120348402Y-97520964D01*
X120483089Y-97386277D01*
X120563902Y-97251590D01*
X120590839Y-97170778D01*
X120590839Y-97116903D01*
X120563902Y-97036091D01*
X120510027Y-96982216D01*
X120429215Y-96955279D01*
X120375340Y-96955279D01*
X120294528Y-96982216D01*
X120159841Y-97063028D01*
X120025154Y-97197715D01*
X119944341Y-97332402D01*
X119917404Y-97413215D01*
X119917404Y-97467089D01*
X119944341Y-97547902D01*
X144613096Y-86148781D02*
X144532284Y-86121844D01*
X144451471Y-86041032D01*
X144397597Y-85933282D01*
X144397597Y-85825532D01*
X144424534Y-85744720D01*
X144505346Y-85610033D01*
X144586158Y-85529221D01*
X144720845Y-85448409D01*
X144801658Y-85421471D01*
X144909407Y-85421471D01*
X145017157Y-85475346D01*
X145071032Y-85529221D01*
X145124906Y-85636971D01*
X145124906Y-85690845D01*
X144936345Y-85879407D01*
X144828595Y-85771658D01*
X145421218Y-85879407D02*
X144855532Y-86445093D01*
X145071032Y-86660592D01*
X145151844Y-86687529D01*
X145205719Y-86687529D01*
X145286531Y-86660592D01*
X145367343Y-86579780D01*
X145394280Y-86498967D01*
X145394280Y-86445093D01*
X145367343Y-86364280D01*
X145151844Y-86148781D01*
X145744467Y-86849154D02*
X145663654Y-86822216D01*
X145609780Y-86822216D01*
X145528967Y-86849154D01*
X145502030Y-86876091D01*
X145475093Y-86956903D01*
X145475093Y-87010778D01*
X145502030Y-87091590D01*
X145609780Y-87199340D01*
X145690592Y-87226277D01*
X145744467Y-87226277D01*
X145825279Y-87199340D01*
X145852216Y-87172402D01*
X145879154Y-87091590D01*
X145879154Y-87037715D01*
X145852216Y-86956903D01*
X145744467Y-86849154D01*
X145717529Y-86768341D01*
X145717529Y-86714467D01*
X145744467Y-86633654D01*
X145852216Y-86525905D01*
X145933028Y-86498967D01*
X145986903Y-86498967D01*
X146067715Y-86525905D01*
X146175465Y-86633654D01*
X146202402Y-86714467D01*
X146202402Y-86768341D01*
X146175465Y-86849154D01*
X146067715Y-86956903D01*
X145986903Y-86983841D01*
X145933028Y-86983841D01*
X145852216Y-86956903D01*
X144743722Y-96039407D02*
X144662910Y-96012470D01*
X144582097Y-95931658D01*
X144528223Y-95823908D01*
X144528223Y-95716158D01*
X144555160Y-95635346D01*
X144635972Y-95500659D01*
X144716784Y-95419847D01*
X144851471Y-95339035D01*
X144932284Y-95312097D01*
X145040033Y-95312097D01*
X145147783Y-95365972D01*
X145201658Y-95419847D01*
X145255532Y-95527597D01*
X145255532Y-95581471D01*
X145066971Y-95770033D01*
X144959221Y-95662284D01*
X145551844Y-95770033D02*
X144986158Y-96335719D01*
X145201658Y-96551218D01*
X145282470Y-96578155D01*
X145336345Y-96578155D01*
X145417157Y-96551218D01*
X145497969Y-96470406D01*
X145524906Y-96389593D01*
X145524906Y-96335719D01*
X145497969Y-96254906D01*
X145282470Y-96039407D01*
X146413841Y-96632030D02*
X146090592Y-96308781D01*
X146252216Y-96470406D02*
X145686531Y-97036091D01*
X145713468Y-96901404D01*
X145713468Y-96793654D01*
X145686531Y-96712842D01*
X146952589Y-97170778D02*
X146629340Y-96847529D01*
X146790964Y-97009154D02*
X146225279Y-97574839D01*
X146252216Y-97440152D01*
X146252216Y-97332402D01*
X146225279Y-97251590D01*
X144597722Y-108739407D02*
X144516910Y-108712470D01*
X144436097Y-108631658D01*
X144382223Y-108523908D01*
X144382223Y-108416158D01*
X144409160Y-108335346D01*
X144489972Y-108200659D01*
X144570784Y-108119847D01*
X144705471Y-108039035D01*
X144786284Y-108012097D01*
X144894033Y-108012097D01*
X145001783Y-108065972D01*
X145055658Y-108119847D01*
X145109532Y-108227597D01*
X145109532Y-108281471D01*
X144920971Y-108470033D01*
X144813221Y-108362284D01*
X145405844Y-108470033D02*
X144840158Y-109035719D01*
X145055658Y-109251218D01*
X145136470Y-109278155D01*
X145190345Y-109278155D01*
X145271157Y-109251218D01*
X145351969Y-109170406D01*
X145378906Y-109089593D01*
X145378906Y-109035719D01*
X145351969Y-108954906D01*
X145136470Y-108739407D01*
X146267841Y-109332030D02*
X145944592Y-109008781D01*
X146106216Y-109170406D02*
X145540531Y-109736091D01*
X145567468Y-109601404D01*
X145567468Y-109493654D01*
X145540531Y-109412842D01*
X146213966Y-110409526D02*
X145944592Y-110140152D01*
X146187028Y-109843841D01*
X146187028Y-109897715D01*
X146213966Y-109978528D01*
X146348653Y-110113215D01*
X146429465Y-110140152D01*
X146483340Y-110140152D01*
X146564152Y-110113215D01*
X146698839Y-109978528D01*
X146725776Y-109897715D01*
X146725776Y-109843841D01*
X146698839Y-109763028D01*
X146564152Y-109628341D01*
X146483340Y-109601404D01*
X146429465Y-109601404D01*
X118986158Y-65801844D02*
X118905346Y-65774906D01*
X118824534Y-65694094D01*
X118770659Y-65586345D01*
X118770659Y-65478595D01*
X118797597Y-65397783D01*
X118878409Y-65263096D01*
X118959221Y-65182284D01*
X119093908Y-65101471D01*
X119174720Y-65074534D01*
X119282470Y-65074534D01*
X119390219Y-65128409D01*
X119444094Y-65182284D01*
X119497969Y-65290033D01*
X119497969Y-65343908D01*
X119309407Y-65532470D01*
X119201658Y-65424720D01*
X119794280Y-65532470D02*
X119228595Y-66098155D01*
X120117529Y-65855719D01*
X119551844Y-66421404D01*
X120386903Y-66125093D02*
X119821218Y-66690778D01*
X119955905Y-66825465D01*
X120063654Y-66879340D01*
X120171404Y-66879340D01*
X120252216Y-66852402D01*
X120386903Y-66771590D01*
X120467715Y-66690778D01*
X120548528Y-66556091D01*
X120575465Y-66475279D01*
X120575465Y-66367529D01*
X120521590Y-66259780D01*
X120386903Y-66125093D01*
X144613096Y-75988781D02*
X144532284Y-75961844D01*
X144451471Y-75881032D01*
X144397597Y-75773282D01*
X144397597Y-75665532D01*
X144424534Y-75584720D01*
X144505346Y-75450033D01*
X144586158Y-75369221D01*
X144720845Y-75288409D01*
X144801658Y-75261471D01*
X144909407Y-75261471D01*
X145017157Y-75315346D01*
X145071032Y-75369221D01*
X145124906Y-75476971D01*
X145124906Y-75530845D01*
X144936345Y-75719407D01*
X144828595Y-75611658D01*
X145421218Y-75719407D02*
X144855532Y-76285093D01*
X145071032Y-76500592D01*
X145151844Y-76527529D01*
X145205719Y-76527529D01*
X145286531Y-76500592D01*
X145367343Y-76419780D01*
X145394280Y-76338967D01*
X145394280Y-76285093D01*
X145367343Y-76204280D01*
X145151844Y-75988781D01*
X145690592Y-77120152D02*
X145421218Y-76850778D01*
X145663654Y-76554467D01*
X145663654Y-76608341D01*
X145690592Y-76689154D01*
X145825279Y-76823841D01*
X145906091Y-76850778D01*
X145959966Y-76850778D01*
X146040778Y-76823841D01*
X146175465Y-76689154D01*
X146202402Y-76608341D01*
X146202402Y-76554467D01*
X146175465Y-76473654D01*
X146040778Y-76338967D01*
X145959966Y-76312030D01*
X145906091Y-76312030D01*
X118489722Y-83339407D02*
X118408910Y-83312470D01*
X118328097Y-83231658D01*
X118274223Y-83123908D01*
X118274223Y-83016158D01*
X118301160Y-82935346D01*
X118381972Y-82800659D01*
X118462784Y-82719847D01*
X118597471Y-82639035D01*
X118678284Y-82612097D01*
X118786033Y-82612097D01*
X118893783Y-82665972D01*
X118947658Y-82719847D01*
X119001532Y-82827597D01*
X119001532Y-82881471D01*
X118812971Y-83070033D01*
X118705221Y-82962284D01*
X119297844Y-83070033D02*
X118732158Y-83635719D01*
X118947658Y-83851218D01*
X119028470Y-83878155D01*
X119082345Y-83878155D01*
X119163157Y-83851218D01*
X119243969Y-83770406D01*
X119270906Y-83689593D01*
X119270906Y-83635719D01*
X119243969Y-83554906D01*
X119028470Y-83339407D01*
X119324781Y-84120592D02*
X119324781Y-84174467D01*
X119351719Y-84255279D01*
X119486406Y-84389966D01*
X119567218Y-84416903D01*
X119621093Y-84416903D01*
X119701905Y-84389966D01*
X119755780Y-84336091D01*
X119809654Y-84228341D01*
X119809654Y-83581844D01*
X120159841Y-83932030D01*
X120079028Y-84982589D02*
X119971279Y-84874839D01*
X119944341Y-84794027D01*
X119944341Y-84740152D01*
X119971279Y-84605465D01*
X120052091Y-84470778D01*
X120267590Y-84255279D01*
X120348402Y-84228341D01*
X120402277Y-84228341D01*
X120483089Y-84255279D01*
X120590839Y-84363028D01*
X120617776Y-84443841D01*
X120617776Y-84497715D01*
X120590839Y-84578528D01*
X120456152Y-84713215D01*
X120375340Y-84740152D01*
X120321465Y-84740152D01*
X120240653Y-84713215D01*
X120132903Y-84605465D01*
X120105966Y-84524653D01*
X120105966Y-84470778D01*
X120132903Y-84389966D01*
X144597722Y-101119407D02*
X144516910Y-101092470D01*
X144436097Y-101011658D01*
X144382223Y-100903908D01*
X144382223Y-100796158D01*
X144409160Y-100715346D01*
X144489972Y-100580659D01*
X144570784Y-100499847D01*
X144705471Y-100419035D01*
X144786284Y-100392097D01*
X144894033Y-100392097D01*
X145001783Y-100445972D01*
X145055658Y-100499847D01*
X145109532Y-100607597D01*
X145109532Y-100661471D01*
X144920971Y-100850033D01*
X144813221Y-100742284D01*
X145405844Y-100850033D02*
X144840158Y-101415719D01*
X145055658Y-101631218D01*
X145136470Y-101658155D01*
X145190345Y-101658155D01*
X145271157Y-101631218D01*
X145351969Y-101550406D01*
X145378906Y-101469593D01*
X145378906Y-101415719D01*
X145351969Y-101334906D01*
X145136470Y-101119407D01*
X146267841Y-101712030D02*
X145944592Y-101388781D01*
X146106216Y-101550406D02*
X145540531Y-102116091D01*
X145567468Y-101981404D01*
X145567468Y-101873654D01*
X145540531Y-101792842D01*
X145890717Y-102466277D02*
X146240903Y-102816463D01*
X146267841Y-102412402D01*
X146348653Y-102493215D01*
X146429465Y-102520152D01*
X146483340Y-102520152D01*
X146564152Y-102493215D01*
X146698839Y-102358528D01*
X146725776Y-102277715D01*
X146725776Y-102223841D01*
X146698839Y-102143028D01*
X146537215Y-101981404D01*
X146456402Y-101954467D01*
X146402528Y-101954467D01*
X118489722Y-80809407D02*
X118408910Y-80782470D01*
X118328097Y-80701658D01*
X118274223Y-80593908D01*
X118274223Y-80486158D01*
X118301160Y-80405346D01*
X118381972Y-80270659D01*
X118462784Y-80189847D01*
X118597471Y-80109035D01*
X118678284Y-80082097D01*
X118786033Y-80082097D01*
X118893783Y-80135972D01*
X118947658Y-80189847D01*
X119001532Y-80297597D01*
X119001532Y-80351471D01*
X118812971Y-80540033D01*
X118705221Y-80432284D01*
X119297844Y-80540033D02*
X118732158Y-81105719D01*
X118947658Y-81321218D01*
X119028470Y-81348155D01*
X119082345Y-81348155D01*
X119163157Y-81321218D01*
X119243969Y-81240406D01*
X119270906Y-81159593D01*
X119270906Y-81105719D01*
X119243969Y-81024906D01*
X119028470Y-80809407D01*
X119324781Y-81590592D02*
X119324781Y-81644467D01*
X119351719Y-81725279D01*
X119486406Y-81859966D01*
X119567218Y-81886903D01*
X119621093Y-81886903D01*
X119701905Y-81859966D01*
X119755780Y-81806091D01*
X119809654Y-81698341D01*
X119809654Y-81051844D01*
X120159841Y-81402030D01*
X119782717Y-82156277D02*
X120159841Y-82533401D01*
X120483089Y-81725279D01*
X118489722Y-93509407D02*
X118408910Y-93482470D01*
X118328097Y-93401658D01*
X118274223Y-93293908D01*
X118274223Y-93186158D01*
X118301160Y-93105346D01*
X118381972Y-92970659D01*
X118462784Y-92889847D01*
X118597471Y-92809035D01*
X118678284Y-92782097D01*
X118786033Y-92782097D01*
X118893783Y-92835972D01*
X118947658Y-92889847D01*
X119001532Y-92997597D01*
X119001532Y-93051471D01*
X118812971Y-93240033D01*
X118705221Y-93132284D01*
X119297844Y-93240033D02*
X118732158Y-93805719D01*
X118947658Y-94021218D01*
X119028470Y-94048155D01*
X119082345Y-94048155D01*
X119163157Y-94021218D01*
X119243969Y-93940406D01*
X119270906Y-93859593D01*
X119270906Y-93805719D01*
X119243969Y-93724906D01*
X119028470Y-93509407D01*
X119324781Y-94290592D02*
X119324781Y-94344467D01*
X119351719Y-94425279D01*
X119486406Y-94559966D01*
X119567218Y-94586903D01*
X119621093Y-94586903D01*
X119701905Y-94559966D01*
X119755780Y-94506091D01*
X119809654Y-94398341D01*
X119809654Y-93751844D01*
X120159841Y-94102030D01*
X120698589Y-94640778D02*
X120375340Y-94317529D01*
X120536964Y-94479154D02*
X119971279Y-95044839D01*
X119998216Y-94910152D01*
X119998216Y-94802402D01*
X119971279Y-94721590D01*
X118589847Y-70709407D02*
X118940033Y-71059593D01*
X118966971Y-70655532D01*
X119047783Y-70736345D01*
X119128595Y-70763282D01*
X119182470Y-70763282D01*
X119263282Y-70736345D01*
X119397969Y-70601658D01*
X119424906Y-70520845D01*
X119424906Y-70466971D01*
X119397969Y-70386158D01*
X119236345Y-70224534D01*
X119155532Y-70197597D01*
X119101658Y-70197597D01*
X119101658Y-71221218D02*
X119855905Y-70844094D01*
X119478781Y-71598341D01*
X119613468Y-71733028D02*
X119963654Y-72083215D01*
X119990592Y-71679154D01*
X120071404Y-71759966D01*
X120152216Y-71786903D01*
X120206091Y-71786903D01*
X120286903Y-71759966D01*
X120421590Y-71625279D01*
X120448528Y-71544467D01*
X120448528Y-71490592D01*
X120421590Y-71409780D01*
X120259966Y-71248155D01*
X120179154Y-71221218D01*
X120125279Y-71221218D01*
X118489722Y-75465407D02*
X118408910Y-75438470D01*
X118328097Y-75357658D01*
X118274223Y-75249908D01*
X118274223Y-75142158D01*
X118301160Y-75061346D01*
X118381972Y-74926659D01*
X118462784Y-74845847D01*
X118597471Y-74765035D01*
X118678284Y-74738097D01*
X118786033Y-74738097D01*
X118893783Y-74791972D01*
X118947658Y-74845847D01*
X119001532Y-74953597D01*
X119001532Y-75007471D01*
X118812971Y-75196033D01*
X118705221Y-75088284D01*
X119297844Y-75196033D02*
X118732158Y-75761719D01*
X118947658Y-75977218D01*
X119028470Y-76004155D01*
X119082345Y-76004155D01*
X119163157Y-75977218D01*
X119243969Y-75896406D01*
X119270906Y-75815593D01*
X119270906Y-75761719D01*
X119243969Y-75680906D01*
X119028470Y-75465407D01*
X119324781Y-76246592D02*
X119324781Y-76300467D01*
X119351719Y-76381279D01*
X119486406Y-76515966D01*
X119567218Y-76542903D01*
X119621093Y-76542903D01*
X119701905Y-76515966D01*
X119755780Y-76462091D01*
X119809654Y-76354341D01*
X119809654Y-75707844D01*
X120159841Y-76058030D01*
X120159841Y-76704528D02*
X120079028Y-76677590D01*
X120025154Y-76677590D01*
X119944341Y-76704528D01*
X119917404Y-76731465D01*
X119890467Y-76812277D01*
X119890467Y-76866152D01*
X119917404Y-76946964D01*
X120025154Y-77054714D01*
X120105966Y-77081651D01*
X120159841Y-77081651D01*
X120240653Y-77054714D01*
X120267590Y-77027776D01*
X120294528Y-76946964D01*
X120294528Y-76893089D01*
X120267590Y-76812277D01*
X120159841Y-76704528D01*
X120132903Y-76623715D01*
X120132903Y-76569841D01*
X120159841Y-76489028D01*
X120267590Y-76381279D01*
X120348402Y-76354341D01*
X120402277Y-76354341D01*
X120483089Y-76381279D01*
X120590839Y-76489028D01*
X120617776Y-76569841D01*
X120617776Y-76623715D01*
X120590839Y-76704528D01*
X120483089Y-76812277D01*
X120402277Y-76839215D01*
X120348402Y-76839215D01*
X120267590Y-76812277D01*
X118543597Y-77559035D02*
X118812971Y-77828409D01*
X118651346Y-77343536D02*
X118274223Y-78097783D01*
X119028470Y-77720659D01*
X118974595Y-78744280D02*
X118893783Y-78717343D01*
X118812971Y-78636531D01*
X118759096Y-78528781D01*
X118759096Y-78421032D01*
X118786033Y-78340219D01*
X118866845Y-78205532D01*
X118947658Y-78124720D01*
X119082345Y-78043908D01*
X119163157Y-78016971D01*
X119270906Y-78016971D01*
X119378656Y-78070845D01*
X119432531Y-78124720D01*
X119486406Y-78232470D01*
X119486406Y-78286345D01*
X119297844Y-78474906D01*
X119190094Y-78367157D01*
X119782717Y-78474906D02*
X119217032Y-79040592D01*
X120105966Y-78798155D01*
X119540280Y-79363841D01*
X120375340Y-79067529D02*
X119809654Y-79633215D01*
X119944341Y-79767902D01*
X120052091Y-79821776D01*
X120159841Y-79821776D01*
X120240653Y-79794839D01*
X120375340Y-79714027D01*
X120456152Y-79633215D01*
X120536964Y-79498528D01*
X120563902Y-79417715D01*
X120563902Y-79309966D01*
X120510027Y-79202216D01*
X120375340Y-79067529D01*
X144613096Y-70908781D02*
X144532284Y-70881844D01*
X144451471Y-70801032D01*
X144397597Y-70693282D01*
X144397597Y-70585532D01*
X144424534Y-70504720D01*
X144505346Y-70370033D01*
X144586158Y-70289221D01*
X144720845Y-70208409D01*
X144801658Y-70181471D01*
X144909407Y-70181471D01*
X145017157Y-70235346D01*
X145071032Y-70289221D01*
X145124906Y-70396971D01*
X145124906Y-70450845D01*
X144936345Y-70639407D01*
X144828595Y-70531658D01*
X145421218Y-70639407D02*
X144855532Y-71205093D01*
X145071032Y-71420592D01*
X145151844Y-71447529D01*
X145205719Y-71447529D01*
X145286531Y-71420592D01*
X145367343Y-71339780D01*
X145394280Y-71258967D01*
X145394280Y-71205093D01*
X145367343Y-71124280D01*
X145151844Y-70908781D01*
X145367343Y-71716903D02*
X145717529Y-72067089D01*
X145744467Y-71663028D01*
X145825279Y-71743841D01*
X145906091Y-71770778D01*
X145959966Y-71770778D01*
X146040778Y-71743841D01*
X146175465Y-71609154D01*
X146202402Y-71528341D01*
X146202402Y-71474467D01*
X146175465Y-71393654D01*
X146013841Y-71232030D01*
X145933028Y-71205093D01*
X145879154Y-71205093D01*
X116654788Y-70466226D02*
X116924162Y-70735600D01*
X116762537Y-70250727D02*
X116385414Y-71004974D01*
X117139661Y-70627850D01*
X117328223Y-70816412D02*
X116762537Y-71382097D01*
X116897224Y-71516784D01*
X117004974Y-71570659D01*
X117112723Y-71570659D01*
X117193536Y-71543722D01*
X117328223Y-71462910D01*
X117409035Y-71382097D01*
X117489847Y-71247410D01*
X117516784Y-71166598D01*
X117516784Y-71058849D01*
X117462910Y-70951099D01*
X117328223Y-70816412D01*
X118163282Y-71759221D02*
X118163282Y-71705346D01*
X118109407Y-71597597D01*
X118055532Y-71543722D01*
X117947783Y-71489847D01*
X117840033Y-71489847D01*
X117759221Y-71516784D01*
X117624534Y-71597597D01*
X117543722Y-71678409D01*
X117462910Y-71813096D01*
X117435972Y-71893908D01*
X117435972Y-72001658D01*
X117489847Y-72109407D01*
X117543722Y-72163282D01*
X117651471Y-72217157D01*
X117705346Y-72217157D01*
X118378781Y-71759221D02*
X118809780Y-72190219D01*
X118244094Y-72863654D02*
X118998341Y-72486531D01*
X118621218Y-73240778D01*
X119698714Y-73186903D02*
X119240778Y-73267715D01*
X119375465Y-72863654D02*
X118809780Y-73429340D01*
X119025279Y-73644839D01*
X119106091Y-73671776D01*
X119159966Y-73671776D01*
X119240778Y-73644839D01*
X119321590Y-73564027D01*
X119348528Y-73483215D01*
X119348528Y-73429340D01*
X119321590Y-73348528D01*
X119106091Y-73133028D01*
X119644839Y-73725651D02*
X119833401Y-73914213D01*
X120210524Y-73698714D02*
X119941150Y-73429340D01*
X119375465Y-73995025D01*
X119644839Y-74264399D01*
X120345211Y-74426024D02*
X120156650Y-74237462D01*
X120452961Y-73941150D02*
X119887276Y-74506836D01*
X120156650Y-74776210D01*
X144643722Y-106199407D02*
X144562910Y-106172470D01*
X144482097Y-106091658D01*
X144428223Y-105983908D01*
X144428223Y-105876158D01*
X144455160Y-105795346D01*
X144535972Y-105660659D01*
X144616784Y-105579847D01*
X144751471Y-105499035D01*
X144832284Y-105472097D01*
X144940033Y-105472097D01*
X145047783Y-105525972D01*
X145101658Y-105579847D01*
X145155532Y-105687597D01*
X145155532Y-105741471D01*
X144966971Y-105930033D01*
X144859221Y-105822284D01*
X145451844Y-105930033D02*
X144886158Y-106495719D01*
X145101658Y-106711218D01*
X145182470Y-106738155D01*
X145236345Y-106738155D01*
X145317157Y-106711218D01*
X145397969Y-106630406D01*
X145424906Y-106549593D01*
X145424906Y-106495719D01*
X145397969Y-106414906D01*
X145182470Y-106199407D01*
X146313841Y-106792030D02*
X145990592Y-106468781D01*
X146152216Y-106630406D02*
X145586531Y-107196091D01*
X145613468Y-107061404D01*
X145613468Y-106953654D01*
X145586531Y-106872842D01*
X146421590Y-107654027D02*
X146798714Y-107276903D01*
X146071404Y-107734839D02*
X146340778Y-107196091D01*
X146690964Y-107546277D01*
X144586158Y-65801844D02*
X144505346Y-65774906D01*
X144424534Y-65694094D01*
X144370659Y-65586345D01*
X144370659Y-65478595D01*
X144397597Y-65397783D01*
X144478409Y-65263096D01*
X144559221Y-65182284D01*
X144693908Y-65101471D01*
X144774720Y-65074534D01*
X144882470Y-65074534D01*
X144990219Y-65128409D01*
X145044094Y-65182284D01*
X145097969Y-65290033D01*
X145097969Y-65343908D01*
X144909407Y-65532470D01*
X144801658Y-65424720D01*
X145394280Y-65532470D02*
X144828595Y-66098155D01*
X145717529Y-65855719D01*
X145151844Y-66421404D01*
X145986903Y-66125093D02*
X145421218Y-66690778D01*
X145555905Y-66825465D01*
X145663654Y-66879340D01*
X145771404Y-66879340D01*
X145852216Y-66852402D01*
X145986903Y-66771590D01*
X146067715Y-66690778D01*
X146148528Y-66556091D01*
X146175465Y-66475279D01*
X146175465Y-66367529D01*
X146121590Y-66259780D01*
X145986903Y-66125093D01*
X118489722Y-98579407D02*
X118408910Y-98552470D01*
X118328097Y-98471658D01*
X118274223Y-98363908D01*
X118274223Y-98256158D01*
X118301160Y-98175346D01*
X118381972Y-98040659D01*
X118462784Y-97959847D01*
X118597471Y-97879035D01*
X118678284Y-97852097D01*
X118786033Y-97852097D01*
X118893783Y-97905972D01*
X118947658Y-97959847D01*
X119001532Y-98067597D01*
X119001532Y-98121471D01*
X118812971Y-98310033D01*
X118705221Y-98202284D01*
X119297844Y-98310033D02*
X118732158Y-98875719D01*
X118947658Y-99091218D01*
X119028470Y-99118155D01*
X119082345Y-99118155D01*
X119163157Y-99091218D01*
X119243969Y-99010406D01*
X119270906Y-98929593D01*
X119270906Y-98875719D01*
X119243969Y-98794906D01*
X119028470Y-98579407D01*
X120159841Y-99172030D02*
X119836592Y-98848781D01*
X119998216Y-99010406D02*
X119432531Y-99576091D01*
X119459468Y-99441404D01*
X119459468Y-99333654D01*
X119432531Y-99252842D01*
X120429215Y-99441404D02*
X120536964Y-99549154D01*
X120563902Y-99629966D01*
X120563902Y-99683841D01*
X120536964Y-99818528D01*
X120456152Y-99953215D01*
X120240653Y-100168714D01*
X120159841Y-100195651D01*
X120105966Y-100195651D01*
X120025154Y-100168714D01*
X119917404Y-100060964D01*
X119890467Y-99980152D01*
X119890467Y-99926277D01*
X119917404Y-99845465D01*
X120052091Y-99710778D01*
X120132903Y-99683841D01*
X120186778Y-99683841D01*
X120267590Y-99710778D01*
X120375340Y-99818528D01*
X120402277Y-99899340D01*
X120402277Y-99953215D01*
X120375340Y-100034027D01*
X144613096Y-73448781D02*
X144532284Y-73421844D01*
X144451471Y-73341032D01*
X144397597Y-73233282D01*
X144397597Y-73125532D01*
X144424534Y-73044720D01*
X144505346Y-72910033D01*
X144586158Y-72829221D01*
X144720845Y-72748409D01*
X144801658Y-72721471D01*
X144909407Y-72721471D01*
X145017157Y-72775346D01*
X145071032Y-72829221D01*
X145124906Y-72936971D01*
X145124906Y-72990845D01*
X144936345Y-73179407D01*
X144828595Y-73071658D01*
X145421218Y-73179407D02*
X144855532Y-73745093D01*
X145071032Y-73960592D01*
X145151844Y-73987529D01*
X145205719Y-73987529D01*
X145286531Y-73960592D01*
X145367343Y-73879780D01*
X145394280Y-73798967D01*
X145394280Y-73745093D01*
X145367343Y-73664280D01*
X145151844Y-73448781D01*
X145852216Y-74364653D02*
X146229340Y-73987529D01*
X145502030Y-74445465D02*
X145771404Y-73906717D01*
X146121590Y-74256903D01*
X119338375Y-85596564D02*
X118880439Y-85677377D01*
X119015126Y-85273316D02*
X118449441Y-85839001D01*
X118664940Y-86054500D01*
X118745752Y-86081438D01*
X118799627Y-86081438D01*
X118880439Y-86054500D01*
X118961251Y-85973688D01*
X118988189Y-85892876D01*
X118988189Y-85839001D01*
X118961251Y-85758189D01*
X118745752Y-85542690D01*
X119015126Y-86404687D02*
X119473062Y-85946751D01*
X119553874Y-85919813D01*
X119607749Y-85919813D01*
X119688561Y-85946751D01*
X119796311Y-86054500D01*
X119823248Y-86135312D01*
X119823248Y-86189187D01*
X119796311Y-86270000D01*
X119338375Y-86727935D01*
X120173435Y-86431624D02*
X119607749Y-86997309D01*
X120496683Y-86754873D01*
X119930998Y-87320558D01*
X117853129Y-60072690D02*
X118607377Y-59695566D01*
X118230253Y-60449813D01*
X118876751Y-60557563D02*
X118984500Y-60611438D01*
X119038375Y-60611438D01*
X119119187Y-60584500D01*
X119200000Y-60503688D01*
X119226937Y-60422876D01*
X119226937Y-60369001D01*
X119200000Y-60288189D01*
X118984500Y-60072690D01*
X118418815Y-60638375D01*
X118607377Y-60826937D01*
X118688189Y-60853874D01*
X118742064Y-60853874D01*
X118822876Y-60826937D01*
X118876751Y-60773062D01*
X118903688Y-60692250D01*
X118903688Y-60638375D01*
X118876751Y-60557563D01*
X118688189Y-60369001D01*
X118984500Y-61204061D02*
X119442436Y-60746125D01*
X119523248Y-60719187D01*
X119577123Y-60719187D01*
X119657935Y-60746125D01*
X119765685Y-60853874D01*
X119792622Y-60934687D01*
X119792622Y-60988561D01*
X119765685Y-61069374D01*
X119307749Y-61527309D01*
X120088934Y-61230998D02*
X120196683Y-61284873D01*
X120331370Y-61419560D01*
X120358308Y-61500372D01*
X120358308Y-61554247D01*
X120331370Y-61635059D01*
X120277496Y-61688934D01*
X120196683Y-61715871D01*
X120142809Y-61715871D01*
X120061996Y-61688934D01*
X119927309Y-61608122D01*
X119846497Y-61581184D01*
X119792622Y-61581184D01*
X119711810Y-61608122D01*
X119657935Y-61661996D01*
X119630998Y-61742809D01*
X119630998Y-61796683D01*
X119657935Y-61877496D01*
X119792622Y-62012183D01*
X119900372Y-62066057D01*
X144586158Y-103901844D02*
X144505346Y-103874906D01*
X144424534Y-103794094D01*
X144370659Y-103686345D01*
X144370659Y-103578595D01*
X144397597Y-103497783D01*
X144478409Y-103363096D01*
X144559221Y-103282284D01*
X144693908Y-103201471D01*
X144774720Y-103174534D01*
X144882470Y-103174534D01*
X144990219Y-103228409D01*
X145044094Y-103282284D01*
X145097969Y-103390033D01*
X145097969Y-103443908D01*
X144909407Y-103632470D01*
X144801658Y-103524720D01*
X145394280Y-103632470D02*
X144828595Y-104198155D01*
X145717529Y-103955719D01*
X145151844Y-104521404D01*
X145986903Y-104225093D02*
X145421218Y-104790778D01*
X145555905Y-104925465D01*
X145663654Y-104979340D01*
X145771404Y-104979340D01*
X145852216Y-104952402D01*
X145986903Y-104871590D01*
X146067715Y-104790778D01*
X146148528Y-104656091D01*
X146175465Y-104575279D01*
X146175465Y-104467529D01*
X146121590Y-104359780D01*
X145986903Y-104225093D01*
X118986158Y-103901844D02*
X118905346Y-103874906D01*
X118824534Y-103794094D01*
X118770659Y-103686345D01*
X118770659Y-103578595D01*
X118797597Y-103497783D01*
X118878409Y-103363096D01*
X118959221Y-103282284D01*
X119093908Y-103201471D01*
X119174720Y-103174534D01*
X119282470Y-103174534D01*
X119390219Y-103228409D01*
X119444094Y-103282284D01*
X119497969Y-103390033D01*
X119497969Y-103443908D01*
X119309407Y-103632470D01*
X119201658Y-103524720D01*
X119794280Y-103632470D02*
X119228595Y-104198155D01*
X120117529Y-103955719D01*
X119551844Y-104521404D01*
X120386903Y-104225093D02*
X119821218Y-104790778D01*
X119955905Y-104925465D01*
X120063654Y-104979340D01*
X120171404Y-104979340D01*
X120252216Y-104952402D01*
X120386903Y-104871590D01*
X120467715Y-104790778D01*
X120548528Y-104656091D01*
X120575465Y-104575279D01*
X120575465Y-104467529D01*
X120521590Y-104359780D01*
X120386903Y-104225093D01*
X144613096Y-88688781D02*
X144532284Y-88661844D01*
X144451471Y-88581032D01*
X144397597Y-88473282D01*
X144397597Y-88365532D01*
X144424534Y-88284720D01*
X144505346Y-88150033D01*
X144586158Y-88069221D01*
X144720845Y-87988409D01*
X144801658Y-87961471D01*
X144909407Y-87961471D01*
X145017157Y-88015346D01*
X145071032Y-88069221D01*
X145124906Y-88176971D01*
X145124906Y-88230845D01*
X144936345Y-88419407D01*
X144828595Y-88311658D01*
X145421218Y-88419407D02*
X144855532Y-88985093D01*
X145071032Y-89200592D01*
X145151844Y-89227529D01*
X145205719Y-89227529D01*
X145286531Y-89200592D01*
X145367343Y-89119780D01*
X145394280Y-89038967D01*
X145394280Y-88985093D01*
X145367343Y-88904280D01*
X145151844Y-88688781D01*
X146013841Y-89012030D02*
X146121590Y-89119780D01*
X146148528Y-89200592D01*
X146148528Y-89254467D01*
X146121590Y-89389154D01*
X146040778Y-89523841D01*
X145825279Y-89739340D01*
X145744467Y-89766277D01*
X145690592Y-89766277D01*
X145609780Y-89739340D01*
X145502030Y-89631590D01*
X145475093Y-89550778D01*
X145475093Y-89496903D01*
X145502030Y-89416091D01*
X145636717Y-89281404D01*
X145717529Y-89254467D01*
X145771404Y-89254467D01*
X145852216Y-89281404D01*
X145959966Y-89389154D01*
X145986903Y-89469966D01*
X145986903Y-89523841D01*
X145959966Y-89604653D01*
X144743722Y-98579407D02*
X144662910Y-98552470D01*
X144582097Y-98471658D01*
X144528223Y-98363908D01*
X144528223Y-98256158D01*
X144555160Y-98175346D01*
X144635972Y-98040659D01*
X144716784Y-97959847D01*
X144851471Y-97879035D01*
X144932284Y-97852097D01*
X145040033Y-97852097D01*
X145147783Y-97905972D01*
X145201658Y-97959847D01*
X145255532Y-98067597D01*
X145255532Y-98121471D01*
X145066971Y-98310033D01*
X144959221Y-98202284D01*
X145551844Y-98310033D02*
X144986158Y-98875719D01*
X145201658Y-99091218D01*
X145282470Y-99118155D01*
X145336345Y-99118155D01*
X145417157Y-99091218D01*
X145497969Y-99010406D01*
X145524906Y-98929593D01*
X145524906Y-98875719D01*
X145497969Y-98794906D01*
X145282470Y-98579407D01*
X146413841Y-99172030D02*
X146090592Y-98848781D01*
X146252216Y-99010406D02*
X145686531Y-99576091D01*
X145713468Y-99441404D01*
X145713468Y-99333654D01*
X145686531Y-99252842D01*
X146117529Y-99899340D02*
X146117529Y-99953215D01*
X146144467Y-100034027D01*
X146279154Y-100168714D01*
X146359966Y-100195651D01*
X146413841Y-100195651D01*
X146494653Y-100168714D01*
X146548528Y-100114839D01*
X146602402Y-100007089D01*
X146602402Y-99360592D01*
X146952589Y-99710778D01*
X144513096Y-83578781D02*
X144432284Y-83551844D01*
X144351471Y-83471032D01*
X144297597Y-83363282D01*
X144297597Y-83255532D01*
X144324534Y-83174720D01*
X144405346Y-83040033D01*
X144486158Y-82959221D01*
X144620845Y-82878409D01*
X144701658Y-82851471D01*
X144809407Y-82851471D01*
X144917157Y-82905346D01*
X144971032Y-82959221D01*
X145024906Y-83066971D01*
X145024906Y-83120845D01*
X144836345Y-83309407D01*
X144728595Y-83201658D01*
X145321218Y-83309407D02*
X144755532Y-83875093D01*
X144971032Y-84090592D01*
X145051844Y-84117529D01*
X145105719Y-84117529D01*
X145186531Y-84090592D01*
X145267343Y-84009780D01*
X145294280Y-83928967D01*
X145294280Y-83875093D01*
X145267343Y-83794280D01*
X145051844Y-83578781D01*
X145267343Y-84386903D02*
X145644467Y-84764027D01*
X145967715Y-83955905D01*
X144613096Y-60748781D02*
X144532284Y-60721844D01*
X144451471Y-60641032D01*
X144397597Y-60533282D01*
X144397597Y-60425532D01*
X144424534Y-60344720D01*
X144505346Y-60210033D01*
X144586158Y-60129221D01*
X144720845Y-60048409D01*
X144801658Y-60021471D01*
X144909407Y-60021471D01*
X145017157Y-60075346D01*
X145071032Y-60129221D01*
X145124906Y-60236971D01*
X145124906Y-60290845D01*
X144936345Y-60479407D01*
X144828595Y-60371658D01*
X145421218Y-60479407D02*
X144855532Y-61045093D01*
X145071032Y-61260592D01*
X145151844Y-61287529D01*
X145205719Y-61287529D01*
X145286531Y-61260592D01*
X145367343Y-61179780D01*
X145394280Y-61098967D01*
X145394280Y-61045093D01*
X145367343Y-60964280D01*
X145151844Y-60748781D01*
X145528967Y-61718528D02*
X145582842Y-61772402D01*
X145663654Y-61799340D01*
X145717529Y-61799340D01*
X145798341Y-61772402D01*
X145933028Y-61691590D01*
X146067715Y-61556903D01*
X146148528Y-61422216D01*
X146175465Y-61341404D01*
X146175465Y-61287529D01*
X146148528Y-61206717D01*
X146094653Y-61152842D01*
X146013841Y-61125905D01*
X145959966Y-61125905D01*
X145879154Y-61152842D01*
X145744467Y-61233654D01*
X145609780Y-61368341D01*
X145528967Y-61503028D01*
X145502030Y-61583841D01*
X145502030Y-61637715D01*
X145528967Y-61718528D01*
X144713096Y-68368781D02*
X144632284Y-68341844D01*
X144551471Y-68261032D01*
X144497597Y-68153282D01*
X144497597Y-68045532D01*
X144524534Y-67964720D01*
X144605346Y-67830033D01*
X144686158Y-67749221D01*
X144820845Y-67668409D01*
X144901658Y-67641471D01*
X145009407Y-67641471D01*
X145117157Y-67695346D01*
X145171032Y-67749221D01*
X145224906Y-67856971D01*
X145224906Y-67910845D01*
X145036345Y-68099407D01*
X144928595Y-67991658D01*
X145521218Y-68099407D02*
X144955532Y-68665093D01*
X145171032Y-68880592D01*
X145251844Y-68907529D01*
X145305719Y-68907529D01*
X145386531Y-68880592D01*
X145467343Y-68799780D01*
X145494280Y-68718967D01*
X145494280Y-68665093D01*
X145467343Y-68584280D01*
X145251844Y-68368781D01*
X145548155Y-69149966D02*
X145548155Y-69203841D01*
X145575093Y-69284653D01*
X145709780Y-69419340D01*
X145790592Y-69446277D01*
X145844467Y-69446277D01*
X145925279Y-69419340D01*
X145979154Y-69365465D01*
X146033028Y-69257715D01*
X146033028Y-68611218D01*
X146383215Y-68961404D01*
X118489722Y-108739407D02*
X118408910Y-108712470D01*
X118328097Y-108631658D01*
X118274223Y-108523908D01*
X118274223Y-108416158D01*
X118301160Y-108335346D01*
X118381972Y-108200659D01*
X118462784Y-108119847D01*
X118597471Y-108039035D01*
X118678284Y-108012097D01*
X118786033Y-108012097D01*
X118893783Y-108065972D01*
X118947658Y-108119847D01*
X119001532Y-108227597D01*
X119001532Y-108281471D01*
X118812971Y-108470033D01*
X118705221Y-108362284D01*
X119297844Y-108470033D02*
X118732158Y-109035719D01*
X118947658Y-109251218D01*
X119028470Y-109278155D01*
X119082345Y-109278155D01*
X119163157Y-109251218D01*
X119243969Y-109170406D01*
X119270906Y-109089593D01*
X119270906Y-109035719D01*
X119243969Y-108954906D01*
X119028470Y-108739407D01*
X120159841Y-109332030D02*
X119836592Y-109008781D01*
X119998216Y-109170406D02*
X119432531Y-109736091D01*
X119459468Y-109601404D01*
X119459468Y-109493654D01*
X119432531Y-109412842D01*
X120079028Y-110382589D02*
X119971279Y-110274839D01*
X119944341Y-110194027D01*
X119944341Y-110140152D01*
X119971279Y-110005465D01*
X120052091Y-109870778D01*
X120267590Y-109655279D01*
X120348402Y-109628341D01*
X120402277Y-109628341D01*
X120483089Y-109655279D01*
X120590839Y-109763028D01*
X120617776Y-109843841D01*
X120617776Y-109897715D01*
X120590839Y-109978528D01*
X120456152Y-110113215D01*
X120375340Y-110140152D01*
X120321465Y-110140152D01*
X120240653Y-110113215D01*
X120132903Y-110005465D01*
X120105966Y-109924653D01*
X120105966Y-109870778D01*
X120132903Y-109789966D01*
X118489722Y-88419407D02*
X118408910Y-88392470D01*
X118328097Y-88311658D01*
X118274223Y-88203908D01*
X118274223Y-88096158D01*
X118301160Y-88015346D01*
X118381972Y-87880659D01*
X118462784Y-87799847D01*
X118597471Y-87719035D01*
X118678284Y-87692097D01*
X118786033Y-87692097D01*
X118893783Y-87745972D01*
X118947658Y-87799847D01*
X119001532Y-87907597D01*
X119001532Y-87961471D01*
X118812971Y-88150033D01*
X118705221Y-88042284D01*
X119297844Y-88150033D02*
X118732158Y-88715719D01*
X118947658Y-88931218D01*
X119028470Y-88958155D01*
X119082345Y-88958155D01*
X119163157Y-88931218D01*
X119243969Y-88850406D01*
X119270906Y-88769593D01*
X119270906Y-88715719D01*
X119243969Y-88634906D01*
X119028470Y-88419407D01*
X119324781Y-89200592D02*
X119324781Y-89254467D01*
X119351719Y-89335279D01*
X119486406Y-89469966D01*
X119567218Y-89496903D01*
X119621093Y-89496903D01*
X119701905Y-89469966D01*
X119755780Y-89416091D01*
X119809654Y-89308341D01*
X119809654Y-88661844D01*
X120159841Y-89012030D01*
X119863529Y-89739340D02*
X119863529Y-89793215D01*
X119890467Y-89874027D01*
X120025154Y-90008714D01*
X120105966Y-90035651D01*
X120159841Y-90035651D01*
X120240653Y-90008714D01*
X120294528Y-89954839D01*
X120348402Y-89847089D01*
X120348402Y-89200592D01*
X120698589Y-89550778D01*
X118489722Y-101119407D02*
X118408910Y-101092470D01*
X118328097Y-101011658D01*
X118274223Y-100903908D01*
X118274223Y-100796158D01*
X118301160Y-100715346D01*
X118381972Y-100580659D01*
X118462784Y-100499847D01*
X118597471Y-100419035D01*
X118678284Y-100392097D01*
X118786033Y-100392097D01*
X118893783Y-100445972D01*
X118947658Y-100499847D01*
X119001532Y-100607597D01*
X119001532Y-100661471D01*
X118812971Y-100850033D01*
X118705221Y-100742284D01*
X119297844Y-100850033D02*
X118732158Y-101415719D01*
X118947658Y-101631218D01*
X119028470Y-101658155D01*
X119082345Y-101658155D01*
X119163157Y-101631218D01*
X119243969Y-101550406D01*
X119270906Y-101469593D01*
X119270906Y-101415719D01*
X119243969Y-101334906D01*
X119028470Y-101119407D01*
X120159841Y-101712030D02*
X119836592Y-101388781D01*
X119998216Y-101550406D02*
X119432531Y-102116091D01*
X119459468Y-101981404D01*
X119459468Y-101873654D01*
X119432531Y-101792842D01*
X120159841Y-102358528D02*
X120079028Y-102331590D01*
X120025154Y-102331590D01*
X119944341Y-102358528D01*
X119917404Y-102385465D01*
X119890467Y-102466277D01*
X119890467Y-102520152D01*
X119917404Y-102600964D01*
X120025154Y-102708714D01*
X120105966Y-102735651D01*
X120159841Y-102735651D01*
X120240653Y-102708714D01*
X120267590Y-102681776D01*
X120294528Y-102600964D01*
X120294528Y-102547089D01*
X120267590Y-102466277D01*
X120159841Y-102358528D01*
X120132903Y-102277715D01*
X120132903Y-102223841D01*
X120159841Y-102143028D01*
X120267590Y-102035279D01*
X120348402Y-102008341D01*
X120402277Y-102008341D01*
X120483089Y-102035279D01*
X120590839Y-102143028D01*
X120617776Y-102223841D01*
X120617776Y-102277715D01*
X120590839Y-102358528D01*
X120483089Y-102466277D01*
X120402277Y-102493215D01*
X120348402Y-102493215D01*
X120267590Y-102466277D01*
X144597722Y-93499407D02*
X144516910Y-93472470D01*
X144436097Y-93391658D01*
X144382223Y-93283908D01*
X144382223Y-93176158D01*
X144409160Y-93095346D01*
X144489972Y-92960659D01*
X144570784Y-92879847D01*
X144705471Y-92799035D01*
X144786284Y-92772097D01*
X144894033Y-92772097D01*
X145001783Y-92825972D01*
X145055658Y-92879847D01*
X145109532Y-92987597D01*
X145109532Y-93041471D01*
X144920971Y-93230033D01*
X144813221Y-93122284D01*
X145405844Y-93230033D02*
X144840158Y-93795719D01*
X145055658Y-94011218D01*
X145136470Y-94038155D01*
X145190345Y-94038155D01*
X145271157Y-94011218D01*
X145351969Y-93930406D01*
X145378906Y-93849593D01*
X145378906Y-93795719D01*
X145351969Y-93714906D01*
X145136470Y-93499407D01*
X146267841Y-94092030D02*
X145944592Y-93768781D01*
X146106216Y-93930406D02*
X145540531Y-94496091D01*
X145567468Y-94361404D01*
X145567468Y-94253654D01*
X145540531Y-94172842D01*
X146052341Y-95007902D02*
X146106216Y-95061776D01*
X146187028Y-95088714D01*
X146240903Y-95088714D01*
X146321715Y-95061776D01*
X146456402Y-94980964D01*
X146591089Y-94846277D01*
X146671902Y-94711590D01*
X146698839Y-94630778D01*
X146698839Y-94576903D01*
X146671902Y-94496091D01*
X146618027Y-94442216D01*
X146537215Y-94415279D01*
X146483340Y-94415279D01*
X146402528Y-94442216D01*
X146267841Y-94523028D01*
X146133154Y-94657715D01*
X146052341Y-94792402D01*
X146025404Y-94873215D01*
X146025404Y-94927089D01*
X146052341Y-95007902D01*
X144613096Y-81068781D02*
X144532284Y-81041844D01*
X144451471Y-80961032D01*
X144397597Y-80853282D01*
X144397597Y-80745532D01*
X144424534Y-80664720D01*
X144505346Y-80530033D01*
X144586158Y-80449221D01*
X144720845Y-80368409D01*
X144801658Y-80341471D01*
X144909407Y-80341471D01*
X145017157Y-80395346D01*
X145071032Y-80449221D01*
X145124906Y-80556971D01*
X145124906Y-80610845D01*
X144936345Y-80799407D01*
X144828595Y-80691658D01*
X145421218Y-80799407D02*
X144855532Y-81365093D01*
X145071032Y-81580592D01*
X145151844Y-81607529D01*
X145205719Y-81607529D01*
X145286531Y-81580592D01*
X145367343Y-81499780D01*
X145394280Y-81418967D01*
X145394280Y-81365093D01*
X145367343Y-81284280D01*
X145151844Y-81068781D01*
X145663654Y-82173215D02*
X145555905Y-82065465D01*
X145528967Y-81984653D01*
X145528967Y-81930778D01*
X145555905Y-81796091D01*
X145636717Y-81661404D01*
X145852216Y-81445905D01*
X145933028Y-81418967D01*
X145986903Y-81418967D01*
X146067715Y-81445905D01*
X146175465Y-81553654D01*
X146202402Y-81634467D01*
X146202402Y-81688341D01*
X146175465Y-81769154D01*
X146040778Y-81903841D01*
X145959966Y-81930778D01*
X145906091Y-81930778D01*
X145825279Y-81903841D01*
X145717529Y-81796091D01*
X145690592Y-81715279D01*
X145690592Y-81661404D01*
X145717529Y-81580592D01*
X118986158Y-91201844D02*
X118905346Y-91174906D01*
X118824534Y-91094094D01*
X118770659Y-90986345D01*
X118770659Y-90878595D01*
X118797597Y-90797783D01*
X118878409Y-90663096D01*
X118959221Y-90582284D01*
X119093908Y-90501471D01*
X119174720Y-90474534D01*
X119282470Y-90474534D01*
X119390219Y-90528409D01*
X119444094Y-90582284D01*
X119497969Y-90690033D01*
X119497969Y-90743908D01*
X119309407Y-90932470D01*
X119201658Y-90824720D01*
X119794280Y-90932470D02*
X119228595Y-91498155D01*
X120117529Y-91255719D01*
X119551844Y-91821404D01*
X120386903Y-91525093D02*
X119821218Y-92090778D01*
X119955905Y-92225465D01*
X120063654Y-92279340D01*
X120171404Y-92279340D01*
X120252216Y-92252402D01*
X120386903Y-92171590D01*
X120467715Y-92090778D01*
X120548528Y-91956091D01*
X120575465Y-91875279D01*
X120575465Y-91767529D01*
X120521590Y-91659780D01*
X120386903Y-91525093D01*
X118020473Y-62750033D02*
X118774720Y-62372910D01*
X118397597Y-63127157D01*
X119097969Y-62750033D02*
X119205719Y-62803908D01*
X119340406Y-62938595D01*
X119367343Y-63019407D01*
X119367343Y-63073282D01*
X119340406Y-63154094D01*
X119286531Y-63207969D01*
X119205719Y-63234906D01*
X119151844Y-63234906D01*
X119071032Y-63207969D01*
X118936345Y-63127157D01*
X118855532Y-63100219D01*
X118801658Y-63100219D01*
X118720845Y-63127157D01*
X118666971Y-63181032D01*
X118640033Y-63261844D01*
X118640033Y-63315719D01*
X118666971Y-63396531D01*
X118801658Y-63531218D01*
X118909407Y-63585093D01*
X119528967Y-63665905D02*
X119798341Y-63396531D01*
X119044094Y-63773654D02*
X119528967Y-63665905D01*
X119421218Y-64150778D01*
X120121590Y-63773654D02*
X120229340Y-63827529D01*
X120364027Y-63962216D01*
X120390964Y-64043028D01*
X120390964Y-64096903D01*
X120364027Y-64177715D01*
X120310152Y-64231590D01*
X120229340Y-64258528D01*
X120175465Y-64258528D01*
X120094653Y-64231590D01*
X119959966Y-64150778D01*
X119879154Y-64123841D01*
X119825279Y-64123841D01*
X119744467Y-64150778D01*
X119690592Y-64204653D01*
X119663654Y-64285465D01*
X119663654Y-64339340D01*
X119690592Y-64420152D01*
X119825279Y-64554839D01*
X119933028Y-64608714D01*
X144586158Y-91201844D02*
X144505346Y-91174906D01*
X144424534Y-91094094D01*
X144370659Y-90986345D01*
X144370659Y-90878595D01*
X144397597Y-90797783D01*
X144478409Y-90663096D01*
X144559221Y-90582284D01*
X144693908Y-90501471D01*
X144774720Y-90474534D01*
X144882470Y-90474534D01*
X144990219Y-90528409D01*
X145044094Y-90582284D01*
X145097969Y-90690033D01*
X145097969Y-90743908D01*
X144909407Y-90932470D01*
X144801658Y-90824720D01*
X145394280Y-90932470D02*
X144828595Y-91498155D01*
X145717529Y-91255719D01*
X145151844Y-91821404D01*
X145986903Y-91525093D02*
X145421218Y-92090778D01*
X145555905Y-92225465D01*
X145663654Y-92279340D01*
X145771404Y-92279340D01*
X145852216Y-92252402D01*
X145986903Y-92171590D01*
X146067715Y-92090778D01*
X146148528Y-91956091D01*
X146175465Y-91875279D01*
X146175465Y-91767529D01*
X146121590Y-91659780D01*
X145986903Y-91525093D01*
%TO.C,Q1*%
X117595238Y-60647619D02*
X117690476Y-60600000D01*
X117785714Y-60504761D01*
X117928571Y-60361904D01*
X118023809Y-60314285D01*
X118119047Y-60314285D01*
X118071428Y-60552380D02*
X118166666Y-60504761D01*
X118261904Y-60409523D01*
X118309523Y-60219047D01*
X118309523Y-59885714D01*
X118261904Y-59695238D01*
X118166666Y-59600000D01*
X118071428Y-59552380D01*
X117880952Y-59552380D01*
X117785714Y-59600000D01*
X117690476Y-59695238D01*
X117642857Y-59885714D01*
X117642857Y-60219047D01*
X117690476Y-60409523D01*
X117785714Y-60504761D01*
X117880952Y-60552380D01*
X118071428Y-60552380D01*
X116690476Y-60552380D02*
X117261904Y-60552380D01*
X116976190Y-60552380D02*
X116976190Y-59552380D01*
X117071428Y-59695238D01*
X117166666Y-59790476D01*
X117261904Y-59838095D01*
%TO.C,R1*%
X157382380Y-91583333D02*
X156906190Y-91250000D01*
X157382380Y-91011904D02*
X156382380Y-91011904D01*
X156382380Y-91392857D01*
X156430000Y-91488095D01*
X156477619Y-91535714D01*
X156572857Y-91583333D01*
X156715714Y-91583333D01*
X156810952Y-91535714D01*
X156858571Y-91488095D01*
X156906190Y-91392857D01*
X156906190Y-91011904D01*
X157382380Y-92535714D02*
X157382380Y-91964285D01*
X157382380Y-92250000D02*
X156382380Y-92250000D01*
X156525238Y-92154761D01*
X156620476Y-92059523D01*
X156668095Y-91964285D01*
D12*
%TO.C,IC1*%
X99920000Y-78890000D02*
X110080000Y-78890000D01*
X112000000Y-80000000D02*
X112000000Y-60000000D01*
X99920000Y-64920000D02*
X99920000Y-78890000D01*
X98000000Y-60000000D02*
X98000000Y-80000000D01*
X112000000Y-60000000D02*
X98000000Y-60000000D01*
X102460000Y-64920000D02*
X99920000Y-64920000D01*
X98000000Y-80000000D02*
X112000000Y-80000000D01*
X102460000Y-61110000D02*
X102460000Y-64920000D01*
X110080000Y-61110000D02*
X102460000Y-61110000D01*
X110080000Y-78890000D02*
X110080000Y-61110000D01*
X99920000Y-61110000D02*
G75*
G03*
X99920000Y-61110000I-381000J0D01*
G01*
X99793000Y-61110000D02*
G75*
G03*
X99793000Y-61110000I-254000J0D01*
G01*
X101952000Y-62126000D02*
G75*
G03*
X101952000Y-62126000I-1016000J0D01*
G01*
D13*
%TO.C,BT1*%
X168250000Y-132500000D02*
X91250000Y-132500000D01*
X91250000Y-132500000D02*
X91250000Y-112500000D01*
X91250000Y-112500000D02*
X168250000Y-112500000D01*
X168250000Y-112500000D02*
X168250000Y-132500000D01*
D14*
%TO.C,U1*%
X166005000Y-59745000D02*
X166005000Y-87745000D01*
X148805000Y-87745000D02*
X166005000Y-87745000D01*
X148805000Y-59745000D02*
X148805000Y-87745000D01*
X148805000Y-59745000D02*
X166005000Y-59745000D01*
%TO.C,U2*%
X122000000Y-72100000D02*
X122000000Y-72500000D01*
X143000000Y-87300000D02*
X143000000Y-87700000D01*
X122000000Y-105100000D02*
X122000000Y-105500000D01*
X122000000Y-59500000D02*
X122000000Y-59800000D01*
X122000000Y-110500000D02*
X128800000Y-110500000D01*
X143000000Y-59500000D02*
X122000000Y-59500000D01*
X143000000Y-74600000D02*
X143000000Y-75000000D01*
X143000000Y-105100000D02*
X143000000Y-105500000D01*
X143000000Y-79700000D02*
X143000000Y-80100000D01*
X143000000Y-82300000D02*
X143000000Y-82700000D01*
X143000000Y-61900000D02*
X143000000Y-62300000D01*
X143000000Y-107700000D02*
X143000000Y-108100000D01*
X136200000Y-110500000D02*
X143000000Y-110500000D01*
X122000000Y-107700000D02*
X122000000Y-108100000D01*
X143000000Y-77200000D02*
X143000000Y-77600000D01*
X122000000Y-92400000D02*
X122000000Y-92800000D01*
X143000000Y-97500000D02*
X143000000Y-97900000D01*
X122000000Y-77200000D02*
X122000000Y-77600000D01*
X122000000Y-89900000D02*
X122000000Y-90300000D01*
X122000000Y-64500000D02*
X122000000Y-64900000D01*
X122000000Y-61900000D02*
X122000000Y-62300000D01*
X122000000Y-69600000D02*
X122000000Y-70000000D01*
X143000000Y-89900000D02*
X143000000Y-90300000D01*
X143000000Y-64500000D02*
X143000000Y-64900000D01*
X143000000Y-92400000D02*
X143000000Y-92800000D01*
X143000000Y-69600000D02*
X143000000Y-70000000D01*
X134000000Y-110500000D02*
X133600000Y-110500000D01*
X143000000Y-62167000D02*
X139993000Y-62167000D01*
X143000000Y-59500000D02*
X143000000Y-59800000D01*
X122000000Y-87300000D02*
X122000000Y-87700000D01*
X122000000Y-84800000D02*
X122000000Y-85200000D01*
X143000000Y-102600000D02*
X143000000Y-103000000D01*
X143000000Y-67000000D02*
X143000000Y-67400000D01*
X122000000Y-74600000D02*
X122000000Y-75000000D01*
X143000000Y-100100000D02*
X143000000Y-100500000D01*
X122000000Y-79700000D02*
X122000000Y-80100000D01*
X122000000Y-82300000D02*
X122000000Y-82700000D01*
X122000000Y-100100000D02*
X122000000Y-100500000D01*
X122000000Y-97500000D02*
X122000000Y-97900000D01*
X143000000Y-95000000D02*
X143000000Y-95400000D01*
X143000000Y-84800000D02*
X143000000Y-85200000D01*
X143000000Y-72100000D02*
X143000000Y-72500000D01*
X122000000Y-67000000D02*
X122000000Y-67400000D01*
X139993000Y-62167000D02*
X139993000Y-59500000D01*
X131400000Y-110500000D02*
X131000000Y-110500000D01*
X122000000Y-95000000D02*
X122000000Y-95400000D01*
X122000000Y-102600000D02*
X122000000Y-103000000D01*
%TO.C,Q1*%
X117500000Y-60940000D02*
X119175000Y-60940000D01*
X117500000Y-60940000D02*
X116850000Y-60940000D01*
X117500000Y-64060000D02*
X118150000Y-64060000D01*
X117500000Y-64060000D02*
X116850000Y-64060000D01*
%TO.C,R1*%
X157840000Y-91022936D02*
X157840000Y-92477064D01*
X159660000Y-91022936D02*
X159660000Y-92477064D01*
%TD*%
M02*
