M48
; DRILL file {KiCad (6.0.6)} date Thu Nov  3 15:56:20 2022
; FORMAT={-:-/ absolute / inch / decimal}
; #@! TF.CreationDate,2022-11-03T15:56:20+01:00
; #@! TF.GenerationSoftware,Kicad,Pcbnew,(6.0.6)
; #@! TF.FileFunction,Plated,1,2,PTH
FMAT,2
INCH
; #@! TA.AperFunction,Plated,PTH,ViaDrill
T1C0.0157
; #@! TA.AperFunction,Plated,PTH,ComponentDrill
T2C0.0300
; #@! TA.AperFunction,Plated,PTH,ComponentDrill
T3C0.0394
%
G90
G05
T1
X3.7008Y-5.2756
X3.8091Y-2.4016
X3.8386Y-2.6476
X3.8386Y-3.1004
X3.8386Y-4.3701
X4.4882Y-2.7008
X4.9213Y-3.5827
X5.2622Y-3.9085
X5.2657Y-3.9665
X5.2657Y-4.2028
X5.3248Y-4.2028
X5.3346Y-4.498
X5.3445Y-3.6122
X5.4724Y-2.126
X5.4724Y-2.2835
X5.4724Y-4.7047
X5.5118Y-3.6122
X5.5906Y-4.498
X5.6693Y-3.8976
X5.7087Y-2.7264
X5.7087Y-3.3169
X5.876Y-2.8051
X6.0236Y-3.061
X6.0236Y-3.7402
X6.0236Y-4.2323
X6.063Y-3.5827
T2
X6.263Y-4.6425
X6.463Y-4.4425
T3
X5.9215Y-2.4506
X5.9215Y-3.3561
X6.0215Y-3.3561
X6.3726Y-3.3561
X6.4726Y-2.4506
X6.4726Y-3.3561
T0
M30
